<?xml version="1.0" encoding="UTF-8"?>
<svg xmlns="http://www.w3.org/2000/svg"
     xmlns:xlink="http://www.w3.org/1999/xlink"
     xmlns:gadfly="http://www.gadflyjl.org/ns"
     version="1.2"
     width="141.42mm" height="100mm" viewBox="0 0 141.42 100"
     stroke="none"
     fill="#000000"
     stroke-width="0.3"
     font-size="3.88"
>
<g class="plotroot xscalable yscalable" id="img-0083eaff-1">
  <g font-size="3.88" font-family="'PT Sans','Helvetica Neue','Helvetica',sans-serif" fill="#564A55" stroke="#000000" stroke-opacity="0.000" id="img-0083eaff-2">
    <text x="77.12" y="88.39" text-anchor="middle" dy="0.6em">x</text>
  </g>
  <g class="guide xlabels" font-size="2.82" font-family="'PT Sans Caption','Helvetica Neue','Helvetica',sans-serif" fill="#6C606B" id="img-0083eaff-3">
    <text x="19.83" y="81.72" text-anchor="middle" dy="0.6em">2000</text>
    <text x="58.04" y="81.72" text-anchor="middle" dy="0.6em">2005</text>
    <text x="96.23" y="81.72" text-anchor="middle" dy="0.6em">2010</text>
    <text x="134.42" y="81.72" text-anchor="middle" dy="0.6em">2015</text>
  </g>
<g clip-path="url(#img-0083eaff-4)">
  <g id="img-0083eaff-5">
    <g pointer-events="visible" opacity="1" fill="#000000" fill-opacity="0.000" stroke="#000000" stroke-opacity="0.000" class="guide background" id="img-0083eaff-6">
      <rect x="17.83" y="5" width="118.6" height="75.72"/>
    </g>
    <g class="guide ygridlines xfixed" stroke-dasharray="0.5,0.5" stroke-width="0.2" stroke="#D0D0E0" id="img-0083eaff-7">
      <path fill="none" d="M17.83,78.72 L 136.42 78.72"/>
      <path fill="none" d="M17.83,64.37 L 136.42 64.37"/>
      <path fill="none" d="M17.83,50.03 L 136.42 50.03"/>
      <path fill="none" d="M17.83,35.69 L 136.42 35.69"/>
      <path fill="none" d="M17.83,21.34 L 136.42 21.34"/>
      <path fill="none" d="M17.83,7 L 136.42 7"/>
    </g>
    <g class="guide xgridlines yfixed" stroke-dasharray="0.5,0.5" stroke-width="0.2" stroke="#D0D0E0" id="img-0083eaff-8">
      <path fill="none" d="M19.83,5 L 19.83 80.72"/>
      <path fill="none" d="M58.04,5 L 58.04 80.72"/>
      <path fill="none" d="M96.23,5 L 96.23 80.72"/>
      <path fill="none" d="M134.42,5 L 134.42 80.72"/>
    </g>
    <g class="plotpanel" id="img-0083eaff-9">
      <g stroke-width="0.3" fill="#000000" fill-opacity="0.000" class="geometry" stroke-dasharray="none" stroke="#00BFFF" id="img-0083eaff-10">
        <path fill="none" d="M19.83,7.43 L 19.99 7.57 20.16 7.72 20.33 7.86 20.5 8 20.66 8.15 20.83 8.29 21 8.29 21.16 8.29 21.33 8.29 21.5 8.29 21.67 8.29 21.83 8.29 22 8.29 22.17 8.29 22.34 9.01 22.5 8.29 22.67 8.29 22.84 8.29 23 8.29 23.17 8.29 23.34 8.29 23.51 8.29 23.67 8.29 23.84 8.29 24.01 8.29 24.18 8.29 24.34 8.29 24.51 8.29 24.68 8.29 24.85 8.29 25.01 8.29 25.18 8.29 25.35 8.29 25.51 8.86 25.68 8.29 25.85 8.29 26.02 8.29 26.18 11.59 26.35 11.59 26.52 8.15 26.69 8.15 26.85 8.15 27.02 8.15 27.19 8.15 27.36 78.72 27.48 8.15 27.65 8.58 27.82 8.29 27.98 8.43 28.15 8.29 28.32 8.72 28.48 8.43 28.65 8.43 28.82 8.43 28.99 8.43 29.15 8.43 29.32 8.43 29.49 8.29 29.66 8.29 29.82 8.29 29.99 8.29 30.16 8.29 30.33 8.29 30.49 8.29 30.66 8.43 30.83 8.29 30.99 8.29 31.16 8.29 31.33 9.01 31.5 8.58 31.66 8.58 31.83 8.29 32 8.58 32.17 8.29 32.33 8.29 32.5 8.43 32.67 8.29 32.84 8.72 33 8.29 33.17 8.43 33.34 8.29 33.5 8.29 33.67 8.29 33.84 8.29 34.01 8.29 34.17 8.29 34.34 8.29 34.51 8.29 34.68 8.29 34.84 8.29 35.01 8.43 35.11 8.29 35.28 8.58 35.45 8.58 35.62 8.43 35.78 8.43 35.95 8.43 36.12 8.29 36.29 8.29 36.45 8.29 36.62 8.29 36.79 8.29 36.96 8.72 37.12 8.29 37.29 8.29 37.46 8.29 37.62 8.58 37.79 8.29 37.96 8.29 38.13 8.29 38.29 8.29 38.46 8.29 38.63 8.29 38.8 8.29 38.96 8.29 39.13 8.29 39.3 8.29 39.47 8.29 39.63 8.29 39.8 8.29 39.97 8.29 40.13 8.43 40.3 8.29 40.47 8.29 40.64 8.29 40.8 8.29 40.97 8.29 41.14 8.29 41.31 8.29 41.47 8.29 41.64 8.29 41.81 8.29 41.98 8.29 42.14 8.29 42.31 8.43 42.48 8.72 42.64 8.58 42.75 8.72 42.92 15.75 43.08 8.29 43.25 8.29 43.42 8.29 43.59 8.29 43.75 8.29 43.92 8.29 44.09 8.29 44.26 8.29 44.42 8.29 44.59 8.29 44.76 8.29 44.92 8.29 45.09 8.29 45.26 8.29 45.43 8.29 45.59 8.29 45.76 8.29 45.93 8.29 46.1 8.29 46.26 8.29 46.43 8.29 46.6 8.43 46.76 8.29 46.93 8.29 47.1 8.29 47.27 8.29 47.43 8.29 47.6 8.29 47.77 8.29 47.94 8.29 48.1 8.29 48.27 8.29 48.44 8.29 48.61 8.29 48.77 8.29 48.94 8.29 49.11 8.58 49.27 8.29 49.44 8.29 49.61 8.29 49.78 8.29 49.94 8.29 50.11 8.43 50.28 10.01 50.38 8.29 50.55 8.29 50.72 8.29 50.89 8.29 51.05 8.29 51.22 8.29 51.39 8.29 51.55 8.29 51.72 8.29 51.89 8.29 52.06 8.29 52.22 8.29 52.39 8.29 52.56 8.29 52.73 8.29 52.89 8.29 53.06 8.29 53.23 8.29 53.4 8.29 53.56 8.29 53.73 8.29 53.9 8.29 54.06 8.29 54.23 8.29 54.4 8.29 54.57 8.29 54.73 8.29 54.9 8.29 55.07 8.29 55.24 8.29 55.4 8.29 55.57 8.29 55.74 8.29 55.9 8.29 56.07 8.58 56.24 8.29 56.41 8.29 56.57 8.29 56.74 8.29 56.91 8.29 57.08 8.29 57.24 8.29 57.41 8.29 57.58 8.29 57.75 8.29 57.91 8.58 58.04 8.29 58.21 8.29 58.37 8.29 58.54 8.29 58.71 8.29 58.87 8.29 59.04 10.44 59.21 9.87 59.38 8.86 59.54 8.29 59.71 8.29 59.88 8.29 60.05 8.29 60.21 8.29 60.38 8.29 60.55 8.29 60.72 8.29 60.88 8.29 61.05 8.29 61.22 8.29 61.38 8.29 61.55 8.29 61.72 8.29 61.89 8.29 62.05 8.29 62.22 8.29 62.39 8.29 62.56 8.29 62.72 8.29 62.89 8.29 63.06 8.29 63.23 8.29 63.39 8.29 63.56 8.29 63.73 8.58 63.89 8.29 64.06 8.29 64.23 8.29 64.4 8.29 64.56 8.29 64.73 8.29 64.9 8.29 65.07 8.29 65.23 8.29 65.4 8.29 65.57 8.58 65.67 8.29 65.84 8.29 66.01 8.29 66.17 8.29 66.34 8.29 66.51 8.29 66.68 8.58 66.84 8.58 67.01 8.29 67.18 8.29 67.35 8.29 67.51 8.29 67.68 8.29 67.85 8.29 68.01 8.29 68.18 8.29 68.35 8.29 68.52 8.29 68.68 8.29 68.85 8.29 69.02 8.29 69.19 8.29 69.35 8.29 69.52 8.29 69.69 8.29 69.86 8.29 70.02 8.29 70.19 8.29 70.36 8.29 70.52 8.29 70.69 8.29 70.86 8.29 71.03 8.29 71.19 8.29 71.36 8.29 71.53 8.29 71.7 8.29 71.86 8.29 72.03 8.29 72.2 8.29 72.37 8.29 72.53 8.29 72.7 8.43 72.87 8.43 73.03 8.43 73.2 9.58 73.31 8.43 73.47 8.29 73.64 8.29 73.81 8.29 73.98 8.29 74.14 8.43 74.31 8.58 74.48 8.58 74.65 8.43 74.81 8.29 74.98 8.29 75.15 8.29 75.31 8.29 75.48 8.29 75.65 8.29 75.82 8.29 75.98 8.29 76.15 8.29 76.32 8.29 76.49 8.29 76.65 8.29 76.82 8.29 76.99 8.29 77.15 8.29 77.32 8.29 77.49 8.29 77.66 8.29 77.82 8.29 77.99 8.29 78.16 8.29 78.33 8.29 78.49 8.29 78.66 8.29 78.83 8.29 79 8.29 79.16 8.29 79.33 8.29 79.5 8.29 79.66 8.58 79.83 8.58 80 8.29 80.17 8.29 80.33 8.29 80.5 8.29 80.67 8.29 80.84 8.58 80.94 8.29 81.11 8.29 81.28 8.29 81.44 8.29 81.61 8.29 81.78 8.29 81.94 8.29 82.11 8.29 82.28 8.29 82.45 8.29 82.61 8.29 82.78 8.29 82.95 8.29 83.12 8.29 83.28 8.29 83.45 8.29 83.62 8.29 83.79 8.29 83.95 8.29 84.12 8.29 84.29 8.29 84.45 8.29 84.62 8.29 84.79 8.29 84.96 8.29 85.12 8.43 85.29 8.29 85.46 8.29 85.63 8.29 85.79 8.29 85.96 8.29 86.13 8.29 86.3 8.29 86.46 8.29 86.63 8.29 86.8 8.29 86.96 8.29 87.13 8.29 87.3 8.29 87.47 8.29 87.63 8.29 87.8 8.29 87.97 8.29 88.14 8.29 88.3 8.29 88.47 8.72 88.6 8.29 88.76 8.29 88.93 8.29 89.1 8.29 89.26 8.29 89.43 8.58 89.6 8.29 89.77 8.29 89.93 8.29 90.1 8.29 90.27 8.29 90.44 8.29 90.6 8.29 90.77 8.29 90.94 8.29 91.11 8.29 91.27 8.29 91.44 8.29 91.61 8.15 91.77 8 91.94 7.86 92.11 7.86 92.28 7.86 92.44 78.72 92.61 78.72 92.78 78.72 92.95 8.72 93.11 7.86 93.28 7.86 93.45 8 93.62 8.15 93.78 8.29 93.95 8.29 94.12 8.29 94.28 8.29 94.45 8.29 94.62 8.29 94.79 8.29 94.95 8.58 95.12 8.58 95.29 8.29 95.46 8.29 95.62 8.29 95.79 8.29 95.96 8.29 96.13 8.72 96.23 8.29 96.4 8.29 96.56 8.29 96.73 8.29 96.9 8.29 97.07 8.29 97.23 8.29 97.4 8.43 97.57 8.29 97.74 8.29 97.9 8.29 98.07 8.29 98.24 8.29 98.41 8.29 98.57 8.29 98.74 8.29 98.91 8.29 99.07 8.29 99.24 8.29 99.41 8.29 99.58 8.29 99.74 8.29 99.91 8.29 100.08 8.29 100.25 8.43 100.41 8.43 100.58 8.43 100.75 8.43 100.91 8.43 101.08 8.43 101.25 8.43 101.42 8.43 101.58 8.43 101.75 8.43 101.92 8.29 102.09 8.29 102.25 8.29 102.42 8.29 102.59 8.29 102.76 8.29 102.92 8.15 103.09 8 103.26 7.86 103.42 7.72 103.59 8 103.76 8.15"/>
      </g>
    </g>
  </g>
</g>
  <g class="guide ylabels" font-size="2.82" font-family="'PT Sans Caption','Helvetica Neue','Helvetica',sans-serif" fill="#6C606B" id="img-0083eaff-11">
    <text x="16.83" y="78.72" text-anchor="end" dy="0.35em">0</text>
    <text x="16.83" y="64.37" text-anchor="end" dy="0.35em">100</text>
    <text x="16.83" y="50.03" text-anchor="end" dy="0.35em">200</text>
    <text x="16.83" y="35.69" text-anchor="end" dy="0.35em">300</text>
    <text x="16.83" y="21.34" text-anchor="end" dy="0.35em">400</text>
    <text x="16.83" y="7" text-anchor="end" dy="0.35em">500</text>
  </g>
  <g font-size="3.88" font-family="'PT Sans','Helvetica Neue','Helvetica',sans-serif" fill="#564A55" stroke="#000000" stroke-opacity="0.000" id="img-0083eaff-12">
    <text x="8.81" y="42.86" text-anchor="end" dy="0.35em">y</text>
  </g>
</g>
<defs>
  <clipPath id="img-0083eaff-4">
  <path d="M17.83,5 L 136.42 5 136.42 80.72 17.83 80.72" />
</clipPath>
</defs>
</svg>
