<?xml version="1.0" encoding="UTF-8"?>
<svg xmlns="http://www.w3.org/2000/svg"
     xmlns:xlink="http://www.w3.org/1999/xlink"
     xmlns:gadfly="http://www.gadflyjl.org/ns"
     version="1.2"
     width="141.42mm" height="100mm" viewBox="0 0 141.42 100"
     stroke="none"
     fill="#000000"
     stroke-width="0.3"
     font-size="3.88"
>
<g class="plotroot xscalable yscalable" id="img-e349cd4e-1">
  <g font-size="3.88" font-family="'PT Sans','Helvetica Neue','Helvetica',sans-serif" fill="#564A55" stroke="#000000" stroke-opacity="0.000" id="img-e349cd4e-2">
    <text x="70.57" y="88.39" text-anchor="middle" dy="0.6em">x</text>
  </g>
  <g class="guide xlabels" font-size="2.82" font-family="'PT Sans Caption','Helvetica Neue','Helvetica',sans-serif" fill="#6C606B" id="img-e349cd4e-3">
    <text x="25.69" y="81.72" text-anchor="middle" dy="0.6em">2000</text>
    <text x="55.62" y="81.72" text-anchor="middle" dy="0.6em">2005</text>
    <text x="85.54" y="81.72" text-anchor="middle" dy="0.6em">2010</text>
    <text x="115.45" y="81.72" text-anchor="middle" dy="0.6em">2015</text>
  </g>
  <g class="guide colorkey" id="img-e349cd4e-4">
    <g fill="#4C404B" font-size="2.82" font-family="'PT Sans','Helvetica Neue','Helvetica',sans-serif" id="img-e349cd4e-5">
      <text x="121.27" y="35.6" dy="0.35em" id="img-e349cd4e-6" class="color_Emission">Emission</text>
      <text x="121.27" y="39.23" dy="0.35em" id="img-e349cd4e-7" class="color_DHR_VIS">DHR_VIS</text>
      <text x="121.27" y="42.86" dy="0.35em" id="img-e349cd4e-8" class="color_BurntArea">BurntArea</text>
      <text x="121.27" y="46.48" dy="0.35em" id="img-e349cd4e-9" class="color_SoilMoisture">SoilMoisture</text>
      <text x="121.27" y="50.11" dy="0.35em" id="img-e349cd4e-10" class="color_BHR_VIS">BHR_VIS</text>
      <text x="121.27" y="53.74" dy="0.35em" id="img-e349cd4e-11" class="color_t2m">t2m</text>
    </g>
    <g stroke="#000000" stroke-opacity="0.000" id="img-e349cd4e-12">
      <rect x="118.45" y="34.7" width="1.81" height="1.81" id="img-e349cd4e-13" fill="#00BFFF" class="color_Emission"/>
      <rect x="118.45" y="38.32" width="1.81" height="1.81" id="img-e349cd4e-14" fill="#D4CA3A" class="color_DHR_VIS"/>
      <rect x="118.45" y="41.95" width="1.81" height="1.81" id="img-e349cd4e-15" fill="#FF6DAE" class="color_BurntArea"/>
      <rect x="118.45" y="45.58" width="1.81" height="1.81" id="img-e349cd4e-16" fill="#00B78D" class="color_SoilMoisture"/>
      <rect x="118.45" y="49.2" width="1.81" height="1.81" id="img-e349cd4e-17" fill="#BEA9FF" class="color_BHR_VIS"/>
      <rect x="118.45" y="52.83" width="1.81" height="1.81" id="img-e349cd4e-18" fill="#FF6765" class="color_t2m"/>
    </g>
    <g fill="#362A35" font-size="3.88" font-family="'PT Sans','Helvetica Neue','Helvetica',sans-serif" stroke="#000000" stroke-opacity="0.000" id="img-e349cd4e-19">
      <text x="118.45" y="31.78" id="img-e349cd4e-20">Color</text>
    </g>
  </g>
<g clip-path="url(#img-e349cd4e-21)">
  <g id="img-e349cd4e-22">
    <g pointer-events="visible" opacity="1" fill="#000000" fill-opacity="0.000" stroke="#000000" stroke-opacity="0.000" class="guide background" id="img-e349cd4e-23">
      <rect x="23.69" y="5" width="93.77" height="75.72" id="img-e349cd4e-24"/>
    </g>
    <g class="guide ygridlines xfixed" stroke-dasharray="0.5,0.5" stroke-width="0.2" stroke="#D0D0E0" id="img-e349cd4e-25">
      <path fill="none" d="M23.69,78.72 L 117.45 78.72" id="img-e349cd4e-26"/>
      <path fill="none" d="M23.69,66.76 L 117.45 66.76" id="img-e349cd4e-27"/>
      <path fill="none" d="M23.69,54.81 L 117.45 54.81" id="img-e349cd4e-28"/>
      <path fill="none" d="M23.69,42.86 L 117.45 42.86" id="img-e349cd4e-29"/>
      <path fill="none" d="M23.69,30.9 L 117.45 30.9" id="img-e349cd4e-30"/>
      <path fill="none" d="M23.69,18.95 L 117.45 18.95" id="img-e349cd4e-31"/>
      <path fill="none" d="M23.69,7 L 117.45 7" id="img-e349cd4e-32"/>
    </g>
    <g class="guide xgridlines yfixed" stroke-dasharray="0.5,0.5" stroke-width="0.2" stroke="#D0D0E0" id="img-e349cd4e-33">
      <path fill="none" d="M25.69,5 L 25.69 80.72" id="img-e349cd4e-34"/>
      <path fill="none" d="M55.62,5 L 55.62 80.72" id="img-e349cd4e-35"/>
      <path fill="none" d="M85.54,5 L 85.54 80.72" id="img-e349cd4e-36"/>
      <path fill="none" d="M115.45,5 L 115.45 80.72" id="img-e349cd4e-37"/>
    </g>
    <g class="plotpanel" id="img-e349cd4e-38">
      <g stroke-width="0.3" fill="#000000" fill-opacity="0.000" class="geometry color_t2m" stroke-dasharray="none" stroke="#FF6765" id="img-e349cd4e-39">
        <path fill="none" d="M25.69,42.86 L 25.82 42.86 25.95 42.86 26.08 42.86 26.21 42.86 26.34 42.86 26.47 42.86 26.6 42.86 26.73 42.86 26.87 42.86 27 42.86 27.13 42.86 27.26 42.86 27.39 42.86 27.52 42.86 27.65 42.86 27.78 42.86 27.91 42.86 28.05 42.86 28.18 42.86 28.31 42.86 28.44 42.86 28.57 42.86 28.7 42.86 28.83 42.86 28.96 42.86 29.09 42.86 29.22 42.86 29.36 42.86 29.49 42.86 29.62 42.86 29.75 42.86 29.88 42.86 30.01 42.86 30.14 42.86 30.27 42.86 30.4 42.86 30.54 42.86 30.67 42.86 30.8 42.86 30.93 42.86 31.06 42.86 31.19 42.86 31.32 42.86 31.45 42.86 31.58 42.86 31.68 55.1 31.81 44.64 31.94 48.42 32.08 50 32.21 41.66 32.34 45.69 32.47 50.98 32.6 52.34 32.73 45.84 32.86 47.16 32.99 41.05 33.12 42.83 33.26 48.31 33.39 36.88 33.52 37.05 33.65 45.98 33.78 44.69 33.91 45.75 34.04 46.28 34.17 37.76 34.3 46.61 34.43 43.79 34.57 44.62 34.7 39.14 34.83 45.07 34.96 51.59 35.09 38.17 35.22 43.21 35.35 33.96 35.48 31.07 35.61 28.52 35.75 39.56 35.88 30.19 36.01 23.47 36.14 42.56 36.27 47.09 36.4 39.96 36.53 31.27 36.66 38.96 36.79 29.73 36.93 51.64 37.06 36.38 37.19 46.57 37.32 37.05 37.45 48.38 37.58 56.35 37.66 43.27 37.79 44.74 37.92 32.17 38.06 27.51 38.19 39.65 38.32 31.8 38.45 38.08 38.58 46.37 38.71 37.95 38.84 45.79 38.97 44.23 39.1 42.62 39.24 44.84 39.37 35.71 39.5 41.37 39.63 28.94 39.76 34.96 39.89 33.66 40.02 37.49 40.15 41.2 40.28 38.27 40.42 36.72 40.55 51.33 40.68 36.98 40.81 34.03 40.94 52.69 41.07 45.63 41.2 49.03 41.33 63.64 41.46 53.65 41.59 66.85 41.73 38.9 41.86 44.26 41.99 47.73 42.12 52.86 42.25 43.95 42.38 46.95 42.51 50.25 42.64 49.32 42.77 40.57 42.91 55.94 43.04 56.14 43.17 47.47 43.3 50.73 43.43 51.98 43.56 50.14 43.64 54.51 43.77 46.98 43.91 48.8 44.04 41.99 44.17 50.27 44.3 45.09 44.43 46.54 44.56 51.48 44.69 49.04 44.82 58.63 44.95 49.76 45.08 41.4 45.22 37.53 45.35 38.63 45.48 45.27 45.61 42.9 45.74 38.82 45.87 37.98 46 44.08 46.13 39.42 46.26 38.91 46.4 45.39 46.53 32.8 46.66 26.63 46.79 31.23 46.92 28.54 47.05 43.54 47.18 43.33 47.31 36.86 47.44 39.33 47.58 37.96 47.71 49.39 47.84 49.1 47.97 52.26 48.1 51.2 48.23 45.73 48.36 44.72 48.49 58.11 48.62 48.48 48.75 43.77 48.89 37.34 49.02 36.58 49.15 35.13 49.28 42.53 49.41 31.4 49.54 38.12 49.62 40.68 49.75 41.78 49.89 37.09 50.02 37.59 50.15 45.06 50.28 48.66 50.41 47.36 50.54 41.7 50.67 45.71 50.8 35.32 50.93 53.32 51.06 55.79 51.2 52.84 51.33 52.19 51.46 40.62 51.59 39.97 51.72 41.2 51.85 44.55 51.98 40.27 52.11 40.31 52.24 31.34 52.38 39.6 52.51 40.88 52.64 37.92 52.77 41.67 52.9 35.75 53.03 43.32 53.16 36.06 53.29 47.06 53.42 60.22 53.56 62.97 53.69 52.57 53.82 53.53 53.95 46.25 54.08 42.29 54.21 47.43 54.34 41.64 54.47 38.95 54.6 44.93 54.73 51.87 54.87 38.89 55 37.64 55.13 38.38 55.26 57.39 55.39 41.03 55.52 42.52 55.62 39.69 55.75 38.89 55.88 37.62 56.01 49.48 56.14 34.82 56.28 48.26 56.41 41.56 56.54 48.15 56.67 49.59 56.8 49.29 56.93 44.66 57.06 45.31 57.19 39.31 57.32 51.99 57.45 52.74 57.59 48.28 57.72 52.6 57.85 48.29 57.98 53.66 58.11 46.83 58.24 54.29 58.37 52.22 58.5 48.36 58.63 43.38 58.77 50.59 58.9 49.11 59.03 41.51 59.16 43.19 59.29 41.87 59.42 35.61 59.55 27.41 59.68 39 59.81 30.11 59.95 36.83 60.08 37.02 60.21 46.79 60.34 30.57 60.47 30.29 60.6 29.77 60.73 43.07 60.86 46.23 60.99 30.89 61.12 38.71 61.26 46.93 61.39 45.39 61.52 52.21 61.6 40.79 61.73 43.1 61.86 36.57 61.99 43.14 62.12 50.77 62.26 42.94 62.39 37.9 62.52 30.66 62.65 39.23 62.78 29.78 62.91 35.41 63.04 30.12 63.17 31.87 63.3 40.09 63.43 34.8 63.57 40.44 63.7 35.15 63.83 37.36 63.96 51.14 64.09 38.25 64.22 46.53 64.35 37.59 64.48 41.88 64.61 53.02 64.75 40.97 64.88 38.91 65.01 37.82 65.14 31.77 65.27 32.82 65.4 40.33 65.53 28.22 65.66 30.23 65.79 39.88 65.93 43.69 66.06 40.47 66.19 42.91 66.32 39.17 66.45 46.89 66.58 45.01 66.71 42 66.84 34.4 66.97 38.47 67.11 43.58 67.24 45.16 67.37 54.65 67.5 39.46 67.58 44.12 67.71 40.5 67.84 51.14 67.97 59.07 68.1 47.9 68.24 45.47 68.37 42.86 68.5 36.4 68.63 38.68 68.76 41.67 68.89 45.13 69.02 45.17 69.15 59.22 69.28 49.35 69.42 42.62 69.55 49.16 69.68 41.54 69.81 42.51 69.94 37.68 70.07 40.99 70.2 45.33 70.33 38.58 70.46 38.44 70.59 39.03 70.73 47.78 70.86 58.48 70.99 50.25 71.12 57.07 71.25 52.15 71.38 55.88 71.51 40.44 71.64 46.77 71.77 50.99 71.91 43.73 72.04 32.78 72.17 37.18 72.3 50.84 72.43 43.49 72.56 49.78 72.69 47.07 72.82 44.63 72.95 59.01 73.09 45.65 73.22 39.99 73.35 51.85 73.48 45.26 73.56 38.17 73.69 42.68 73.82 49.14 73.95 31.26 74.08 45.21 74.22 50.15 74.35 43.86 74.48 53.33 74.61 52.34 74.74 50.46 74.87 30.83 75 33.52 75.13 39.64 75.26 45.76 75.4 38.8 75.53 42.33 75.66 48.33 75.79 56.45 75.92 39.25 76.05 48.6 76.18 33.82 76.31 32.59 76.44 40.87 76.58 51.3 76.71 41.79 76.84 24.65 76.97 18.96 77.1 32.06 77.23 21.76 77.36 37.65 77.49 47.89 77.62 44.86 77.75 39.18 77.89 31.79 78.02 34.03 78.15 29.89 78.28 35.72 78.41 37.95 78.54 40.37 78.67 52.19 78.8 28.94 78.93 47.42 79.07 54.56 79.2 40.07 79.33 42.01 79.46 30.39 79.56 32.41 79.69 45.33 79.82 44.72 79.95 38.73 80.08 32.29 80.21 23.97 80.34 32.06 80.47 27.61 80.61 30.61 80.74 27.94 80.87 41.73 81 45.2 81.13 39.46 81.26 36.45 81.39 40.25 81.52 46.57 81.65 43.62 81.79 33.2 81.92 36.33 82.05 52.64 82.18 53.48 82.31 52.74 82.44 49.47 82.57 55.7 82.7 43.8 82.83 45.44 82.96 57.71 83.1 50.27 83.23 54.28 83.36 41.1 83.49 44.9 83.62 48.5 83.75 45 83.88 61.34 84.01 58.32 84.14 47.89 84.28 55.28 84.41 54.76 84.54 41.52 84.67 36.62 84.8 39.4 84.93 50.4 85.06 50.01 85.19 46.18 85.32 47.57 85.46 48.35 85.54 39.84 85.67 39.91 85.8 42.9 85.93 49.81 86.06 40.95 86.19 46.55 86.32 47.36 86.45 40.52 86.59 39.58 86.72 42.52 86.85 42.46 86.98 46.61 87.11 35.56 87.24 41.52 87.37 55.06 87.5 44.01 87.63 47.67 87.77 48.83 87.9 42.41 88.03 42.57 88.16 40.01 88.29 49.35 88.42 39.93 88.55 45.48 88.68 51.63 88.81 43.41 88.95 51.66 89.08 42.58 89.21 44.17 89.34 33.73 89.47 43.43 89.6 38.79 89.73 46.32 89.86 41.48 89.99 37.04 90.12 39.73 90.26 43.73 90.39 36.62 90.52 40.44 90.65 41.69 90.78 51.17 90.91 35.65 91.04 28.52 91.17 22.55 91.3 14.31 91.44 25.79" id="img-e349cd4e-40"/>
      </g>
      <g stroke-width="0.3" fill="#000000" fill-opacity="0.000" class="geometry color_BHR_VIS" stroke-dasharray="none" stroke="#BEA9FF" id="img-e349cd4e-41">
        <path fill="none" d="M25.69,42.86 L 25.82 42.86 25.95 42.86 26.08 42.86 26.21 42.86 26.34 42.86 26.47 42.86 26.6 42.86 26.73 42.86 26.87 42.86 27 42.86 27.13 42.86 27.26 42.86 27.39 42.86 27.52 42.86 27.65 42.86 27.78 42.86 27.91 42.86 28.05 42.86 28.18 42.86 28.31 42.86 28.44 42.86 28.57 42.86 28.7 42.86 28.83 42.86 28.96 42.86 29.09 42.86 29.22 42.86 29.36 42.86 29.49 42.86 29.62 42.86 29.75 42.86 29.88 42.86 30.01 42.86 30.14 42.86 30.27 42.86 30.4 42.86 30.54 42.86 30.67 42.86 30.8 42.86 30.93 42.86 31.06 42.86 31.19 42.86 31.32 42.86 31.45 42.86 31.58 42.86 31.68 42.86 31.81 42.86 31.94 42.86 32.08 42.86 32.21 42.86 32.34 42.86 32.47 42.86 32.6 42.86 32.73 42.86 32.86 42.86 32.99 42.86 33.12 42.86 33.26 42.86 33.39 42.86 33.52 42.86 33.65 42.86 33.78 42.86 33.91 42.86 34.04 42.86 34.17 42.86 34.3 42.86 34.43 42.86 34.57 42.86 34.7 42.86 34.83 42.86 34.96 42.86 35.09 42.86 35.22 42.86 35.35 42.86 35.48 42.86 35.61 42.86 35.75 42.86 35.88 42.86 36.01 42.86 36.14 42.86 36.27 42.86 36.4 42.86 36.53 42.86 36.66 42.86 36.79 42.86 36.93 42.86 37.06 42.86 37.19 42.86 37.32 42.86 37.45 42.86 37.58 42.86 37.66 42.86 37.79 42.86 37.92 42.86 38.06 42.86 38.19 42.86 38.32 42.86 38.45 42.86 38.58 42.86 38.71 42.86 38.84 42.86 38.97 42.86 39.1 42.86 39.24 42.86 39.37 42.86 39.5 42.86 39.63 42.86 39.76 42.86 39.89 42.86 40.02 42.86 40.15 42.86 40.28 42.86 40.42 42.86 40.55 42.86 40.68 42.86 40.81 42.86 40.94 42.86 41.07 42.86 41.2 42.86 41.33 42.86 41.46 42.86 41.59 42.86 41.73 42.86 41.86 42.86 41.99 42.86 42.12 42.86 42.25 42.86 42.38 42.86 42.51 42.86 42.64 42.86 42.77 42.86 42.91 42.86 43.04 42.86 43.17 42.86 43.3 42.86 43.43 42.86 43.56 42.86 43.64 42.86 43.77 42.86 43.91 42.86 44.04 42.86 44.17 42.86 44.3 42.86 44.43 42.86 44.56 42.86 44.69 42.86 44.82 42.86 44.95 42.86 45.08 42.86 45.22 42.86 45.35 42.86 45.48 42.86 45.61 42.86 45.74 42.86 45.87 42.86 46 42.86 46.13 42.86 46.26 42.86 46.4 42.86 46.53 42.86 46.66 42.86 46.79 42.86 46.92 42.86 47.05 42.86 47.18 42.86 47.31 42.86 47.44 42.86 47.58 42.86 47.71 42.86 47.84 42.86 47.97 42.86 48.1 42.86 48.23 42.86 48.36 42.86 48.49 42.86 48.62 42.86 48.75 42.86 48.89 42.86 49.02 42.86 49.15 42.86 49.28 42.86 49.41 42.86 49.54 42.86 49.62 42.86 49.75 42.86 49.89 42.86 50.02 42.86 50.15 42.86 50.28 42.86 50.41 42.86 50.54 42.86 50.67 42.86 50.8 42.86 50.93 42.86 51.06 42.86 51.2 42.86 51.33 42.86 51.46 42.86 51.59 42.86 51.72 42.86 51.85 42.86 51.98 42.86 52.11 42.86 52.24 42.86 52.38 42.86 52.51 42.86 52.64 42.86 52.77 42.86 52.9 42.86 53.03 42.86 53.16 42.86 53.29 42.86 53.42 42.86 53.56 42.86 53.69 42.86 53.82 42.86 53.95 42.86 54.08 42.86 54.21 42.86 54.34 42.86 54.47 42.86 54.6 42.86 54.73 42.86 54.87 42.86 55 42.86 55.13 42.86 55.26 42.86 55.39 42.86 55.52 42.86 55.62 42.86 55.75 42.86 55.88 42.86 56.01 42.86 56.14 42.86 56.28 42.86 56.41 42.86 56.54 42.86 56.67 42.86 56.8 42.86 56.93 42.86 57.06 42.86 57.19 42.86 57.32 42.86 57.45 42.86 57.59 42.86 57.72 42.86 57.85 42.86 57.98 42.86 58.11 42.86 58.24 42.86 58.37 42.86 58.5 42.86 58.63 42.86 58.77 42.86 58.9 42.86 59.03 42.86 59.16 42.86 59.29 42.86 59.42 42.86 59.55 42.86 59.68 42.86 59.81 42.86 59.95 42.86 60.08 42.86 60.21 42.86 60.34 42.86 60.47 42.86 60.6 42.86 60.73 42.86 60.86 42.86 60.99 42.86 61.12 42.86 61.26 42.86 61.39 42.86 61.52 42.86 61.6 42.86 61.73 42.86 61.86 42.86 61.99 42.86 62.12 42.86 62.26 42.86 62.39 42.86 62.52 42.86 62.65 42.86 62.78 42.86 62.91 42.86 63.04 42.86 63.17 42.86 63.3 42.86 63.43 42.86 63.57 42.86 63.7 42.86 63.83 42.86 63.96 42.86 64.09 42.86 64.22 42.86 64.35 42.86 64.48 42.86 64.61 42.86 64.75 42.86 64.88 42.86 65.01 42.86 65.14 42.86 65.27 42.86 65.4 42.86 65.53 42.86 65.66 42.86 65.79 42.86 65.93 42.86 66.06 42.86 66.19 42.86 66.32 42.86 66.45 42.86 66.58 42.86 66.71 42.86 66.84 42.86 66.97 42.86 67.11 42.86 67.24 42.86 67.37 42.86 67.5 42.86 67.58 42.86 67.71 42.86 67.84 42.86 67.97 42.86 68.1 42.86 68.24 42.86 68.37 42.86 68.5 42.86 68.63 42.86 68.76 42.86 68.89 42.86 69.02 42.86 69.15 42.86 69.28 42.86 69.42 42.86 69.55 42.86 69.68 42.86 69.81 42.86 69.94 42.86 70.07 42.86 70.2 42.86 70.33 42.86 70.46 42.86 70.59 42.86 70.73 42.86 70.86 42.86 70.99 42.86 71.12 42.86 71.25 42.86 71.38 42.86 71.51 42.86 71.64 42.86 71.77 42.86 71.91 42.86 72.04 42.86 72.17 42.86 72.3 42.86 72.43 42.86 72.56 42.86 72.69 42.86 72.82 42.86 72.95 42.86 73.09 42.86 73.22 42.86 73.35 42.86 73.48 42.86 73.56 42.86 73.69 42.86 73.82 42.86 73.95 42.86 74.08 42.86 74.22 42.86 74.35 42.86 74.48 42.86 74.61 42.86 74.74 42.86 74.87 42.86 75 42.86 75.13 42.86 75.26 42.86 75.4 42.86 75.53 42.86 75.66 42.86 75.79 42.86 75.92 42.86 76.05 42.86 76.18 42.86 76.31 42.86 76.44 42.86 76.58 42.86 76.71 42.86 76.84 42.86 76.97 42.86 77.1 42.86 77.23 42.86 77.36 42.86 77.49 42.86 77.62 42.86 77.75 42.86 77.89 42.86 78.02 42.86 78.15 42.86 78.28 42.86 78.41 42.86 78.54 42.86 78.67 42.86 78.8 42.86 78.93 42.86 79.07 42.86 79.2 42.86 79.33 42.86 79.46 42.86 79.56 42.86 79.69 42.86 79.82 42.86 79.95 42.86 80.08 42.86 80.21 42.86 80.34 42.86 80.47 42.86 80.61 42.86 80.74 42.86 80.87 42.86 81 42.86 81.13 42.86 81.26 42.86 81.39 42.86 81.52 42.86 81.65 42.86 81.79 42.86 81.92 42.86 82.05 42.86 82.18 42.86 82.31 42.86 82.44 42.86 82.57 42.86 82.7 42.86 82.83 42.86 82.96 42.86 83.1 42.86 83.23 42.86 83.36 42.86 83.49 42.86 83.62 42.86 83.75 42.86 83.88 42.86 84.01 42.86 84.14 42.86 84.28 42.86 84.41 42.86 84.54 42.86 84.67 42.86 84.8 42.86 84.93 42.86 85.06 42.86 85.19 42.86 85.32 42.86 85.46 42.86 85.54 42.86 85.67 42.86 85.8 42.86 85.93 42.86 86.06 42.86 86.19 42.86 86.32 42.86 86.45 42.86 86.59 42.86 86.72 42.86 86.85 42.86 86.98 42.86 87.11 42.86 87.24 42.86 87.37 42.86 87.5 42.86 87.63 42.86 87.77 42.86 87.9 42.86 88.03 42.86 88.16 42.86 88.29 42.86 88.42 42.86 88.55 42.86 88.68 42.86 88.81 42.86 88.95 42.86 89.08 42.86 89.21 42.86 89.34 42.86 89.47 42.86 89.6 42.86 89.73 42.86 89.86 42.86 89.99 42.86 90.12 42.86 90.26 42.86 90.39 42.86 90.52 42.86 90.65 42.86 90.78 42.86 90.91 42.86 91.04 42.86 91.17 42.86 91.3 42.86 91.44 42.86" id="img-e349cd4e-42"/>
      </g>
      <g stroke-width="0.3" fill="#000000" fill-opacity="0.000" class="geometry color_SoilMoisture" stroke-dasharray="none" stroke="#00B78D" id="img-e349cd4e-43">
        <path fill="none" d="M25.69,42.86 L 25.82 42.86 25.95 42.86 26.08 42.86 26.21 42.86 26.34 42.86 26.47 42.86 26.6 42.86 26.73 42.86 26.87 42.86 27 42.86 27.13 42.86 27.26 42.86 27.39 42.86 27.52 42.86 27.65 42.86 27.78 42.86 27.91 42.86 28.05 42.86 28.18 42.86 28.31 42.86 28.44 42.86 28.57 42.86 28.7 42.86 28.83 42.86 28.96 42.86 29.09 42.86 29.22 42.86 29.36 42.86 29.49 42.86 29.62 42.86 29.75 42.86 29.88 42.86 30.01 42.86 30.14 42.86 30.27 42.86 30.4 42.86 30.54 42.86 30.67 42.85 30.8 42.86 30.93 42.86 31.06 42.86 31.19 42.86 31.32 42.86 31.45 42.86 31.58 42.86 31.68 42.86 31.81 42.86 31.94 42.86 32.08 42.86 32.21 42.86 32.34 42.86 32.47 42.86 32.6 42.86 32.73 42.86 32.86 42.86 32.99 42.86 33.12 42.86 33.26 42.86 33.39 42.86 33.52 42.86 33.65 42.86 33.78 42.86 33.91 42.86 34.04 42.86 34.17 42.86 34.3 42.86 34.43 42.86 34.57 42.86 34.7 42.86 34.83 42.86 34.96 42.86 35.09 42.86 35.22 42.86 35.35 42.86 35.48 42.86 35.61 42.86 35.75 42.86 35.88 42.86 36.01 42.86 36.14 42.86 36.27 42.86 36.4 42.86 36.53 42.86 36.66 42.86 36.79 42.86 36.93 42.86 37.06 42.86 37.19 42.86 37.32 42.86 37.45 42.86 37.58 42.86 37.66 42.86 37.79 42.86 37.92 42.86 38.06 42.86 38.19 42.86 38.32 42.86 38.45 42.86 38.58 42.86 38.71 42.86 38.84 42.86 38.97 42.86 39.1 42.86 39.24 42.86 39.37 42.86 39.5 42.86 39.63 42.86 39.76 42.86 39.89 42.86 40.02 42.86 40.15 42.86 40.28 42.86 40.42 42.86 40.55 42.86 40.68 42.86 40.81 42.86 40.94 42.86 41.07 42.86 41.2 42.86 41.33 42.86 41.46 42.86 41.59 42.86 41.73 42.86 41.86 42.86 41.99 42.86 42.12 42.86 42.25 42.86 42.38 42.86 42.51 42.86 42.64 42.86 42.77 42.86 42.91 42.86 43.04 42.86 43.17 42.86 43.3 42.86 43.43 42.86 43.56 42.86 43.64 42.86 43.77 42.86 43.91 42.86 44.04 42.86 44.17 42.86 44.3 42.86 44.43 42.86 44.56 42.86 44.69 42.86 44.82 42.86 44.95 42.86 45.08 42.86 45.22 42.86 45.35 42.86 45.48 42.86 45.61 42.86 45.74 42.86 45.87 42.86 46 42.86 46.13 42.86 46.26 42.86 46.4 42.86 46.53 42.86 46.66 42.86 46.79 42.86 46.92 42.86 47.05 42.86 47.18 42.86 47.31 42.86 47.44 42.86 47.58 42.86 47.71 42.86 47.84 42.86 47.97 42.86 48.1 42.86 48.23 42.86 48.36 42.86 48.49 42.86 48.62 42.86 48.75 42.86 48.89 42.86 49.02 42.86 49.15 42.86 49.28 42.86 49.41 42.86 49.54 42.86 49.62 42.86 49.75 42.86 49.89 42.86 50.02 42.86 50.15 42.86 50.28 42.86 50.41 42.86 50.54 42.86 50.67 42.86 50.8 42.86 50.93 42.86 51.06 42.86 51.2 42.86 51.33 42.86 51.46 42.86 51.59 42.86 51.72 42.86 51.85 42.86 51.98 42.86 52.11 42.86 52.24 42.86 52.38 42.86 52.51 42.86 52.64 42.86 52.77 42.86 52.9 42.86 53.03 42.86 53.16 42.86 53.29 42.86 53.42 42.86 53.56 42.86 53.69 42.86 53.82 42.86 53.95 42.86 54.08 42.86 54.21 42.86 54.34 42.86 54.47 42.86 54.6 42.86 54.73 42.86 54.87 42.86 55 42.86 55.13 42.86 55.26 42.86 55.39 42.86 55.52 42.86 55.62 42.86 55.75 42.86 55.88 42.86 56.01 42.86 56.14 42.86 56.28 42.86 56.41 42.86 56.54 42.86 56.67 42.86 56.8 42.86 56.93 42.86 57.06 42.86 57.19 42.86 57.32 42.86 57.45 42.86 57.59 42.86 57.72 42.86 57.85 42.86 57.98 42.86 58.11 42.86 58.24 42.86 58.37 42.86 58.5 42.86 58.63 42.86 58.77 42.86 58.9 42.86 59.03 42.86 59.16 42.86 59.29 42.86 59.42 42.86 59.55 42.86 59.68 42.86 59.81 42.86 59.95 42.86 60.08 42.86 60.21 42.86 60.34 42.86 60.47 42.86 60.6 42.86 60.73 42.86 60.86 42.86 60.99 42.86 61.12 42.86 61.26 42.86 61.39 42.86 61.52 42.86 61.6 42.86 61.73 42.86 61.86 42.86 61.99 42.86 62.12 42.86 62.26 42.86 62.39 42.86 62.52 42.86 62.65 42.86 62.78 42.86 62.91 42.86 63.04 42.86 63.17 42.86 63.3 42.86 63.43 42.86 63.57 42.86 63.7 42.86 63.83 42.86 63.96 42.86 64.09 42.86 64.22 42.86 64.35 42.86 64.48 42.86 64.61 42.86 64.75 42.86 64.88 42.86 65.01 42.86 65.14 42.86 65.27 42.86 65.4 42.86 65.53 42.86 65.66 42.86 65.79 42.86 65.93 42.86 66.06 42.86 66.19 42.86 66.32 42.86 66.45 42.86 66.58 42.86 66.71 42.86 66.84 42.86 66.97 42.86 67.11 42.86 67.24 42.86 67.37 42.86 67.5 42.86 67.58 42.86 67.71 42.86 67.84 42.86 67.97 42.86 68.1 42.86 68.24 42.86 68.37 42.86 68.5 42.86 68.63 42.86 68.76 42.86 68.89 42.86 69.02 42.86 69.15 42.86 69.28 42.86 69.42 42.86 69.55 42.86 69.68 42.86 69.81 42.86 69.94 42.86 70.07 42.86 70.2 42.86 70.33 42.86 70.46 42.86 70.59 42.86 70.73 42.86 70.86 42.86 70.99 42.86 71.12 42.86 71.25 42.86 71.38 42.86 71.51 42.86 71.64 42.86 71.77 42.86 71.91 42.86 72.04 42.86 72.17 42.86 72.3 42.86 72.43 42.86 72.56 42.86 72.69 42.86 72.82 42.86 72.95 42.86 73.09 42.86 73.22 42.86 73.35 42.86 73.48 42.86 73.56 42.86 73.69 42.86 73.82 42.86 73.95 42.86 74.08 42.86 74.22 42.86 74.35 42.86 74.48 42.86 74.61 42.86 74.74 42.86 74.87 42.86 75 42.86 75.13 42.86 75.26 42.86 75.4 42.86 75.53 42.86 75.66 42.86 75.79 42.86 75.92 42.86 76.05 42.86 76.18 42.86 76.31 42.86 76.44 42.86 76.58 42.86 76.71 42.86 76.84 42.86 76.97 42.86 77.1 42.86 77.23 42.86 77.36 42.86 77.49 42.86 77.62 42.86 77.75 42.86 77.89 42.86 78.02 42.86 78.15 42.86 78.28 42.86 78.41 42.86 78.54 42.86 78.67 42.86 78.8 42.86 78.93 42.86 79.07 42.86 79.2 42.86 79.33 42.86 79.46 42.86 79.56 42.86 79.69 42.86 79.82 42.86 79.95 42.86 80.08 42.86 80.21 42.86 80.34 42.86 80.47 42.86 80.61 42.86 80.74 42.86 80.87 42.86 81 42.86 81.13 42.86 81.26 42.86 81.39 42.86 81.52 42.86 81.65 42.86 81.79 42.86 81.92 42.86 82.05 42.86 82.18 42.86 82.31 42.86 82.44 42.86 82.57 42.86 82.7 42.86 82.83 42.86 82.96 42.86 83.1 42.86 83.23 42.86 83.36 42.86 83.49 42.86 83.62 42.86 83.75 42.86 83.88 42.86 84.01 42.86 84.14 42.86 84.28 42.86 84.41 42.86 84.54 42.86 84.67 42.86 84.8 42.86 84.93 42.86 85.06 42.86 85.19 42.86 85.32 42.86 85.46 42.86 85.54 42.86 85.67 42.86 85.8 42.86 85.93 42.86 86.06 42.86 86.19 42.86 86.32 42.86 86.45 42.86 86.59 42.86 86.72 42.86 86.85 42.86 86.98 42.86 87.11 42.86 87.24 42.86 87.37 42.86 87.5 42.86 87.63 42.86 87.77 42.86 87.9 42.86 88.03 42.86 88.16 42.86 88.29 42.86 88.42 42.86 88.55 42.86 88.68 42.86 88.81 42.86 88.95 42.86 89.08 42.86 89.21 42.86 89.34 42.86 89.47 42.86 89.6 42.86 89.73 42.86 89.86 42.86 89.99 42.86 90.12 42.86 90.26 42.86 90.39 42.86 90.52 42.86 90.65 42.86 90.78 42.86 90.91 42.86 91.04 42.86 91.17 42.86 91.3 42.86 91.44 42.86" id="img-e349cd4e-44"/>
      </g>
      <g stroke-width="0.3" fill="#000000" fill-opacity="0.000" class="geometry color_BurntArea" stroke-dasharray="none" stroke="#FF6DAE" id="img-e349cd4e-45">
        <path fill="none" d="M25.69,42.86 L 25.82 42.86 25.95 42.86 26.08 42.86 26.21 42.86 26.34 42.86 26.47 42.86 26.6 42.86 26.73 42.86 26.87 42.86 27 42.86 27.13 42.86 27.26 42.86 27.39 42.86 27.52 42.86 27.65 42.86 27.78 42.86 27.91 42.86 28.05 42.86 28.18 42.86 28.31 42.86 28.44 42.86 28.57 42.92 28.7 43.04 28.83 43.04 28.96 43.04 29.09 42.88 29.22 42.86 29.36 42.86 29.49 42.86 29.62 42.86 29.75 42.86 29.88 42.86 30.01 42.86 30.14 42.88 30.27 42.9 30.4 42.9 30.54 42.9 30.67 42.86 30.8 42.86 30.93 42.86 31.06 42.86 31.19 42.86 31.32 42.86 31.45 42.86 31.58 42.86 31.68 42.86 31.81 42.86 31.94 42.86 32.08 42.86 32.21 42.86 32.34 42.86 32.47 42.86 32.6 42.86 32.73 42.86 32.86 42.86 32.99 42.86 33.12 42.86 33.26 42.86 33.39 42.86 33.52 42.86 33.65 42.86 33.78 42.86 33.91 42.86 34.04 42.86 34.17 42.86 34.3 42.86 34.43 42.86 34.57 42.98 34.7 43.51 34.83 43.51 34.96 43.51 35.09 43.02 35.22 42.86 35.35 42.86 35.48 42.86 35.61 42.86 35.75 42.86 35.88 42.86 36.01 42.86 36.14 42.88 36.27 42.9 36.4 42.9 36.53 42.9 36.66 42.86 36.79 42.86 36.93 42.86 37.06 42.86 37.19 42.86 37.32 42.86 37.45 42.86 37.58 42.86 37.66 42.86 37.79 42.86 37.92 42.86 38.06 42.86 38.19 42.86 38.32 42.86 38.45 42.86 38.58 42.86 38.71 42.86 38.84 42.86 38.97 42.86 39.1 42.86 39.24 42.86 39.37 42.86 39.5 42.86 39.63 42.86 39.76 42.86 39.89 42.86 40.02 42.86 40.15 42.86 40.28 42.86 40.42 42.86 40.55 42.98 40.68 43.51 40.81 43.51 40.94 43.51 41.07 43.02 41.2 42.86 41.33 42.86 41.46 42.86 41.59 42.86 41.73 42.86 41.86 42.86 41.99 42.86 42.12 42.88 42.25 42.9 42.38 42.9 42.51 42.9 42.64 42.86 42.77 42.86 42.91 42.86 43.04 42.86 43.17 42.86 43.3 42.86 43.43 42.86 43.56 42.86 43.64 42.86 43.77 42.86 43.91 42.86 44.04 42.86 44.17 42.86 44.3 42.86 44.43 42.86 44.56 42.86 44.69 42.86 44.82 42.86 44.95 42.86 45.08 42.86 45.22 42.86 45.35 42.86 45.48 42.86 45.61 42.86 45.74 42.86 45.87 42.86 46 42.86 46.13 42.86 46.26 42.86 46.4 42.86 46.53 42.98 46.66 43.51 46.79 43.51 46.92 43.51 47.05 43.02 47.18 42.86 47.31 42.86 47.44 42.86 47.58 42.86 47.71 42.86 47.84 42.86 47.97 42.86 48.1 42.88 48.23 42.9 48.36 42.9 48.49 42.9 48.62 42.86 48.75 42.86 48.89 42.86 49.02 42.86 49.15 42.86 49.28 42.86 49.41 42.86 49.54 42.86 49.62 42.86 49.75 42.86 49.89 42.86 50.02 42.86 50.15 42.86 50.28 42.86 50.41 42.86 50.54 42.86 50.67 42.86 50.8 42.86 50.93 42.86 51.06 42.86 51.2 42.86 51.33 42.86 51.46 42.86 51.59 42.86 51.72 42.86 51.85 42.86 51.98 42.86 52.11 42.86 52.24 42.86 52.38 42.86 52.51 42.98 52.64 43.51 52.77 43.51 52.9 43.51 53.03 43.02 53.16 42.86 53.29 42.86 53.42 42.86 53.56 42.86 53.69 42.86 53.82 42.86 53.95 42.86 54.08 42.88 54.21 42.9 54.34 42.9 54.47 42.9 54.6 42.86 54.73 42.86 54.87 42.86 55 42.86 55.13 42.86 55.26 42.86 55.39 42.86 55.52 42.86 55.62 42.86 55.75 42.86 55.88 42.86 56.01 42.86 56.14 42.86 56.28 42.86 56.41 42.86 56.54 42.86 56.67 42.86 56.8 42.86 56.93 42.86 57.06 42.86 57.19 42.86 57.32 42.86 57.45 42.86 57.59 42.86 57.72 42.86 57.85 42.86 57.98 42.86 58.11 42.86 58.24 42.86 58.37 42.86 58.5 42.98 58.63 43.51 58.77 43.51 58.9 43.51 59.03 43.02 59.16 42.86 59.29 42.86 59.42 42.86 59.55 42.86 59.68 42.86 59.81 42.86 59.95 42.86 60.08 42.65 60.21 42.39 60.34 42.39 60.47 42.39 60.6 42.86 60.73 42.86 60.86 42.86 60.99 42.86 61.12 42.86 61.26 42.86 61.39 42.86 61.52 42.86 61.6 42.86 61.73 42.86 61.86 42.86 61.99 42.86 62.12 42.86 62.26 42.86 62.39 42.86 62.52 42.86 62.65 42.86 62.78 42.86 62.91 42.86 63.04 42.86 63.17 42.86 63.3 42.86 63.43 42.86 63.57 42.86 63.7 42.86 63.83 42.86 63.96 42.86 64.09 42.86 64.22 42.86 64.35 42.86 64.48 42.98 64.61 43.51 64.75 43.51 64.88 43.51 65.01 43.02 65.14 42.86 65.27 42.86 65.4 42.86 65.53 42.86 65.66 42.86 65.79 42.86 65.93 42.86 66.06 42.88 66.19 42.9 66.32 42.9 66.45 42.9 66.58 42.86 66.71 42.86 66.84 42.86 66.97 42.86 67.11 42.86 67.24 42.86 67.37 42.86 67.5 42.86 67.58 42.86 67.71 42.86 67.84 42.86 67.97 42.86 68.1 42.86 68.24 42.86 68.37 42.86 68.5 42.86 68.63 42.86 68.76 42.86 68.89 42.86 69.02 42.86 69.15 42.86 69.28 42.86 69.42 42.86 69.55 42.86 69.68 42.86 69.81 42.86 69.94 42.86 70.07 42.86 70.2 42.86 70.33 42.86 70.46 42.98 70.59 43.51 70.73 43.51 70.86 43.51 70.99 43.02 71.12 42.86 71.25 42.86 71.38 42.86 71.51 42.86 71.64 42.86 71.77 42.86 71.91 42.86 72.04 42.88 72.17 42.9 72.3 42.9 72.43 42.9 72.56 42.86 72.69 42.86 72.82 42.86 72.95 42.86 73.09 42.86 73.22 42.86 73.35 42.86 73.48 42.86 73.56 42.86 73.69 42.86 73.82 42.86 73.95 42.86 74.08 42.86 74.22 42.86 74.35 42.86 74.48 42.86 74.61 42.86 74.74 42.86 74.87 42.86 75 42.86 75.13 42.86 75.26 42.86 75.4 42.86 75.53 42.86 75.66 42.86 75.79 42.86 75.92 42.86 76.05 42.86 76.18 42.86 76.31 42.86 76.44 42.98 76.58 43.51 76.71 43.51 76.84 43.51 76.97 43.02 77.1 42.86 77.23 42.86 77.36 42.86 77.49 42.86 77.62 42.86 77.75 42.86 77.89 42.86 78.02 42.88 78.15 42.9 78.28 42.9 78.41 42.9 78.54 42.86 78.67 42.86 78.8 42.86 78.93 42.86 79.07 42.86 79.2 42.86 79.33 42.86 79.46 42.86 79.56 42.86 79.69 42.86 79.82 42.86 79.95 42.86 80.08 42.86 80.21 42.86 80.34 42.86 80.47 42.86 80.61 42.86 80.74 42.86 80.87 42.86 81 42.86 81.13 42.86 81.26 42.86 81.39 42.86 81.52 42.86 81.65 42.86 81.79 42.86 81.92 42.86 82.05 42.86 82.18 42.86 82.31 42.86 82.44 41.73 82.57 36.84 82.7 36.84 82.83 36.84 82.96 41.36 83.1 42.86 83.23 42.86 83.36 42.86 83.49 42.86 83.62 42.86 83.75 42.86 83.88 42.86 84.01 42.88 84.14 42.9 84.28 42.9 84.41 42.9 84.54 42.86 84.67 42.86 84.8 42.86 84.93 42.86 85.06 42.86 85.19 42.86 85.32 42.86 85.46 42.86 85.54 42.86 85.67 42.86 85.8 42.86 85.93 42.86 86.06 42.86 86.19 42.86 86.32 42.86 86.45 42.86 86.59 42.86 86.72 42.86 86.85 42.86 86.98 42.86 87.11 42.86 87.24 42.86 87.37 42.86 87.5 42.86 87.63 42.86 87.77 42.86 87.9 42.86 88.03 42.86 88.16 42.86 88.29 42.86 88.42 42.98 88.55 43.51 88.68 43.51 88.81 43.51 88.95 43.02 89.08 42.86 89.21 42.86 89.34 42.86 89.47 42.86 89.6 42.86 89.73 42.86 89.86 42.86 89.99 42.88 90.12 42.9 90.26 42.9 90.39 42.9 90.52 42.86 90.65 42.86 90.78 42.86 90.91 42.86 91.04 42.86 91.17 42.86 91.3 42.86 91.44 42.86" id="img-e349cd4e-46"/>
      </g>
      <g stroke-width="0.3" fill="#000000" fill-opacity="0.000" class="geometry color_DHR_VIS" stroke-dasharray="none" stroke="#D4CA3A" id="img-e349cd4e-47">
        <path fill="none" d="M25.69,42.86 L 25.82 42.86 25.95 42.86 26.08 42.86 26.21 42.86 26.34 42.86 26.47 42.86 26.6 42.86 26.73 42.86 26.87 42.86 27 42.86 27.13 42.86 27.26 42.86 27.39 42.86 27.52 42.86 27.65 42.86 27.78 42.86 27.91 42.86 28.05 42.86 28.18 42.86 28.31 42.86 28.44 42.86 28.57 42.86 28.7 42.86 28.83 42.86 28.96 42.86 29.09 42.86 29.22 42.86 29.36 42.86 29.49 42.86 29.62 42.86 29.75 42.86 29.88 42.86 30.01 42.86 30.14 42.86 30.27 42.86 30.4 42.86 30.54 42.86 30.67 42.86 30.8 42.86 30.93 42.86 31.06 42.86 31.19 42.86 31.32 42.86 31.45 42.86 31.58 42.86 31.68 42.86 31.81 42.86 31.94 42.86 32.08 42.86 32.21 42.86 32.34 42.86 32.47 42.86 32.6 42.86 32.73 42.86 32.86 42.86 32.99 42.86 33.12 42.86 33.26 42.86 33.39 42.86 33.52 42.86 33.65 42.86 33.78 42.86 33.91 42.86 34.04 42.86 34.17 42.86 34.3 42.86 34.43 42.86 34.57 42.86 34.7 42.86 34.83 42.86 34.96 42.86 35.09 42.86 35.22 42.86 35.35 42.86 35.48 42.86 35.61 42.86 35.75 42.86 35.88 42.86 36.01 42.86 36.14 42.86 36.27 42.86 36.4 42.86 36.53 42.86 36.66 42.86 36.79 42.86 36.93 42.86 37.06 42.86 37.19 42.86 37.32 42.86 37.45 42.86 37.58 42.86 37.66 42.86 37.79 42.86 37.92 42.86 38.06 42.86 38.19 42.86 38.32 42.86 38.45 42.86 38.58 42.86 38.71 42.86 38.84 42.86 38.97 42.86 39.1 42.86 39.24 42.86 39.37 42.86 39.5 42.86 39.63 42.86 39.76 42.86 39.89 42.86 40.02 42.86 40.15 42.86 40.28 42.86 40.42 42.86 40.55 42.86 40.68 42.86 40.81 42.86 40.94 42.86 41.07 42.86 41.2 42.86 41.33 42.86 41.46 42.86 41.59 42.86 41.73 42.86 41.86 42.86 41.99 42.86 42.12 42.86 42.25 42.86 42.38 42.86 42.51 42.86 42.64 42.86 42.77 42.86 42.91 42.86 43.04 42.86 43.17 42.86 43.3 42.86 43.43 42.86 43.56 42.86 43.64 42.86 43.77 42.86 43.91 42.86 44.04 42.86 44.17 42.86 44.3 42.86 44.43 42.86 44.56 42.86 44.69 42.86 44.82 42.86 44.95 42.86 45.08 42.86 45.22 42.86 45.35 42.86 45.48 42.86 45.61 42.86 45.74 42.86 45.87 42.86 46 42.86 46.13 42.86 46.26 42.86 46.4 42.86 46.53 42.86 46.66 42.86 46.79 42.86 46.92 42.86 47.05 42.86 47.18 42.86 47.31 42.86 47.44 42.86 47.58 42.86 47.71 42.86 47.84 42.86 47.97 42.86 48.1 42.86 48.23 42.86 48.36 42.86 48.49 42.86 48.62 42.86 48.75 42.86 48.89 42.86 49.02 42.86 49.15 42.86 49.28 42.86 49.41 42.86 49.54 42.86 49.62 42.86 49.75 42.86 49.89 42.86 50.02 42.86 50.15 42.86 50.28 42.86 50.41 42.86 50.54 42.86 50.67 42.86 50.8 42.86 50.93 42.86 51.06 42.86 51.2 42.86 51.33 42.86 51.46 42.86 51.59 42.86 51.72 42.86 51.85 42.86 51.98 42.86 52.11 42.86 52.24 42.86 52.38 42.86 52.51 42.86 52.64 42.86 52.77 42.86 52.9 42.86 53.03 42.86 53.16 42.86 53.29 42.86 53.42 42.86 53.56 42.86 53.69 42.86 53.82 42.86 53.95 42.86 54.08 42.86 54.21 42.86 54.34 42.86 54.47 42.86 54.6 42.86 54.73 42.86 54.87 42.86 55 42.86 55.13 42.86 55.26 42.86 55.39 42.86 55.52 42.86 55.62 42.86 55.75 42.86 55.88 42.86 56.01 42.86 56.14 42.86 56.28 42.86 56.41 42.86 56.54 42.86 56.67 42.86 56.8 42.86 56.93 42.86 57.06 42.86 57.19 42.86 57.32 42.86 57.45 42.86 57.59 42.86 57.72 42.86 57.85 42.86 57.98 42.86 58.11 42.86 58.24 42.86 58.37 42.86 58.5 42.86 58.63 42.86 58.77 42.86 58.9 42.86 59.03 42.86 59.16 42.86 59.29 42.86 59.42 42.86 59.55 42.86 59.68 42.86 59.81 42.86 59.95 42.86 60.08 42.86 60.21 42.86 60.34 42.86 60.47 42.86 60.6 42.86 60.73 42.86 60.86 42.86 60.99 42.86 61.12 42.86 61.26 42.86 61.39 42.86 61.52 42.86 61.6 42.86 61.73 42.86 61.86 42.86 61.99 42.86 62.12 42.86 62.26 42.86 62.39 42.86 62.52 42.86 62.65 42.86 62.78 42.86 62.91 42.86 63.04 42.86 63.17 42.86 63.3 42.86 63.43 42.86 63.57 42.86 63.7 42.86 63.83 42.86 63.96 42.86 64.09 42.86 64.22 42.86 64.35 42.86 64.48 42.86 64.61 42.86 64.75 42.86 64.88 42.86 65.01 42.86 65.14 42.86 65.27 42.86 65.4 42.86 65.53 42.86 65.66 42.86 65.79 42.86 65.93 42.86 66.06 42.86 66.19 42.86 66.32 42.86 66.45 42.86 66.58 42.86 66.71 42.86 66.84 42.86 66.97 42.86 67.11 42.86 67.24 42.86 67.37 42.86 67.5 42.86 67.58 42.86 67.71 42.86 67.84 42.86 67.97 42.86 68.1 42.86 68.24 42.86 68.37 42.86 68.5 42.86 68.63 42.86 68.76 42.86 68.89 42.86 69.02 42.86 69.15 42.86 69.28 42.86 69.42 42.86 69.55 42.86 69.68 42.86 69.81 42.86 69.94 42.86 70.07 42.86 70.2 42.86 70.33 42.86 70.46 42.86 70.59 42.86 70.73 42.86 70.86 42.86 70.99 42.86 71.12 42.86 71.25 42.86 71.38 42.86 71.51 42.86 71.64 42.86 71.77 42.86 71.91 42.86 72.04 42.86 72.17 42.86 72.3 42.86 72.43 42.86 72.56 42.86 72.69 42.86 72.82 42.86 72.95 42.86 73.09 42.86 73.22 42.86 73.35 42.86 73.48 42.86 73.56 42.86 73.69 42.86 73.82 42.86 73.95 42.86 74.08 42.86 74.22 42.86 74.35 42.86 74.48 42.86 74.61 42.86 74.74 42.86 74.87 42.86 75 42.86 75.13 42.86 75.26 42.86 75.4 42.86 75.53 42.86 75.66 42.86 75.79 42.86 75.92 42.86 76.05 42.86 76.18 42.86 76.31 42.86 76.44 42.86 76.58 42.86 76.71 42.86 76.84 42.86 76.97 42.86 77.1 42.86 77.23 42.86 77.36 42.86 77.49 42.86 77.62 42.86 77.75 42.86 77.89 42.86 78.02 42.86 78.15 42.86 78.28 42.86 78.41 42.86 78.54 42.86 78.67 42.86 78.8 42.86 78.93 42.86 79.07 42.86 79.2 42.86 79.33 42.86 79.46 42.86 79.56 42.86 79.69 42.86 79.82 42.86 79.95 42.86 80.08 42.86 80.21 42.86 80.34 42.86 80.47 42.86 80.61 42.86 80.74 42.86 80.87 42.86 81 42.86 81.13 42.86 81.26 42.86 81.39 42.86 81.52 42.86 81.65 42.86 81.79 42.86 81.92 42.86 82.05 42.86 82.18 42.86 82.31 42.86 82.44 42.86 82.57 42.86 82.7 42.86 82.83 42.86 82.96 42.86 83.1 42.86 83.23 42.86 83.36 42.86 83.49 42.86 83.62 42.86 83.75 42.86 83.88 42.86 84.01 42.86 84.14 42.86 84.28 42.86 84.41 42.86 84.54 42.86 84.67 42.86 84.8 42.86 84.93 42.86 85.06 42.86 85.19 42.86 85.32 42.86 85.46 42.86 85.54 42.86 85.67 42.86 85.8 42.86 85.93 42.86 86.06 42.86 86.19 42.86 86.32 42.86 86.45 42.86 86.59 42.86 86.72 42.86 86.85 42.86 86.98 42.86 87.11 42.86 87.24 42.86 87.37 42.86 87.5 42.86 87.63 42.86 87.77 42.86 87.9 42.86 88.03 42.86 88.16 42.86 88.29 42.86 88.42 42.86 88.55 42.86 88.68 42.86 88.81 42.86 88.95 42.86 89.08 42.86 89.21 42.86 89.34 42.86 89.47 42.86 89.6 42.86 89.73 42.86 89.86 42.86 89.99 42.86 90.12 42.86 90.26 42.86 90.39 42.86 90.52 42.86 90.65 42.86 90.78 42.86 90.91 42.86 91.04 42.86 91.17 42.86 91.3 42.86 91.44 42.86" id="img-e349cd4e-48"/>
      </g>
      <g stroke-width="0.3" fill="#000000" fill-opacity="0.000" class="geometry color_Emission" stroke-dasharray="none" stroke="#00BFFF" id="img-e349cd4e-49">
        <path fill="none" d="M25.69,42.86 L 25.82 42.86 25.95 42.86 26.08 42.86 26.21 42.86 26.34 42.86 26.47 42.86 26.6 42.86 26.73 42.86 26.87 42.86 27 42.86 27.13 42.86 27.26 42.86 27.39 42.86 27.52 42.86 27.65 42.86 27.78 42.86 27.91 42.86 28.05 42.86 28.18 42.86 28.31 42.86 28.44 42.86 28.57 42.86 28.7 42.86 28.83 42.86 28.96 42.86 29.09 42.86 29.22 42.86 29.36 42.86 29.49 42.86 29.62 42.86 29.75 42.86 29.88 42.86 30.01 42.86 30.14 42.86 30.27 42.86 30.4 42.86 30.54 42.86 30.67 42.86 30.8 42.86 30.93 42.86 31.06 42.86 31.19 42.86 31.32 42.86 31.45 42.86 31.58 42.86 31.68 42.86 31.81 42.86 31.94 42.86 32.08 42.86 32.21 42.86 32.34 42.86 32.47 42.86 32.6 42.86 32.73 42.86 32.86 42.86 32.99 42.86 33.12 42.86 33.26 42.86 33.39 42.86 33.52 42.86 33.65 42.86 33.78 42.86 33.91 42.86 34.04 42.86 34.17 42.86 34.3 42.86 34.43 42.86 34.57 42.86 34.7 42.86 34.83 42.86 34.96 42.86 35.09 42.86 35.22 42.86 35.35 42.86 35.48 42.86 35.61 42.86 35.75 42.86 35.88 42.86 36.01 42.86 36.14 42.86 36.27 42.86 36.4 42.86 36.53 42.86 36.66 42.86 36.79 42.86 36.93 42.86 37.06 42.86 37.19 42.86 37.32 42.86 37.45 42.86 37.58 42.86 37.66 42.86 37.79 42.86 37.92 42.86 38.06 42.86 38.19 42.86 38.32 42.86 38.45 42.86 38.58 42.86 38.71 42.86 38.84 42.86 38.97 42.86 39.1 42.86 39.24 42.86 39.37 42.86 39.5 42.86 39.63 42.86 39.76 42.86 39.89 42.86 40.02 42.86 40.15 42.86 40.28 42.86 40.42 42.86 40.55 42.86 40.68 42.86 40.81 42.86 40.94 42.86 41.07 42.86 41.2 42.86 41.33 42.86 41.46 42.86 41.59 42.86 41.73 42.86 41.86 42.86 41.99 42.86 42.12 42.86 42.25 42.86 42.38 42.86 42.51 42.86 42.64 42.86 42.77 42.86 42.91 42.86 43.04 42.86 43.17 42.86 43.3 42.86 43.43 42.86 43.56 42.86 43.64 42.86 43.77 42.86 43.91 42.86 44.04 42.86 44.17 42.86 44.3 42.86 44.43 42.86 44.56 42.86 44.69 42.86 44.82 42.86 44.95 42.86 45.08 42.86 45.22 42.86 45.35 42.86 45.48 42.86 45.61 42.86 45.74 42.86 45.87 42.86 46 42.86 46.13 42.86 46.26 42.86 46.4 42.86 46.53 42.86 46.66 42.86 46.79 42.86 46.92 42.86 47.05 42.86 47.18 42.86 47.31 42.86 47.44 42.86 47.58 42.86 47.71 42.86 47.84 42.86 47.97 42.86 48.1 42.86 48.23 42.86 48.36 42.86 48.49 42.86 48.62 42.86 48.75 42.86 48.89 42.86 49.02 42.86 49.15 42.86 49.28 42.86 49.41 42.86 49.54 42.86 49.62 42.86 49.75 42.86 49.89 42.86 50.02 42.86 50.15 42.86 50.28 42.86 50.41 42.86 50.54 42.86 50.67 42.86 50.8 42.86 50.93 42.86 51.06 42.86 51.2 42.86 51.33 42.86 51.46 42.86 51.59 42.86 51.72 42.86 51.85 42.86 51.98 42.86 52.11 42.86 52.24 42.86 52.38 42.86 52.51 42.86 52.64 42.86 52.77 42.86 52.9 42.86 53.03 42.86 53.16 42.86 53.29 42.86 53.42 42.86 53.56 42.86 53.69 42.86 53.82 42.86 53.95 42.86 54.08 42.85 54.21 42.84 54.34 42.84 54.47 42.84 54.6 42.86 54.73 42.86 54.87 42.86 55 42.86 55.13 42.86 55.26 42.86 55.39 42.86 55.52 42.86 55.62 42.86 55.75 42.86 55.88 42.86 56.01 42.86 56.14 42.86 56.28 42.86 56.41 42.86 56.54 42.86 56.67 42.86 56.8 42.86 56.93 42.86 57.06 42.86 57.19 42.86 57.32 42.86 57.45 42.86 57.59 42.86 57.72 42.86 57.85 42.86 57.98 42.86 58.11 42.86 58.24 42.86 58.37 42.86 58.5 42.86 58.63 42.86 58.77 42.86 58.9 42.86 59.03 42.86 59.16 42.86 59.29 42.86 59.42 42.86 59.55 42.86 59.68 42.86 59.81 42.86 59.95 42.86 60.08 42.86 60.21 42.86 60.34 42.86 60.47 42.86 60.6 42.86 60.73 42.86 60.86 42.86 60.99 42.86 61.12 42.86 61.26 42.86 61.39 42.86 61.52 42.86 61.6 42.86 61.73 42.86 61.86 42.86 61.99 42.86 62.12 42.86 62.26 42.86 62.39 42.86 62.52 42.86 62.65 42.86 62.78 42.86 62.91 42.86 63.04 42.86 63.17 42.86 63.3 42.86 63.43 42.86 63.57 42.86 63.7 42.86 63.83 42.86 63.96 42.86 64.09 42.86 64.22 42.86 64.35 42.86 64.48 42.86 64.61 42.86 64.75 42.86 64.88 42.86 65.01 42.86 65.14 42.86 65.27 42.86 65.4 42.86 65.53 42.86 65.66 42.86 65.79 42.86 65.93 42.86 66.06 42.86 66.19 42.86 66.32 42.86 66.45 42.86 66.58 42.86 66.71 42.86 66.84 42.86 66.97 42.86 67.11 42.86 67.24 42.86 67.37 42.86 67.5 42.86 67.58 42.86 67.71 42.86 67.84 42.86 67.97 42.86 68.1 42.86 68.24 42.86 68.37 42.86 68.5 42.86 68.63 42.86 68.76 42.86 68.89 42.86 69.02 42.86 69.15 42.86 69.28 42.86 69.42 42.86 69.55 42.86 69.68 42.86 69.81 42.86 69.94 42.86 70.07 42.86 70.2 42.86 70.33 42.86 70.46 42.86 70.59 42.86 70.73 42.86 70.86 42.86 70.99 42.86 71.12 42.86 71.25 42.86 71.38 42.86 71.51 42.86 71.64 42.86 71.77 42.86 71.91 42.86 72.04 42.86 72.17 42.86 72.3 42.86 72.43 42.86 72.56 42.86 72.69 42.86 72.82 42.86 72.95 42.86 73.09 42.86 73.22 42.86 73.35 42.86 73.48 42.86 73.56 42.86 73.69 42.86 73.82 42.86 73.95 42.86 74.08 42.86 74.22 42.86 74.35 42.86 74.48 42.86 74.61 42.86 74.74 42.86 74.87 42.86 75 42.86 75.13 42.86 75.26 42.86 75.4 42.86 75.53 42.86 75.66 42.86 75.79 42.86 75.92 42.86 76.05 42.86 76.18 42.86 76.31 42.86 76.44 42.86 76.58 42.86 76.71 42.86 76.84 42.86 76.97 42.86 77.1 42.86 77.23 42.86 77.36 42.86 77.49 42.86 77.62 42.86 77.75 42.86 77.89 42.86 78.02 42.86 78.15 42.86 78.28 42.86 78.41 42.86 78.54 42.86 78.67 42.86 78.8 42.86 78.93 42.86 79.07 42.86 79.2 42.86 79.33 42.86 79.46 42.86 79.56 42.86 79.69 42.86 79.82 42.86 79.95 42.86 80.08 42.86 80.21 42.86 80.34 42.86 80.47 42.86 80.61 42.86 80.74 42.86 80.87 42.86 81 42.86 81.13 42.86 81.26 42.86 81.39 42.86 81.52 42.86 81.65 42.86 81.79 42.86 81.92 42.86 82.05 42.86 82.18 42.86 82.31 42.86 82.44 42.85 82.57 42.8 82.7 42.8 82.83 42.8 82.96 42.84 83.1 42.86 83.23 42.86 83.36 42.86 83.49 42.86 83.62 42.86 83.75 42.86 83.88 42.86 84.01 42.86 84.14 42.86 84.28 42.86 84.41 42.86 84.54 42.84 84.67 42.84 84.8 42.84 84.93 42.85 85.06 42.86 85.19 42.86 85.32 42.86 85.46 42.86 85.54 42.86 85.67 42.86 85.8 42.86 85.93 42.86 86.06 42.86 86.19 42.86 86.32 42.86 86.45 42.86 86.59 42.86 86.72 42.86 86.85 42.86 86.98 42.86 87.11 42.86 87.24 42.86 87.37 42.86 87.5 42.86 87.63 42.86 87.77 42.86 87.9 42.86 88.03 42.86 88.16 42.86 88.29 42.86 88.42 42.86 88.55 42.86 88.68 42.86 88.81 42.86 88.95 42.86 89.08 42.86 89.21 42.86 89.34 42.86 89.47 42.86 89.6 42.86 89.73 42.86 89.86 42.86 89.99 42.86 90.12 42.86 90.26 42.86 90.39 42.86 90.52 42.86 90.65 42.86 90.78 42.86 90.91 42.86 91.04 42.86 91.17 42.86 91.3 42.86 91.44 42.86" id="img-e349cd4e-50"/>
      </g>
    </g>
  </g>
</g>
  <g class="guide ylabels" font-size="2.82" font-family="'PT Sans Caption','Helvetica Neue','Helvetica',sans-serif" fill="#6C606B" id="img-e349cd4e-51">
    <text x="22.69" y="78.72" text-anchor="end" dy="0.35em" id="img-e349cd4e-52">-3×10³</text>
    <text x="22.69" y="66.76" text-anchor="end" dy="0.35em" id="img-e349cd4e-53">-2×10³</text>
    <text x="22.69" y="54.81" text-anchor="end" dy="0.35em" id="img-e349cd4e-54">-1×10³</text>
    <text x="22.69" y="42.86" text-anchor="end" dy="0.35em" id="img-e349cd4e-55">0</text>
    <text x="22.69" y="30.9" text-anchor="end" dy="0.35em" id="img-e349cd4e-56">1×10³</text>
    <text x="22.69" y="18.95" text-anchor="end" dy="0.35em" id="img-e349cd4e-57">2×10³</text>
    <text x="22.69" y="7" text-anchor="end" dy="0.35em" id="img-e349cd4e-58">3×10³</text>
  </g>
  <g font-size="3.88" font-family="'PT Sans','Helvetica Neue','Helvetica',sans-serif" fill="#564A55" stroke="#000000" stroke-opacity="0.000" id="img-e349cd4e-59">
    <text x="8.81" y="42.86" text-anchor="end" dy="0.35em" id="img-e349cd4e-60">y</text>
  </g>
</g>
<defs>
  <clipPath id="img-e349cd4e-21">
  <path d="M23.69,5 L 117.45 5 117.45 80.72 23.69 80.72" />
</clipPath>
</defs>
</svg>
