<?xml version="1.0" encoding="UTF-8"?>
<svg xmlns="http://www.w3.org/2000/svg"
     xmlns:xlink="http://www.w3.org/1999/xlink"
     xmlns:gadfly="http://www.gadflyjl.org/ns"
     version="1.2"
     width="141.42mm" height="100mm" viewBox="0 0 141.42 100"
     stroke="none"
     fill="#000000"
     stroke-width="0.3"
     font-size="3.88"
>
<g class="plotroot xscalable yscalable" id="img-2111a6d9-1">
  <g font-size="3.88" font-family="'PT Sans','Helvetica Neue','Helvetica',sans-serif" fill="#564A55" stroke="#000000" stroke-opacity="0.000" id="img-2111a6d9-2">
    <text x="71.19" y="88.39" text-anchor="middle" dy="0.6em">x</text>
  </g>
  <g class="guide xlabels" font-size="2.82" font-family="'PT Sans Caption','Helvetica Neue','Helvetica',sans-serif" fill="#6C606B" id="img-2111a6d9-3">
    <text x="26.92" y="81.72" text-anchor="middle" dy="0.6em">2000</text>
    <text x="56.44" y="81.72" text-anchor="middle" dy="0.6em">2005</text>
    <text x="85.95" y="81.72" text-anchor="middle" dy="0.6em">2010</text>
    <text x="115.45" y="81.72" text-anchor="middle" dy="0.6em">2015</text>
  </g>
  <g class="guide colorkey" id="img-2111a6d9-4">
    <g fill="#4C404B" font-size="2.82" font-family="'PT Sans','Helvetica Neue','Helvetica',sans-serif" id="img-2111a6d9-5">
      <text x="121.27" y="35.6" dy="0.35em" id="img-2111a6d9-6" class="color_Emission">Emission</text>
      <text x="121.27" y="39.23" dy="0.35em" id="img-2111a6d9-7" class="color_DHR_VIS">DHR_VIS</text>
      <text x="121.27" y="42.86" dy="0.35em" id="img-2111a6d9-8" class="color_BurntArea">BurntArea</text>
      <text x="121.27" y="46.48" dy="0.35em" id="img-2111a6d9-9" class="color_SoilMoisture">SoilMoisture</text>
      <text x="121.27" y="50.11" dy="0.35em" id="img-2111a6d9-10" class="color_BHR_VIS">BHR_VIS</text>
      <text x="121.27" y="53.74" dy="0.35em" id="img-2111a6d9-11" class="color_t2m">t2m</text>
    </g>
    <g stroke="#000000" stroke-opacity="0.000" id="img-2111a6d9-12">
      <rect x="118.45" y="34.7" width="1.81" height="1.81" id="img-2111a6d9-13" fill="#00BFFF" class="color_Emission"/>
      <rect x="118.45" y="38.32" width="1.81" height="1.81" id="img-2111a6d9-14" fill="#D4CA3A" class="color_DHR_VIS"/>
      <rect x="118.45" y="41.95" width="1.81" height="1.81" id="img-2111a6d9-15" fill="#FF6DAE" class="color_BurntArea"/>
      <rect x="118.45" y="45.58" width="1.81" height="1.81" id="img-2111a6d9-16" fill="#00B78D" class="color_SoilMoisture"/>
      <rect x="118.45" y="49.2" width="1.81" height="1.81" id="img-2111a6d9-17" fill="#BEA9FF" class="color_BHR_VIS"/>
      <rect x="118.45" y="52.83" width="1.81" height="1.81" id="img-2111a6d9-18" fill="#FF6765" class="color_t2m"/>
    </g>
    <g fill="#362A35" font-size="3.88" font-family="'PT Sans','Helvetica Neue','Helvetica',sans-serif" stroke="#000000" stroke-opacity="0.000" id="img-2111a6d9-19">
      <text x="118.45" y="31.78" id="img-2111a6d9-20">Color</text>
    </g>
  </g>
<g clip-path="url(#img-2111a6d9-21)">
  <g id="img-2111a6d9-22">
    <g pointer-events="visible" opacity="1" fill="#000000" fill-opacity="0.000" stroke="#000000" stroke-opacity="0.000" class="guide background" id="img-2111a6d9-23">
      <rect x="24.92" y="5" width="92.54" height="75.72" id="img-2111a6d9-24"/>
    </g>
    <g class="guide ygridlines xfixed" stroke-dasharray="0.5,0.5" stroke-width="0.2" stroke="#D0D0E0" id="img-2111a6d9-25">
      <path fill="none" d="M24.92,78.71 L 117.45 78.71" id="img-2111a6d9-26"/>
      <path fill="none" d="M24.92,60.79 L 117.45 60.79" id="img-2111a6d9-27"/>
      <path fill="none" d="M24.92,42.86 L 117.45 42.86" id="img-2111a6d9-28"/>
      <path fill="none" d="M24.92,24.93 L 117.45 24.93" id="img-2111a6d9-29"/>
      <path fill="none" d="M24.92,7 L 117.45 7" id="img-2111a6d9-30"/>
    </g>
    <g class="guide xgridlines yfixed" stroke-dasharray="0.5,0.5" stroke-width="0.2" stroke="#D0D0E0" id="img-2111a6d9-31">
      <path fill="none" d="M26.92,5 L 26.92 80.72" id="img-2111a6d9-32"/>
      <path fill="none" d="M56.44,5 L 56.44 80.72" id="img-2111a6d9-33"/>
      <path fill="none" d="M85.95,5 L 85.95 80.72" id="img-2111a6d9-34"/>
      <path fill="none" d="M115.45,5 L 115.45 80.72" id="img-2111a6d9-35"/>
    </g>
    <g class="plotpanel" id="img-2111a6d9-36">
      <g stroke-width="0.3" fill="#000000" fill-opacity="0.000" class="geometry color_t2m" stroke-dasharray="none" stroke="#FF6765" id="img-2111a6d9-37">
        <path fill="none" d="M26.92,37.78 L 27.05 39.42 27.18 40.47 27.31 39.45 27.44 39.57 27.57 40.19 27.69 40.32 27.82 38.66 27.95 39.2 28.08 37.38 28.21 37.11 28.34 35.47 28.47 36.04 28.6 35.65 28.73 35.03 28.86 34.93 28.99 32.6 29.12 32.67 29.25 32.36 29.38 31.5 29.5 29.86 29.63 27.08 29.76 24.08 29.89 23.34 30.02 21.82 30.15 19.37 30.28 19.17 30.41 18.32 30.54 17.32 30.67 16.54 30.8 17.02 30.93 18.47 31.06 19.48 31.19 19.73 31.31 21.68 31.44 24.01 31.57 25.3 31.7 26.4 31.83 27.09 31.96 28.76 32.09 30.58 32.22 31.87 32.35 33.73 32.48 34.31 32.61 35.4 32.74 35.9 32.83 41.45 32.96 39.96 33.09 42.14 33.22 41.6 33.35 39.21 33.48 41.04 33.61 42.76 33.74 41.5 33.87 40.09 34 38.67 34.13 36.57 34.26 35.47 34.38 37.67 34.51 33.86 34.64 33.29 34.77 35.87 34.9 33.15 35.03 33.54 35.16 33.39 35.29 29.97 35.42 30.99 35.55 27.36 35.68 24.61 35.81 22.23 35.94 22.49 36.07 21.99 36.19 17.77 36.32 18.43 36.45 14.65 36.58 13 36.71 12.72 36.84 17.49 36.97 15.68 37.1 13.92 37.23 21.59 37.36 25.28 37.49 24.43 37.62 22.93 37.75 25.92 37.88 24.82 38 33.21 38.13 29.93 38.26 34.84 38.39 32.57 38.52 37.06 38.65 39.95 38.73 37.91 38.86 39.99 38.99 37.26 39.12 34.85 39.25 38.61 39.38 36.87 39.51 38.89 39.64 39.71 39.77 37.72 39.89 38.26 40.02 37.52 40.15 35.4 40.28 36.63 40.41 33.51 40.54 34.58 40.67 30.75 40.8 30.23 40.93 29.91 41.06 30.75 41.19 31 41.32 28.49 41.45 25.24 41.58 26.62 41.7 21.58 41.83 19.17 41.96 22.32 42.09 20 42.22 20.17 42.35 23.55 42.48 19.78 42.61 24.21 42.74 17.29 42.87 19.91 43 21.19 43.13 24.68 43.26 24.34 43.39 26.53 43.51 28.62 43.64 29.03 43.77 28.08 43.9 34.5 44.03 35.86 44.16 35.11 44.29 36.67 44.42 38.14 44.55 38.08 44.63 41.28 44.76 40.66 44.89 42.25 45.02 39.19 45.15 41.79 45.28 40.86 45.41 41.43 45.53 41.25 45.66 41.05 45.79 42.11 45.92 39.18 46.05 35.04 46.18 34.44 46.31 34.38 46.44 35.75 46.57 34.94 46.7 31.39 46.83 31.21 46.96 32.73 47.09 30.47 47.21 28.68 47.34 27.84 47.47 21.07 47.6 18.48 47.73 18.33 47.86 15.08 47.99 19.38 48.12 18.46 48.25 15.52 48.38 15.48 48.51 15.55 48.64 20.43 48.77 21.36 48.9 22.56 49.02 24.18 49.15 24.87 49.28 25.86 49.41 30.98 49.54 28.78 49.67 29.03 49.8 28.92 49.93 29.99 50.06 31.41 50.19 34.21 50.32 31.97 50.45 34.48 50.53 37.13 50.66 39.1 50.79 38.74 50.92 37.87 51.04 40.23 51.17 41.93 51.3 41.67 51.43 38.31 51.56 40.05 51.69 35.12 51.82 40.25 51.95 39.35 52.08 39.03 52.21 38.45 52.34 34.36 52.47 34.06 52.6 32.1 52.73 33.18 52.85 31.58 52.98 30.73 53.11 26.41 53.24 26.1 53.37 23.49 53.5 21.86 53.63 21.47 53.76 17.24 53.89 19.31 54.02 16.28 54.15 18.58 54.28 21.75 54.41 23.05 54.54 21.39 54.66 22.69 54.79 20.75 54.92 21.51 55.05 25.38 55.18 24.93 55.31 25.23 55.44 27.72 55.57 31.46 55.7 29.39 55.83 30.31 55.96 32.38 56.09 38.67 56.22 34.86 56.34 35.8 56.44 36.83 56.57 38.24 56.7 38.9 56.83 41.44 56.96 37.16 57.09 41.81 57.22 39.93 57.35 40.25 57.48 41.22 57.61 39.31 57.73 37.66 57.86 36.21 57.99 34.97 58.12 38.39 58.25 37.99 58.38 36.56 58.51 35.52 58.64 34.3 58.77 35.6 58.9 32.69 59.03 33.29 59.16 29.89 59.29 25.73 59.42 23.5 59.54 24.14 59.67 21.25 59.8 18.77 59.93 18.42 60.06 17.02 60.19 14.37 60.32 12.38 60.45 17.32 60.58 15.66 60.71 17.92 60.84 19.93 60.97 25.19 61.1 21.61 61.22 22.64 61.35 23.17 61.48 28.82 61.61 31.59 61.74 28.28 61.87 32.48 62 35.53 62.13 36.16 62.26 38.7 62.34 37.16 62.47 39.5 62.6 38.58 62.73 39.54 62.86 41.94 62.99 40.21 63.12 38.83 63.24 35 63.37 38.11 63.5 33.46 63.63 34.88 63.76 31.65 63.89 32.74 64.02 34.82 64.15 32.61 64.28 34.2 64.41 30.28 64.54 31.02 64.67 34.85 64.8 30.11 64.93 30.97 65.05 25.5 65.18 23.79 65.31 26.39 65.44 21.26 65.57 18.19 65.7 17.66 65.83 14.99 65.96 14.31 66.09 15.78 66.22 12.62 66.35 14.69 66.48 18.59 66.61 19.98 66.74 20.97 66.86 24.02 66.99 24.19 67.12 27.62 67.25 27.74 67.38 28.5 67.51 28.04 67.64 30.55 67.77 33.94 67.9 35 68.03 38.94 68.16 34.88 68.24 38.16 68.37 38.72 68.5 42.95 68.63 44.32 68.75 41.08 68.88 40.97 69.01 40.32 69.14 36.72 69.27 37.94 69.4 37.02 69.53 37.8 69.66 36.17 69.79 40.95 69.92 37.6 70.05 34.96 70.18 36.82 70.31 32.2 70.44 32.57 70.56 30.81 70.69 30.94 70.82 30.61 70.95 25.79 71.08 22.76 71.21 22.19 71.34 23.3 71.47 24.06 71.6 21.39 71.73 22.58 71.86 20.11 71.99 20.45 72.12 16.29 72.25 19.65 72.37 21.92 72.5 19.99 72.63 18.66 72.76 22.31 72.89 27.69 73.02 26.59 73.15 29.17 73.28 30.02 73.41 31.11 73.54 36.72 73.67 34.56 73.8 33.45 73.93 38.1 74.06 36.62 74.14 36.38 74.27 39.37 74.39 42.35 74.52 35.97 74.65 40.27 74.78 42.37 74.91 40.62 75.04 41.8 75.17 42.04 75.3 39.66 75.43 33.51 75.56 32.67 75.69 35.07 75.82 36.53 75.95 33.81 76.08 34.77 76.2 34.24 76.33 36.75 76.46 31.28 76.59 33.22 76.72 27.15 76.85 24 76.98 23.49 77.11 25.88 77.24 21.5 77.37 13.91 77.5 12 77.63 15.08 77.76 10.99 77.88 14.98 78.01 18.53 78.14 19.08 78.27 18.38 78.4 16.41 78.53 19.03 78.66 20.12 78.79 23.16 78.92 24.93 79.05 26.35 79.18 31.56 79.31 26.4 79.44 33.24 79.57 37.24 79.69 33.47 79.82 35.15 79.95 32.16 80.05 34.65 80.18 40.17 80.31 41.03 80.44 38.21 80.57 36.4 80.7 34.52 80.83 37.08 80.96 34.08 81.08 35.52 81.21 32.9 81.34 36.78 81.47 36.18 81.6 35.02 81.73 33.73 81.86 34.25 81.99 36.04 82.12 32.83 82.25 29.77 82.38 30.4 82.51 34.43 82.64 33.05 82.76 30.04 82.89 26.07 83.02 27.2 83.15 22.1 83.28 20.14 83.41 23.63 83.54 20.54 83.67 20.75 83.8 16.01 83.93 17.63 84.06 20.17 84.19 20.13 84.32 25.28 84.45 26.32 84.57 25.52 84.7 29.02 84.83 29.97 84.96 26.69 85.09 26.89 85.22 29.54 85.35 34.13 85.48 35.87 85.61 35.31 85.74 36.82 85.87 37.55 85.95 36.88 86.08 38.54 86.21 40.48 86.34 41.54 86.47 39 86.59 41.29 86.72 41.67 86.85 37.96 86.98 38.21 87.11 37.28 87.24 36.99 87.37 36.6 87.5 33.85 87.63 35.25 87.76 38.69 87.89 35.27 88.02 34.04 88.15 34.46 88.28 32.22 88.4 31.41 88.53 29.01 88.66 29.02 88.79 23.2 88.92 24.13 89.05 24.45 89.18 19.54 89.31 21.81 89.44 18.24 89.57 17.71 89.7 13.8 89.83 17.19 89.96 17.25 90.08 20.52 90.21 19.32 90.34 19.94 90.47 23.07 90.6 25.56 90.73 24.53 90.86 26.37 90.99 28.41 91.12 33.07 91.25 29.71 91.38 29.43 91.51 28.22 91.64 26.84 91.77 30.78" id="img-2111a6d9-38"/>
      </g>
      <g stroke-width="0.3" fill="#000000" fill-opacity="0.000" class="geometry color_BHR_VIS" stroke-dasharray="none" stroke="#BEA9FF" id="img-2111a6d9-39">
        <path fill="none" d="M26.92,78.71 L 27.05 78.71 27.18 78.71 27.31 78.71 27.44 78.71 27.57 78.71 27.69 78.71 27.82 78.71 27.95 78.71 28.08 78.71 28.21 78.71 28.34 78.71 28.47 78.71 28.6 78.71 28.73 78.71 28.86 78.71 28.99 78.71 29.12 78.71 29.25 78.71 29.38 78.71 29.5 78.71 29.63 78.71 29.76 78.71 29.89 78.71 30.02 78.71 30.15 78.71 30.28 78.71 30.41 78.71 30.54 78.71 30.67 78.71 30.8 78.71 30.93 78.71 31.06 78.71 31.19 78.71 31.31 78.71 31.44 78.71 31.57 78.71 31.7 78.71 31.83 78.71 31.96 78.71 32.09 78.71 32.22 78.71 32.35 78.71 32.48 78.71 32.61 78.71 32.74 78.71 32.83 78.71 32.96 78.71 33.09 78.71 33.22 78.71 33.35 78.71 33.48 78.71 33.61 78.71 33.74 78.71 33.87 78.71 34 78.71 34.13 78.71 34.26 78.71 34.38 78.71 34.51 78.71 34.64 78.71 34.77 78.71 34.9 78.71 35.03 78.71 35.16 78.71 35.29 78.71 35.42 78.71 35.55 78.71 35.68 78.71 35.81 78.71 35.94 78.71 36.07 78.71 36.19 78.71 36.32 78.71 36.45 78.71 36.58 78.71 36.71 78.71 36.84 78.71 36.97 78.71 37.1 78.71 37.23 78.71 37.36 78.71 37.49 78.71 37.62 78.71 37.75 78.71 37.88 78.71 38 78.71 38.13 78.71 38.26 78.71 38.39 78.71 38.52 78.71 38.65 78.71 38.73 78.71 38.86 78.71 38.99 78.71 39.12 78.71 39.25 78.71 39.38 78.71 39.51 78.71 39.64 78.71 39.77 78.71 39.89 78.71 40.02 78.71 40.15 78.71 40.28 78.71 40.41 78.71 40.54 78.71 40.67 78.71 40.8 78.71 40.93 78.71 41.06 78.71 41.19 78.71 41.32 78.71 41.45 78.71 41.58 78.71 41.7 78.71 41.83 78.71 41.96 78.71 42.09 78.71 42.22 78.71 42.35 78.71 42.48 78.71 42.61 78.71 42.74 78.71 42.87 78.71 43 78.71 43.13 78.71 43.26 78.71 43.39 78.71 43.51 78.71 43.64 78.71 43.77 78.71 43.9 78.71 44.03 78.71 44.16 78.71 44.29 78.71 44.42 78.71 44.55 78.71 44.63 78.71 44.76 78.71 44.89 78.71 45.02 78.71 45.15 78.71 45.28 78.71 45.41 78.71 45.53 78.71 45.66 78.71 45.79 78.71 45.92 78.71 46.05 78.71 46.18 78.71 46.31 78.71 46.44 78.71 46.57 78.71 46.7 78.71 46.83 78.71 46.96 78.71 47.09 78.71 47.21 78.71 47.34 78.71 47.47 78.71 47.6 78.71 47.73 78.71 47.86 78.71 47.99 78.71 48.12 78.71 48.25 78.71 48.38 78.71 48.51 78.71 48.64 78.71 48.77 78.71 48.9 78.71 49.02 78.71 49.15 78.71 49.28 78.71 49.41 78.71 49.54 78.71 49.67 78.71 49.8 78.71 49.93 78.71 50.06 78.71 50.19 78.71 50.32 78.71 50.45 78.71 50.53 78.71 50.66 78.71 50.79 78.71 50.92 78.71 51.04 78.71 51.17 78.71 51.3 78.71 51.43 78.71 51.56 78.71 51.69 78.71 51.82 78.71 51.95 78.71 52.08 78.71 52.21 78.71 52.34 78.71 52.47 78.71 52.6 78.71 52.73 78.71 52.85 78.71 52.98 78.71 53.11 78.71 53.24 78.71 53.37 78.71 53.5 78.71 53.63 78.71 53.76 78.71 53.89 78.71 54.02 78.71 54.15 78.71 54.28 78.71 54.41 78.71 54.54 78.71 54.66 78.71 54.79 78.71 54.92 78.71 55.05 78.71 55.18 78.71 55.31 78.71 55.44 78.71 55.57 78.71 55.7 78.71 55.83 78.71 55.96 78.71 56.09 78.71 56.22 78.71 56.34 78.71 56.44 78.71 56.57 78.71 56.7 78.71 56.83 78.71 56.96 78.71 57.09 78.71 57.22 78.71 57.35 78.71 57.48 78.71 57.61 78.71 57.73 78.71 57.86 78.71 57.99 78.71 58.12 78.71 58.25 78.71 58.38 78.71 58.51 78.71 58.64 78.71 58.77 78.71 58.9 78.71 59.03 78.71 59.16 78.71 59.29 78.71 59.42 78.71 59.54 78.71 59.67 78.71 59.8 78.71 59.93 78.71 60.06 78.71 60.19 78.71 60.32 78.71 60.45 78.71 60.58 78.71 60.71 78.71 60.84 78.71 60.97 78.71 61.1 78.71 61.22 78.71 61.35 78.71 61.48 78.71 61.61 78.71 61.74 78.71 61.87 78.71 62 78.71 62.13 78.71 62.26 78.71 62.34 78.71 62.47 78.71 62.6 78.71 62.73 78.71 62.86 78.71 62.99 78.71 63.12 78.71 63.24 78.71 63.37 78.71 63.5 78.71 63.63 78.71 63.76 78.71 63.89 78.71 64.02 78.71 64.15 78.71 64.28 78.71 64.41 78.71 64.54 78.71 64.67 78.71 64.8 78.71 64.93 78.71 65.05 78.71 65.18 78.71 65.31 78.71 65.44 78.71 65.57 78.71 65.7 78.71 65.83 78.71 65.96 78.71 66.09 78.71 66.22 78.71 66.35 78.71 66.48 78.71 66.61 78.71 66.74 78.71 66.86 78.71 66.99 78.71 67.12 78.71 67.25 78.71 67.38 78.71 67.51 78.71 67.64 78.71 67.77 78.71 67.9 78.71 68.03 78.71 68.16 78.71 68.24 78.71 68.37 78.71 68.5 78.71 68.63 78.71 68.75 78.71 68.88 78.71 69.01 78.71 69.14 78.71 69.27 78.71 69.4 78.71 69.53 78.71 69.66 78.71 69.79 78.71 69.92 78.71 70.05 78.71 70.18 78.71 70.31 78.71 70.44 78.71 70.56 78.71 70.69 78.71 70.82 78.71 70.95 78.71 71.08 78.71 71.21 78.71 71.34 78.71 71.47 78.71 71.6 78.71 71.73 78.71 71.86 78.71 71.99 78.71 72.12 78.71 72.25 78.71 72.37 78.71 72.5 78.71 72.63 78.71 72.76 78.71 72.89 78.71 73.02 78.71 73.15 78.71 73.28 78.71 73.41 78.71 73.54 78.71 73.67 78.71 73.8 78.71 73.93 78.71 74.06 78.71 74.14 78.71 74.27 78.71 74.39 78.71 74.52 78.71 74.65 78.71 74.78 78.71 74.91 78.71 75.04 78.71 75.17 78.71 75.3 78.71 75.43 78.71 75.56 78.71 75.69 78.71 75.82 78.71 75.95 78.71 76.08 78.71 76.2 78.71 76.33 78.71 76.46 78.71 76.59 78.71 76.72 78.71 76.85 78.71 76.98 78.71 77.11 78.71 77.24 78.71 77.37 78.71 77.5 78.71 77.63 78.71 77.76 78.71 77.88 78.71 78.01 78.71 78.14 78.71 78.27 78.71 78.4 78.71 78.53 78.71 78.66 78.71 78.79 78.71 78.92 78.71 79.05 78.71 79.18 78.71 79.31 78.71 79.44 78.71 79.57 78.71 79.69 78.71 79.82 78.71 79.95 78.71 80.05 78.71 80.18 78.71 80.31 78.71 80.44 78.71 80.57 78.71 80.7 78.71 80.83 78.71 80.96 78.71 81.08 78.71 81.21 78.71 81.34 78.71 81.47 78.71 81.6 78.71 81.73 78.71 81.86 78.71 81.99 78.71 82.12 78.71 82.25 78.71 82.38 78.71 82.51 78.71 82.64 78.71 82.76 78.71 82.89 78.71 83.02 78.71 83.15 78.71 83.28 78.71 83.41 78.71 83.54 78.71 83.67 78.71 83.8 78.71 83.93 78.71 84.06 78.71 84.19 78.71 84.32 78.71 84.45 78.71 84.57 78.71 84.7 78.71 84.83 78.71 84.96 78.71 85.09 78.71 85.22 78.71 85.35 78.71 85.48 78.71 85.61 78.71 85.74 78.71 85.87 78.71 85.95 78.71 86.08 78.71 86.21 78.71 86.34 78.71 86.47 78.71 86.59 78.71 86.72 78.71 86.85 78.71 86.98 78.71 87.11 78.71 87.24 78.71 87.37 78.71 87.5 78.71 87.63 78.71 87.76 78.71 87.89 78.71 88.02 78.71 88.15 78.71 88.28 78.71 88.4 78.71 88.53 78.71 88.66 78.71 88.79 78.71 88.92 78.71 89.05 78.71 89.18 78.71 89.31 78.71 89.44 78.71 89.57 78.71 89.7 78.71 89.83 78.71 89.96 78.71 90.08 78.71 90.21 78.71 90.34 78.71 90.47 78.71 90.6 78.71 90.73 78.71 90.86 78.71 90.99 78.71 91.12 78.71 91.25 78.71 91.38 78.71 91.51 78.71 91.64 78.71 91.77 78.71" id="img-2111a6d9-40"/>
      </g>
      <g stroke-width="0.3" fill="#000000" fill-opacity="0.000" class="geometry color_SoilMoisture" stroke-dasharray="none" stroke="#00B78D" id="img-2111a6d9-41">
        <path fill="none" d="M26.92,78.71 L 27.05 78.71 27.18 78.71 27.31 78.71 27.44 78.71 27.57 78.71 27.69 78.71 27.82 78.71 27.95 78.71 28.08 78.71 28.21 78.71 28.34 78.71 28.47 78.71 28.6 78.71 28.73 78.71 28.86 78.71 28.99 78.71 29.12 78.71 29.25 78.71 29.38 78.71 29.5 78.71 29.63 78.71 29.76 78.71 29.89 78.71 30.02 78.71 30.15 78.71 30.28 78.71 30.41 78.71 30.54 78.71 30.67 78.71 30.8 78.71 30.93 78.71 31.06 78.71 31.19 78.71 31.31 78.71 31.44 78.71 31.57 78.71 31.7 78.71 31.83 78.71 31.96 78.71 32.09 78.71 32.22 78.71 32.35 78.71 32.48 78.71 32.61 78.71 32.74 78.71 32.83 78.71 32.96 78.71 33.09 78.71 33.22 78.71 33.35 78.71 33.48 78.71 33.61 78.71 33.74 78.71 33.87 78.71 34 78.71 34.13 78.71 34.26 78.71 34.38 78.71 34.51 78.71 34.64 78.71 34.77 78.71 34.9 78.71 35.03 78.71 35.16 78.71 35.29 78.71 35.42 78.71 35.55 78.71 35.68 78.71 35.81 78.71 35.94 78.71 36.07 78.71 36.19 78.71 36.32 78.71 36.45 78.71 36.58 78.71 36.71 78.71 36.84 78.71 36.97 78.71 37.1 78.71 37.23 78.71 37.36 78.71 37.49 78.71 37.62 78.71 37.75 78.71 37.88 78.71 38 78.71 38.13 78.71 38.26 78.71 38.39 78.71 38.52 78.71 38.65 78.71 38.73 78.71 38.86 78.71 38.99 78.71 39.12 78.71 39.25 78.71 39.38 78.71 39.51 78.71 39.64 78.71 39.77 78.71 39.89 78.71 40.02 78.71 40.15 78.71 40.28 78.71 40.41 78.71 40.54 78.71 40.67 78.71 40.8 78.71 40.93 78.71 41.06 78.71 41.19 78.71 41.32 78.71 41.45 78.71 41.58 78.71 41.7 78.71 41.83 78.71 41.96 78.71 42.09 78.71 42.22 78.71 42.35 78.71 42.48 78.71 42.61 78.71 42.74 78.71 42.87 78.71 43 78.71 43.13 78.71 43.26 78.71 43.39 78.71 43.51 78.71 43.64 78.71 43.77 78.71 43.9 78.71 44.03 78.71 44.16 78.71 44.29 78.71 44.42 78.71 44.55 78.71 44.63 78.71 44.76 78.71 44.89 78.71 45.02 78.71 45.15 78.71 45.28 78.71 45.41 78.71 45.53 78.71 45.66 78.71 45.79 78.71 45.92 78.71 46.05 78.71 46.18 78.71 46.31 78.71 46.44 78.71 46.57 78.71 46.7 78.71 46.83 78.71 46.96 78.71 47.09 78.71 47.21 78.71 47.34 78.71 47.47 78.71 47.6 78.71 47.73 78.71 47.86 78.71 47.99 78.71 48.12 78.71 48.25 78.71 48.38 78.71 48.51 78.71 48.64 78.71 48.77 78.71 48.9 78.71 49.02 78.71 49.15 78.71 49.28 78.71 49.41 78.71 49.54 78.71 49.67 78.71 49.8 78.71 49.93 78.71 50.06 78.71 50.19 78.71 50.32 78.71 50.45 78.71 50.53 78.71 50.66 78.71 50.79 78.71 50.92 78.71 51.04 78.71 51.17 78.71 51.3 78.71 51.43 78.71 51.56 78.71 51.69 78.71 51.82 78.71 51.95 78.71 52.08 78.71 52.21 78.71 52.34 78.71 52.47 78.71 52.6 78.71 52.73 78.71 52.85 78.71 52.98 78.71 53.11 78.71 53.24 78.71 53.37 78.71 53.5 78.71 53.63 78.71 53.76 78.71 53.89 78.71 54.02 78.71 54.15 78.71 54.28 78.71 54.41 78.71 54.54 78.71 54.66 78.71 54.79 78.71 54.92 78.71 55.05 78.71 55.18 78.71 55.31 78.71 55.44 78.71 55.57 78.71 55.7 78.71 55.83 78.71 55.96 78.71 56.09 78.71 56.22 78.71 56.34 78.71 56.44 78.71 56.57 78.71 56.7 78.71 56.83 78.71 56.96 78.71 57.09 78.71 57.22 78.71 57.35 78.71 57.48 78.71 57.61 78.71 57.73 78.71 57.86 78.71 57.99 78.71 58.12 78.71 58.25 78.71 58.38 78.71 58.51 78.71 58.64 78.71 58.77 78.71 58.9 78.71 59.03 78.71 59.16 78.71 59.29 78.71 59.42 78.71 59.54 78.71 59.67 78.71 59.8 78.71 59.93 78.71 60.06 78.71 60.19 78.71 60.32 78.71 60.45 78.71 60.58 78.71 60.71 78.71 60.84 78.71 60.97 78.71 61.1 78.71 61.22 78.71 61.35 78.71 61.48 78.71 61.61 78.71 61.74 78.71 61.87 78.71 62 78.71 62.13 78.71 62.26 78.71 62.34 78.71 62.47 78.71 62.6 78.71 62.73 78.71 62.86 78.71 62.99 78.71 63.12 78.71 63.24 78.71 63.37 78.71 63.5 78.71 63.63 78.71 63.76 78.71 63.89 78.71 64.02 78.71 64.15 78.71 64.28 78.71 64.41 78.71 64.54 78.71 64.67 78.71 64.8 78.71 64.93 78.71 65.05 78.71 65.18 78.71 65.31 78.71 65.44 78.71 65.57 78.71 65.7 78.71 65.83 78.71 65.96 78.71 66.09 78.71 66.22 78.71 66.35 78.71 66.48 78.71 66.61 78.71 66.74 78.71 66.86 78.71 66.99 78.71 67.12 78.71 67.25 78.71 67.38 78.71 67.51 78.71 67.64 78.71 67.77 78.71 67.9 78.71 68.03 78.71 68.16 78.71 68.24 78.71 68.37 78.71 68.5 78.71 68.63 78.71 68.75 78.71 68.88 78.71 69.01 78.71 69.14 78.71 69.27 78.71 69.4 78.71 69.53 78.71 69.66 78.71 69.79 78.71 69.92 78.71 70.05 78.71 70.18 78.71 70.31 78.71 70.44 78.71 70.56 78.71 70.69 78.71 70.82 78.71 70.95 78.71 71.08 78.71 71.21 78.71 71.34 78.71 71.47 78.71 71.6 78.71 71.73 78.71 71.86 78.71 71.99 78.71 72.12 78.71 72.25 78.71 72.37 78.71 72.5 78.71 72.63 78.71 72.76 78.71 72.89 78.71 73.02 78.71 73.15 78.71 73.28 78.71 73.41 78.71 73.54 78.71 73.67 78.71 73.8 78.71 73.93 78.71 74.06 78.71 74.14 78.71 74.27 78.71 74.39 78.71 74.52 78.71 74.65 78.71 74.78 78.71 74.91 78.71 75.04 78.71 75.17 78.71 75.3 78.71 75.43 78.71 75.56 78.71 75.69 78.71 75.82 78.71 75.95 78.71 76.08 78.71 76.2 78.71 76.33 78.71 76.46 78.71 76.59 78.71 76.72 78.71 76.85 78.71 76.98 78.71 77.11 78.71 77.24 78.71 77.37 78.71 77.5 78.71 77.63 78.71 77.76 78.71 77.88 78.71 78.01 78.71 78.14 78.71 78.27 78.71 78.4 78.71 78.53 78.71 78.66 78.71 78.79 78.71 78.92 78.71 79.05 78.71 79.18 78.71 79.31 78.71 79.44 78.71 79.57 78.71 79.69 78.71 79.82 78.71 79.95 78.71 80.05 78.71 80.18 78.71 80.31 78.71 80.44 78.71 80.57 78.71 80.7 78.71 80.83 78.71 80.96 78.71 81.08 78.71 81.21 78.71 81.34 78.71 81.47 78.71 81.6 78.71 81.73 78.71 81.86 78.71 81.99 78.71 82.12 78.71 82.25 78.71 82.38 78.71 82.51 78.71 82.64 78.71 82.76 78.71 82.89 78.71 83.02 78.71 83.15 78.71 83.28 78.71 83.41 78.71 83.54 78.71 83.67 78.71 83.8 78.71 83.93 78.71 84.06 78.71 84.19 78.71 84.32 78.71 84.45 78.71 84.57 78.71 84.7 78.71 84.83 78.71 84.96 78.71 85.09 78.71 85.22 78.71 85.35 78.71 85.48 78.71 85.61 78.71 85.74 78.71 85.87 78.71 85.95 78.71 86.08 78.71 86.21 78.71 86.34 78.71 86.47 78.71 86.59 78.71 86.72 78.71 86.85 78.71 86.98 78.71 87.11 78.71 87.24 78.71 87.37 78.71 87.5 78.71 87.63 78.71 87.76 78.71 87.89 78.71 88.02 78.71 88.15 78.71 88.28 78.71 88.4 78.71 88.53 78.71 88.66 78.71 88.79 78.71 88.92 78.71 89.05 78.71 89.18 78.71 89.31 78.71 89.44 78.71 89.57 78.71 89.7 78.71 89.83 78.71 89.96 78.71 90.08 78.71 90.21 78.71 90.34 78.71 90.47 78.71 90.6 78.71 90.73 78.71 90.86 78.71 90.99 78.71 91.12 78.71 91.25 78.71 91.38 78.71 91.51 78.71 91.64 78.71 91.77 78.71" id="img-2111a6d9-42"/>
      </g>
      <g stroke-width="0.3" fill="#000000" fill-opacity="0.000" class="geometry color_BurntArea" stroke-dasharray="none" stroke="#FF6DAE" id="img-2111a6d9-43">
        <path fill="none" d="M26.92,78.71 L 27.05 78.71 27.18 78.71 27.31 78.71 27.44 78.71 27.57 78.71 27.69 78.71 27.82 78.71 27.95 78.71 28.08 78.71 28.21 78.71 28.34 78.71 28.47 78.71 28.6 78.71 28.73 78.71 28.86 78.71 28.99 78.71 29.12 78.71 29.25 78.71 29.38 78.71 29.5 78.71 29.63 78.71 29.76 78.7 29.89 78.58 30.02 78.58 30.15 78.58 30.28 78.67 30.41 78.71 30.54 78.71 30.67 78.71 30.8 78.71 30.93 78.71 31.06 78.71 31.19 78.71 31.31 78.71 31.44 78.71 31.57 78.71 31.7 78.71 31.83 78.71 31.96 78.71 32.09 78.71 32.22 78.71 32.35 78.71 32.48 78.71 32.61 78.71 32.74 78.71 32.83 78.71 32.96 78.71 33.09 78.71 33.22 78.71 33.35 78.71 33.48 78.71 33.61 78.71 33.74 78.71 33.87 78.71 34 78.71 34.13 78.71 34.26 78.71 34.38 78.71 34.51 78.71 34.64 78.71 34.77 78.71 34.9 78.71 35.03 78.71 35.16 78.71 35.29 78.71 35.42 78.71 35.55 78.71 35.68 78.71 35.81 78.71 35.94 78.71 36.07 78.71 36.19 78.71 36.32 78.71 36.45 78.71 36.58 78.71 36.71 78.71 36.84 78.71 36.97 78.71 37.1 78.71 37.23 78.71 37.36 78.71 37.49 78.71 37.62 78.71 37.75 78.71 37.88 78.71 38 78.71 38.13 78.71 38.26 78.71 38.39 78.71 38.52 78.71 38.65 78.71 38.73 78.71 38.86 78.71 38.99 78.71 39.12 78.71 39.25 78.71 39.38 78.71 39.51 78.71 39.64 78.71 39.77 78.71 39.89 78.71 40.02 78.71 40.15 78.71 40.28 78.71 40.41 78.71 40.54 78.71 40.67 78.71 40.8 78.71 40.93 78.71 41.06 78.71 41.19 78.71 41.32 78.71 41.45 78.71 41.58 78.71 41.7 78.71 41.83 78.71 41.96 78.71 42.09 78.71 42.22 78.71 42.35 78.71 42.48 78.71 42.61 78.71 42.74 78.71 42.87 78.71 43 78.71 43.13 78.71 43.26 78.71 43.39 78.71 43.51 78.71 43.64 78.71 43.77 78.71 43.9 78.71 44.03 78.71 44.16 78.71 44.29 78.71 44.42 78.71 44.55 78.71 44.63 78.71 44.76 78.71 44.89 78.71 45.02 78.71 45.15 78.71 45.28 78.71 45.41 78.71 45.53 78.71 45.66 78.71 45.79 78.71 45.92 78.71 46.05 78.71 46.18 78.71 46.31 78.71 46.44 78.71 46.57 78.71 46.7 78.71 46.83 78.71 46.96 78.71 47.09 78.71 47.21 78.71 47.34 78.71 47.47 78.71 47.6 78.71 47.73 78.71 47.86 78.71 47.99 78.71 48.12 78.71 48.25 78.71 48.38 78.71 48.51 78.71 48.64 78.71 48.77 78.71 48.9 78.71 49.02 78.71 49.15 78.71 49.28 78.71 49.41 78.71 49.54 78.71 49.67 78.71 49.8 78.71 49.93 78.71 50.06 78.71 50.19 78.71 50.32 78.71 50.45 78.71 50.53 78.71 50.66 78.71 50.79 78.71 50.92 78.71 51.04 78.71 51.17 78.71 51.3 78.71 51.43 78.71 51.56 78.71 51.69 78.71 51.82 78.71 51.95 78.71 52.08 78.71 52.21 78.71 52.34 78.71 52.47 78.71 52.6 78.71 52.73 78.71 52.85 78.71 52.98 78.71 53.11 78.71 53.24 78.71 53.37 78.71 53.5 78.71 53.63 78.71 53.76 78.71 53.89 78.71 54.02 78.71 54.15 78.71 54.28 78.71 54.41 78.71 54.54 78.71 54.66 78.71 54.79 78.71 54.92 78.71 55.05 78.71 55.18 78.71 55.31 78.71 55.44 78.71 55.57 78.71 55.7 78.71 55.83 78.71 55.96 78.71 56.09 78.71 56.22 78.71 56.34 78.71 56.44 78.71 56.57 78.71 56.7 78.71 56.83 78.71 56.96 78.71 57.09 78.71 57.22 78.71 57.35 78.71 57.48 78.71 57.61 78.71 57.73 78.71 57.86 78.71 57.99 78.71 58.12 78.71 58.25 78.71 58.38 78.71 58.51 78.71 58.64 78.71 58.77 78.71 58.9 78.71 59.03 78.71 59.16 78.71 59.29 78.71 59.42 78.71 59.54 78.71 59.67 78.71 59.8 78.71 59.93 78.71 60.06 78.71 60.19 78.71 60.32 78.71 60.45 78.71 60.58 78.71 60.71 78.71 60.84 78.65 60.97 78.56 61.1 78.56 61.22 78.56 61.35 78.71 61.48 78.71 61.61 78.71 61.74 78.71 61.87 78.71 62 78.71 62.13 78.71 62.26 78.71 62.34 78.71 62.47 78.71 62.6 78.71 62.73 78.71 62.86 78.71 62.99 78.71 63.12 78.71 63.24 78.71 63.37 78.71 63.5 78.71 63.63 78.71 63.76 78.71 63.89 78.71 64.02 78.71 64.15 78.71 64.28 78.71 64.41 78.71 64.54 78.71 64.67 78.71 64.8 78.71 64.93 78.71 65.05 78.71 65.18 78.71 65.31 78.71 65.44 78.71 65.57 78.71 65.7 78.71 65.83 78.71 65.96 78.71 66.09 78.71 66.22 78.71 66.35 78.71 66.48 78.71 66.61 78.71 66.74 78.71 66.86 78.71 66.99 78.71 67.12 78.71 67.25 78.71 67.38 78.71 67.51 78.71 67.64 78.71 67.77 78.71 67.9 78.71 68.03 78.71 68.16 78.71 68.24 78.71 68.37 78.71 68.5 78.71 68.63 78.71 68.75 78.71 68.88 78.71 69.01 78.71 69.14 78.71 69.27 78.71 69.4 78.71 69.53 78.71 69.66 78.71 69.79 78.71 69.92 78.71 70.05 78.71 70.18 78.71 70.31 78.71 70.44 78.71 70.56 78.71 70.69 78.71 70.82 78.71 70.95 78.71 71.08 78.71 71.21 78.71 71.34 78.71 71.47 78.71 71.6 78.71 71.73 78.71 71.86 78.71 71.99 78.71 72.12 78.71 72.25 78.71 72.37 78.71 72.5 78.71 72.63 78.71 72.76 78.71 72.89 78.71 73.02 78.71 73.15 78.71 73.28 78.71 73.41 78.71 73.54 78.71 73.67 78.71 73.8 78.71 73.93 78.71 74.06 78.71 74.14 78.71 74.27 78.71 74.39 78.71 74.52 78.71 74.65 78.71 74.78 78.71 74.91 78.71 75.04 78.71 75.17 78.71 75.3 78.71 75.43 78.71 75.56 78.71 75.69 78.71 75.82 78.71 75.95 78.71 76.08 78.71 76.2 78.71 76.33 78.71 76.46 78.71 76.59 78.71 76.72 78.71 76.85 78.71 76.98 78.71 77.11 78.71 77.24 78.71 77.37 78.71 77.5 78.71 77.63 78.71 77.76 78.71 77.88 78.71 78.01 78.71 78.14 78.71 78.27 78.71 78.4 78.71 78.53 78.71 78.66 78.71 78.79 78.71 78.92 78.71 79.05 78.71 79.18 78.71 79.31 78.71 79.44 78.71 79.57 78.71 79.69 78.71 79.82 78.71 79.95 78.71 80.05 78.71 80.18 78.71 80.31 78.71 80.44 78.71 80.57 78.71 80.7 78.71 80.83 78.71 80.96 78.71 81.08 78.71 81.21 78.71 81.34 78.71 81.47 78.71 81.6 78.71 81.73 78.71 81.86 78.71 81.99 78.71 82.12 78.71 82.25 78.71 82.38 78.71 82.51 78.71 82.64 78.71 82.76 78.71 82.89 78.34 83.02 76.72 83.15 76.72 83.28 76.72 83.41 78.22 83.54 78.71 83.67 78.71 83.8 78.71 83.93 78.71 84.06 78.71 84.19 78.71 84.32 78.71 84.45 78.71 84.57 78.71 84.7 78.71 84.83 78.71 84.96 78.71 85.09 78.71 85.22 78.71 85.35 78.71 85.48 78.71 85.61 78.71 85.74 78.71 85.87 78.71 85.95 78.71 86.08 78.71 86.21 78.71 86.34 78.71 86.47 78.71 86.59 78.71 86.72 78.71 86.85 78.71 86.98 78.71 87.11 78.71 87.24 78.71 87.37 78.71 87.5 78.71 87.63 78.71 87.76 78.71 87.89 78.71 88.02 78.71 88.15 78.71 88.28 78.71 88.4 78.71 88.53 78.71 88.66 78.71 88.79 78.71 88.92 78.71 89.05 78.71 89.18 78.71 89.31 78.71 89.44 78.71 89.57 78.71 89.7 78.71 89.83 78.71 89.96 78.71 90.08 78.71 90.21 78.71 90.34 78.71 90.47 78.71 90.6 78.71 90.73 78.71 90.86 78.71 90.99 78.71 91.12 78.71 91.25 78.71 91.38 78.71 91.51 78.71 91.64 78.71 91.77 78.71" id="img-2111a6d9-44"/>
      </g>
      <g stroke-width="0.3" fill="#000000" fill-opacity="0.000" class="geometry color_DHR_VIS" stroke-dasharray="none" stroke="#D4CA3A" id="img-2111a6d9-45">
        <path fill="none" d="M26.92,78.71 L 27.05 78.71 27.18 78.71 27.31 78.71 27.44 78.71 27.57 78.71 27.69 78.71 27.82 78.71 27.95 78.71 28.08 78.71 28.21 78.71 28.34 78.71 28.47 78.71 28.6 78.71 28.73 78.71 28.86 78.71 28.99 78.71 29.12 78.71 29.25 78.71 29.38 78.71 29.5 78.71 29.63 78.71 29.76 78.71 29.89 78.71 30.02 78.71 30.15 78.71 30.28 78.71 30.41 78.71 30.54 78.71 30.67 78.71 30.8 78.71 30.93 78.71 31.06 78.71 31.19 78.71 31.31 78.71 31.44 78.71 31.57 78.71 31.7 78.71 31.83 78.71 31.96 78.71 32.09 78.71 32.22 78.71 32.35 78.71 32.48 78.71 32.61 78.71 32.74 78.71 32.83 78.71 32.96 78.71 33.09 78.71 33.22 78.71 33.35 78.71 33.48 78.71 33.61 78.71 33.74 78.71 33.87 78.71 34 78.71 34.13 78.71 34.26 78.71 34.38 78.71 34.51 78.71 34.64 78.71 34.77 78.71 34.9 78.71 35.03 78.71 35.16 78.71 35.29 78.71 35.42 78.71 35.55 78.71 35.68 78.71 35.81 78.71 35.94 78.71 36.07 78.71 36.19 78.71 36.32 78.71 36.45 78.71 36.58 78.71 36.71 78.71 36.84 78.71 36.97 78.71 37.1 78.71 37.23 78.71 37.36 78.71 37.49 78.71 37.62 78.71 37.75 78.71 37.88 78.71 38 78.71 38.13 78.71 38.26 78.71 38.39 78.71 38.52 78.71 38.65 78.71 38.73 78.71 38.86 78.71 38.99 78.71 39.12 78.71 39.25 78.71 39.38 78.71 39.51 78.71 39.64 78.71 39.77 78.71 39.89 78.71 40.02 78.71 40.15 78.71 40.28 78.71 40.41 78.71 40.54 78.71 40.67 78.71 40.8 78.71 40.93 78.71 41.06 78.71 41.19 78.71 41.32 78.71 41.45 78.71 41.58 78.71 41.7 78.71 41.83 78.71 41.96 78.71 42.09 78.71 42.22 78.71 42.35 78.71 42.48 78.71 42.61 78.71 42.74 78.71 42.87 78.71 43 78.71 43.13 78.71 43.26 78.71 43.39 78.71 43.51 78.71 43.64 78.71 43.77 78.71 43.9 78.71 44.03 78.71 44.16 78.71 44.29 78.71 44.42 78.71 44.55 78.71 44.63 78.71 44.76 78.71 44.89 78.71 45.02 78.71 45.15 78.71 45.28 78.71 45.41 78.71 45.53 78.71 45.66 78.71 45.79 78.71 45.92 78.71 46.05 78.71 46.18 78.71 46.31 78.71 46.44 78.71 46.57 78.71 46.7 78.71 46.83 78.71 46.96 78.71 47.09 78.71 47.21 78.71 47.34 78.71 47.47 78.71 47.6 78.71 47.73 78.71 47.86 78.71 47.99 78.71 48.12 78.71 48.25 78.71 48.38 78.71 48.51 78.71 48.64 78.71 48.77 78.71 48.9 78.71 49.02 78.71 49.15 78.71 49.28 78.71 49.41 78.71 49.54 78.71 49.67 78.71 49.8 78.71 49.93 78.71 50.06 78.71 50.19 78.71 50.32 78.71 50.45 78.71 50.53 78.71 50.66 78.71 50.79 78.71 50.92 78.71 51.04 78.71 51.17 78.71 51.3 78.71 51.43 78.71 51.56 78.71 51.69 78.71 51.82 78.71 51.95 78.71 52.08 78.71 52.21 78.71 52.34 78.71 52.47 78.71 52.6 78.71 52.73 78.71 52.85 78.71 52.98 78.71 53.11 78.71 53.24 78.71 53.37 78.71 53.5 78.71 53.63 78.71 53.76 78.71 53.89 78.71 54.02 78.71 54.15 78.71 54.28 78.71 54.41 78.71 54.54 78.71 54.66 78.71 54.79 78.71 54.92 78.71 55.05 78.71 55.18 78.71 55.31 78.71 55.44 78.71 55.57 78.71 55.7 78.71 55.83 78.71 55.96 78.71 56.09 78.71 56.22 78.71 56.34 78.71 56.44 78.71 56.57 78.71 56.7 78.71 56.83 78.71 56.96 78.71 57.09 78.71 57.22 78.71 57.35 78.71 57.48 78.71 57.61 78.71 57.73 78.71 57.86 78.71 57.99 78.71 58.12 78.71 58.25 78.71 58.38 78.71 58.51 78.71 58.64 78.71 58.77 78.71 58.9 78.71 59.03 78.71 59.16 78.71 59.29 78.71 59.42 78.71 59.54 78.71 59.67 78.71 59.8 78.71 59.93 78.71 60.06 78.71 60.19 78.71 60.32 78.71 60.45 78.71 60.58 78.71 60.71 78.71 60.84 78.71 60.97 78.71 61.1 78.71 61.22 78.71 61.35 78.71 61.48 78.71 61.61 78.71 61.74 78.71 61.87 78.71 62 78.71 62.13 78.71 62.26 78.71 62.34 78.71 62.47 78.71 62.6 78.71 62.73 78.71 62.86 78.71 62.99 78.71 63.12 78.71 63.24 78.71 63.37 78.71 63.5 78.71 63.63 78.71 63.76 78.71 63.89 78.71 64.02 78.71 64.15 78.71 64.28 78.71 64.41 78.71 64.54 78.71 64.67 78.71 64.8 78.71 64.93 78.71 65.05 78.71 65.18 78.71 65.31 78.71 65.44 78.71 65.57 78.71 65.7 78.71 65.83 78.71 65.96 78.71 66.09 78.71 66.22 78.71 66.35 78.71 66.48 78.71 66.61 78.71 66.74 78.71 66.86 78.71 66.99 78.71 67.12 78.71 67.25 78.71 67.38 78.71 67.51 78.71 67.64 78.71 67.77 78.71 67.9 78.71 68.03 78.71 68.16 78.71 68.24 78.71 68.37 78.71 68.5 78.71 68.63 78.71 68.75 78.71 68.88 78.71 69.01 78.71 69.14 78.71 69.27 78.71 69.4 78.71 69.53 78.71 69.66 78.71 69.79 78.71 69.92 78.71 70.05 78.71 70.18 78.71 70.31 78.71 70.44 78.71 70.56 78.71 70.69 78.71 70.82 78.71 70.95 78.71 71.08 78.71 71.21 78.71 71.34 78.71 71.47 78.71 71.6 78.71 71.73 78.71 71.86 78.71 71.99 78.71 72.12 78.71 72.25 78.71 72.37 78.71 72.5 78.71 72.63 78.71 72.76 78.71 72.89 78.71 73.02 78.71 73.15 78.71 73.28 78.71 73.41 78.71 73.54 78.71 73.67 78.71 73.8 78.71 73.93 78.71 74.06 78.71 74.14 78.71 74.27 78.71 74.39 78.71 74.52 78.71 74.65 78.71 74.78 78.71 74.91 78.71 75.04 78.71 75.17 78.71 75.3 78.71 75.43 78.71 75.56 78.71 75.69 78.71 75.82 78.71 75.95 78.71 76.08 78.71 76.2 78.71 76.33 78.71 76.46 78.71 76.59 78.71 76.72 78.71 76.85 78.71 76.98 78.71 77.11 78.71 77.24 78.71 77.37 78.71 77.5 78.71 77.63 78.71 77.76 78.71 77.88 78.71 78.01 78.71 78.14 78.71 78.27 78.71 78.4 78.71 78.53 78.71 78.66 78.71 78.79 78.71 78.92 78.71 79.05 78.71 79.18 78.71 79.31 78.71 79.44 78.71 79.57 78.71 79.69 78.71 79.82 78.71 79.95 78.71 80.05 78.71 80.18 78.71 80.31 78.71 80.44 78.71 80.57 78.71 80.7 78.71 80.83 78.71 80.96 78.71 81.08 78.71 81.21 78.71 81.34 78.71 81.47 78.71 81.6 78.71 81.73 78.71 81.86 78.71 81.99 78.71 82.12 78.71 82.25 78.71 82.38 78.71 82.51 78.71 82.64 78.71 82.76 78.71 82.89 78.71 83.02 78.71 83.15 78.71 83.28 78.71 83.41 78.71 83.54 78.71 83.67 78.71 83.8 78.71 83.93 78.71 84.06 78.71 84.19 78.71 84.32 78.71 84.45 78.71 84.57 78.71 84.7 78.71 84.83 78.71 84.96 78.71 85.09 78.71 85.22 78.71 85.35 78.71 85.48 78.71 85.61 78.71 85.74 78.71 85.87 78.71 85.95 78.71 86.08 78.71 86.21 78.71 86.34 78.71 86.47 78.71 86.59 78.71 86.72 78.71 86.85 78.71 86.98 78.71 87.11 78.71 87.24 78.71 87.37 78.71 87.5 78.71 87.63 78.71 87.76 78.71 87.89 78.71 88.02 78.71 88.15 78.71 88.28 78.71 88.4 78.71 88.53 78.71 88.66 78.71 88.79 78.71 88.92 78.71 89.05 78.71 89.18 78.71 89.31 78.71 89.44 78.71 89.57 78.71 89.7 78.71 89.83 78.71 89.96 78.71 90.08 78.71 90.21 78.71 90.34 78.71 90.47 78.71 90.6 78.71 90.73 78.71 90.86 78.71 90.99 78.71 91.12 78.71 91.25 78.71 91.38 78.71 91.51 78.71 91.64 78.71 91.77 78.71" id="img-2111a6d9-46"/>
      </g>
      <g stroke-width="0.3" fill="#000000" fill-opacity="0.000" class="geometry color_Emission" stroke-dasharray="none" stroke="#00BFFF" id="img-2111a6d9-47">
        <path fill="none" d="M26.92,78.71 L 27.05 78.71 27.18 78.71 27.31 78.71 27.44 78.71 27.57 78.71 27.69 78.71 27.82 78.71 27.95 78.71 28.08 78.71 28.21 78.71 28.34 78.71 28.47 78.71 28.6 78.71 28.73 78.71 28.86 78.71 28.99 78.71 29.12 78.71 29.25 78.71 29.38 78.71 29.5 78.71 29.63 78.71 29.76 78.71 29.89 78.71 30.02 78.71 30.15 78.71 30.28 78.71 30.41 78.71 30.54 78.71 30.67 78.71 30.8 78.71 30.93 78.71 31.06 78.71 31.19 78.71 31.31 78.71 31.44 78.71 31.57 78.71 31.7 78.71 31.83 78.71 31.96 78.71 32.09 78.71 32.22 78.71 32.35 78.71 32.48 78.71 32.61 78.71 32.74 78.71 32.83 78.71 32.96 78.71 33.09 78.71 33.22 78.71 33.35 78.71 33.48 78.71 33.61 78.71 33.74 78.71 33.87 78.71 34 78.71 34.13 78.71 34.26 78.71 34.38 78.71 34.51 78.71 34.64 78.71 34.77 78.71 34.9 78.71 35.03 78.71 35.16 78.71 35.29 78.71 35.42 78.71 35.55 78.71 35.68 78.71 35.81 78.71 35.94 78.71 36.07 78.71 36.19 78.71 36.32 78.71 36.45 78.71 36.58 78.71 36.71 78.71 36.84 78.71 36.97 78.71 37.1 78.71 37.23 78.71 37.36 78.71 37.49 78.71 37.62 78.71 37.75 78.71 37.88 78.71 38 78.71 38.13 78.71 38.26 78.71 38.39 78.71 38.52 78.71 38.65 78.71 38.73 78.71 38.86 78.71 38.99 78.71 39.12 78.71 39.25 78.71 39.38 78.71 39.51 78.71 39.64 78.71 39.77 78.71 39.89 78.71 40.02 78.71 40.15 78.71 40.28 78.71 40.41 78.71 40.54 78.71 40.67 78.71 40.8 78.71 40.93 78.71 41.06 78.71 41.19 78.71 41.32 78.71 41.45 78.71 41.58 78.71 41.7 78.71 41.83 78.71 41.96 78.71 42.09 78.71 42.22 78.71 42.35 78.71 42.48 78.71 42.61 78.71 42.74 78.71 42.87 78.71 43 78.71 43.13 78.71 43.26 78.71 43.39 78.71 43.51 78.71 43.64 78.71 43.77 78.71 43.9 78.71 44.03 78.71 44.16 78.71 44.29 78.71 44.42 78.71 44.55 78.71 44.63 78.71 44.76 78.71 44.89 78.71 45.02 78.71 45.15 78.71 45.28 78.71 45.41 78.71 45.53 78.71 45.66 78.71 45.79 78.71 45.92 78.71 46.05 78.71 46.18 78.71 46.31 78.71 46.44 78.71 46.57 78.71 46.7 78.71 46.83 78.71 46.96 78.71 47.09 78.71 47.21 78.71 47.34 78.71 47.47 78.71 47.6 78.71 47.73 78.71 47.86 78.71 47.99 78.71 48.12 78.71 48.25 78.71 48.38 78.71 48.51 78.71 48.64 78.71 48.77 78.71 48.9 78.71 49.02 78.71 49.15 78.71 49.28 78.71 49.41 78.71 49.54 78.71 49.67 78.71 49.8 78.71 49.93 78.71 50.06 78.71 50.19 78.71 50.32 78.71 50.45 78.71 50.53 78.71 50.66 78.71 50.79 78.71 50.92 78.71 51.04 78.71 51.17 78.71 51.3 78.71 51.43 78.71 51.56 78.71 51.69 78.71 51.82 78.71 51.95 78.71 52.08 78.71 52.21 78.71 52.34 78.71 52.47 78.71 52.6 78.71 52.73 78.71 52.85 78.71 52.98 78.71 53.11 78.71 53.24 78.71 53.37 78.71 53.5 78.71 53.63 78.71 53.76 78.71 53.89 78.71 54.02 78.71 54.15 78.71 54.28 78.71 54.41 78.71 54.54 78.71 54.66 78.71 54.79 78.71 54.92 78.71 55.05 78.71 55.18 78.71 55.31 78.71 55.44 78.71 55.57 78.71 55.7 78.71 55.83 78.71 55.96 78.71 56.09 78.71 56.22 78.71 56.34 78.71 56.44 78.71 56.57 78.71 56.7 78.71 56.83 78.71 56.96 78.71 57.09 78.71 57.22 78.71 57.35 78.71 57.48 78.71 57.61 78.71 57.73 78.71 57.86 78.71 57.99 78.71 58.12 78.71 58.25 78.71 58.38 78.71 58.51 78.71 58.64 78.71 58.77 78.71 58.9 78.71 59.03 78.71 59.16 78.71 59.29 78.71 59.42 78.71 59.54 78.71 59.67 78.71 59.8 78.71 59.93 78.71 60.06 78.71 60.19 78.71 60.32 78.71 60.45 78.71 60.58 78.71 60.71 78.71 60.84 78.71 60.97 78.71 61.1 78.71 61.22 78.71 61.35 78.71 61.48 78.71 61.61 78.71 61.74 78.71 61.87 78.71 62 78.71 62.13 78.71 62.26 78.71 62.34 78.71 62.47 78.71 62.6 78.71 62.73 78.71 62.86 78.71 62.99 78.71 63.12 78.71 63.24 78.71 63.37 78.71 63.5 78.71 63.63 78.71 63.76 78.71 63.89 78.71 64.02 78.71 64.15 78.71 64.28 78.71 64.41 78.71 64.54 78.71 64.67 78.71 64.8 78.71 64.93 78.71 65.05 78.71 65.18 78.71 65.31 78.71 65.44 78.71 65.57 78.71 65.7 78.71 65.83 78.71 65.96 78.71 66.09 78.71 66.22 78.71 66.35 78.71 66.48 78.71 66.61 78.71 66.74 78.71 66.86 78.71 66.99 78.71 67.12 78.71 67.25 78.71 67.38 78.71 67.51 78.71 67.64 78.71 67.77 78.71 67.9 78.71 68.03 78.71 68.16 78.71 68.24 78.71 68.37 78.71 68.5 78.71 68.63 78.71 68.75 78.71 68.88 78.71 69.01 78.71 69.14 78.71 69.27 78.71 69.4 78.71 69.53 78.71 69.66 78.71 69.79 78.71 69.92 78.71 70.05 78.71 70.18 78.71 70.31 78.71 70.44 78.71 70.56 78.71 70.69 78.71 70.82 78.71 70.95 78.71 71.08 78.71 71.21 78.71 71.34 78.71 71.47 78.71 71.6 78.71 71.73 78.71 71.86 78.71 71.99 78.71 72.12 78.71 72.25 78.71 72.37 78.71 72.5 78.71 72.63 78.71 72.76 78.71 72.89 78.71 73.02 78.71 73.15 78.71 73.28 78.71 73.41 78.71 73.54 78.71 73.67 78.71 73.8 78.71 73.93 78.71 74.06 78.71 74.14 78.71 74.27 78.71 74.39 78.71 74.52 78.71 74.65 78.71 74.78 78.71 74.91 78.71 75.04 78.71 75.17 78.71 75.3 78.71 75.43 78.71 75.56 78.71 75.69 78.71 75.82 78.71 75.95 78.71 76.08 78.71 76.2 78.71 76.33 78.71 76.46 78.71 76.59 78.71 76.72 78.71 76.85 78.71 76.98 78.71 77.11 78.71 77.24 78.71 77.37 78.71 77.5 78.71 77.63 78.71 77.76 78.71 77.88 78.71 78.01 78.71 78.14 78.71 78.27 78.71 78.4 78.71 78.53 78.71 78.66 78.71 78.79 78.71 78.92 78.71 79.05 78.71 79.18 78.71 79.31 78.71 79.44 78.71 79.57 78.71 79.69 78.71 79.82 78.71 79.95 78.71 80.05 78.71 80.18 78.71 80.31 78.71 80.44 78.71 80.57 78.71 80.7 78.71 80.83 78.71 80.96 78.71 81.08 78.71 81.21 78.71 81.34 78.71 81.47 78.71 81.6 78.71 81.73 78.71 81.86 78.71 81.99 78.71 82.12 78.71 82.25 78.71 82.38 78.71 82.51 78.71 82.64 78.71 82.76 78.71 82.89 78.71 83.02 78.69 83.15 78.69 83.28 78.69 83.41 78.71 83.54 78.71 83.67 78.71 83.8 78.71 83.93 78.71 84.06 78.71 84.19 78.71 84.32 78.71 84.45 78.71 84.57 78.71 84.7 78.71 84.83 78.71 84.96 78.71 85.09 78.71 85.22 78.71 85.35 78.71 85.48 78.71 85.61 78.71 85.74 78.71 85.87 78.71 85.95 78.71 86.08 78.71 86.21 78.71 86.34 78.71 86.47 78.71 86.59 78.71 86.72 78.71 86.85 78.71 86.98 78.71 87.11 78.71 87.24 78.71 87.37 78.71 87.5 78.71 87.63 78.71 87.76 78.71 87.89 78.71 88.02 78.71 88.15 78.71 88.28 78.71 88.4 78.71 88.53 78.71 88.66 78.71 88.79 78.71 88.92 78.71 89.05 78.71 89.18 78.71 89.31 78.71 89.44 78.71 89.57 78.71 89.7 78.71 89.83 78.71 89.96 78.71 90.08 78.71 90.21 78.71 90.34 78.71 90.47 78.71 90.6 78.71 90.73 78.71 90.86 78.71 90.99 78.71 91.12 78.71 91.25 78.71 91.38 78.71 91.51 78.71 91.64 78.71 91.77 78.71" id="img-2111a6d9-48"/>
      </g>
    </g>
  </g>
</g>
  <g class="guide ylabels" font-size="2.82" font-family="'PT Sans Caption','Helvetica Neue','Helvetica',sans-serif" fill="#6C606B" id="img-2111a6d9-49">
    <text x="23.92" y="78.71" text-anchor="end" dy="0.35em" id="img-2111a6d9-50">0</text>
    <text x="23.92" y="60.79" text-anchor="end" dy="0.35em" id="img-2111a6d9-51">5.0×10³</text>
    <text x="23.92" y="42.86" text-anchor="end" dy="0.35em" id="img-2111a6d9-52">1.0×10⁴</text>
    <text x="23.92" y="24.93" text-anchor="end" dy="0.35em" id="img-2111a6d9-53">1.5×10⁴</text>
    <text x="23.92" y="7" text-anchor="end" dy="0.35em" id="img-2111a6d9-54">2.0×10⁴</text>
  </g>
  <g font-size="3.88" font-family="'PT Sans','Helvetica Neue','Helvetica',sans-serif" fill="#564A55" stroke="#000000" stroke-opacity="0.000" id="img-2111a6d9-55">
    <text x="8.81" y="42.86" text-anchor="end" dy="0.35em" id="img-2111a6d9-56">y</text>
  </g>
</g>
<defs>
  <clipPath id="img-2111a6d9-21">
  <path d="M24.92,5 L 117.45 5 117.45 80.72 24.92 80.72" />
</clipPath>
</defs>
</svg>
