<?xml version="1.0" encoding="UTF-8"?>
<svg xmlns="http://www.w3.org/2000/svg"
     xmlns:xlink="http://www.w3.org/1999/xlink"
     xmlns:gadfly="http://www.gadflyjl.org/ns"
     version="1.2"
     width="141.42mm" height="100mm" viewBox="0 0 141.42 100"
     stroke="none"
     fill="#000000"
     stroke-width="0.3"
     font-size="3.88"
>
<g class="plotroot xscalable yscalable" id="img-ca624312-1">
  <g font-size="3.88" font-family="'PT Sans','Helvetica Neue','Helvetica',sans-serif" fill="#564A55" stroke="#000000" stroke-opacity="0.000" id="img-ca624312-2">
    <text x="66.8" y="88.39" text-anchor="middle" dy="0.6em">x</text>
  </g>
  <g class="guide xlabels" font-size="2.82" font-family="'PT Sans Caption','Helvetica Neue','Helvetica',sans-serif" fill="#6C606B" id="img-ca624312-3">
    <text x="18.15" y="81.72" text-anchor="middle" dy="0.6em">2000</text>
    <text x="50.6" y="81.72" text-anchor="middle" dy="0.6em">2005</text>
    <text x="83.03" y="81.72" text-anchor="middle" dy="0.6em">2010</text>
    <text x="115.45" y="81.72" text-anchor="middle" dy="0.6em">2015</text>
  </g>
  <g class="guide colorkey" id="img-ca624312-4">
    <g fill="#4C404B" font-size="2.82" font-family="'PT Sans','Helvetica Neue','Helvetica',sans-serif" id="img-ca624312-5">
      <text x="121.27" y="35.6" dy="0.35em" id="img-ca624312-6" class="color_Emission">Emission</text>
      <text x="121.27" y="39.23" dy="0.35em" id="img-ca624312-7" class="color_DHR_VIS">DHR_VIS</text>
      <text x="121.27" y="42.86" dy="0.35em" id="img-ca624312-8" class="color_BurntArea">BurntArea</text>
      <text x="121.27" y="46.48" dy="0.35em" id="img-ca624312-9" class="color_SoilMoisture">SoilMoisture</text>
      <text x="121.27" y="50.11" dy="0.35em" id="img-ca624312-10" class="color_BHR_VIS">BHR_VIS</text>
      <text x="121.27" y="53.74" dy="0.35em" id="img-ca624312-11" class="color_t2m">t2m</text>
    </g>
    <g stroke="#000000" stroke-opacity="0.000" id="img-ca624312-12">
      <rect x="118.45" y="34.7" width="1.81" height="1.81" id="img-ca624312-13" fill="#00BFFF" class="color_Emission"/>
      <rect x="118.45" y="38.32" width="1.81" height="1.81" id="img-ca624312-14" fill="#D4CA3A" class="color_DHR_VIS"/>
      <rect x="118.45" y="41.95" width="1.81" height="1.81" id="img-ca624312-15" fill="#FF6DAE" class="color_BurntArea"/>
      <rect x="118.45" y="45.58" width="1.81" height="1.81" id="img-ca624312-16" fill="#00B78D" class="color_SoilMoisture"/>
      <rect x="118.45" y="49.2" width="1.81" height="1.81" id="img-ca624312-17" fill="#BEA9FF" class="color_BHR_VIS"/>
      <rect x="118.45" y="52.83" width="1.81" height="1.81" id="img-ca624312-18" fill="#FF6765" class="color_t2m"/>
    </g>
    <g fill="#362A35" font-size="3.88" font-family="'PT Sans','Helvetica Neue','Helvetica',sans-serif" stroke="#000000" stroke-opacity="0.000" id="img-ca624312-19">
      <text x="118.45" y="31.78" id="img-ca624312-20">Color</text>
    </g>
  </g>
<g clip-path="url(#img-ca624312-21)">
  <g id="img-ca624312-22">
    <g pointer-events="visible" opacity="1" fill="#000000" fill-opacity="0.000" stroke="#000000" stroke-opacity="0.000" class="guide background" id="img-ca624312-23">
      <rect x="16.15" y="5" width="101.3" height="75.72" id="img-ca624312-24"/>
    </g>
    <g class="guide ygridlines xfixed" stroke-dasharray="0.5,0.5" stroke-width="0.2" stroke="#D0D0E0" id="img-ca624312-25">
      <path fill="none" d="M16.15,78.71 L 117.45 78.71" id="img-ca624312-26"/>
      <path fill="none" d="M16.15,64.37 L 117.45 64.37" id="img-ca624312-27"/>
      <path fill="none" d="M16.15,50.03 L 117.45 50.03" id="img-ca624312-28"/>
      <path fill="none" d="M16.15,35.69 L 117.45 35.69" id="img-ca624312-29"/>
      <path fill="none" d="M16.15,21.34 L 117.45 21.34" id="img-ca624312-30"/>
      <path fill="none" d="M16.15,7 L 117.45 7" id="img-ca624312-31"/>
    </g>
    <g class="guide xgridlines yfixed" stroke-dasharray="0.5,0.5" stroke-width="0.2" stroke="#D0D0E0" id="img-ca624312-32">
      <path fill="none" d="M18.15,5 L 18.15 80.72" id="img-ca624312-33"/>
      <path fill="none" d="M50.6,5 L 50.6 80.72" id="img-ca624312-34"/>
      <path fill="none" d="M83.03,5 L 83.03 80.72" id="img-ca624312-35"/>
      <path fill="none" d="M115.45,5 L 115.45 80.72" id="img-ca624312-36"/>
    </g>
    <g class="plotpanel" id="img-ca624312-37">
      <g stroke-width="0.3" fill="#000000" fill-opacity="0.000" class="geometry color_t2m" stroke-dasharray="none" stroke="#FF6765" id="img-ca624312-38">
        <path fill="none" d="M18.15,64.37 L 18.29 64.37 18.44 64.37 18.58 64.37 18.72 64.37 18.86 64.37 19 64.37 19.15 64.37 19.29 64.37 19.43 64.37 19.57 64.37 19.72 64.37 19.86 64.37 20 64.37 20.14 64.37 20.28 64.37 20.43 64.37 20.57 64.37 20.71 64.37 20.85 64.37 20.99 64.37 21.14 64.37 21.28 64.37 21.42 64.37 21.56 64.37 21.7 64.37 21.85 64.37 21.99 64.37 22.13 64.37 22.27 64.37 22.41 64.37 22.56 64.37 22.7 64.37 22.84 64.37 22.98 64.37 23.13 64.37 23.27 64.37 23.41 64.37 23.55 64.37 23.69 64.37 23.84 64.37 23.98 64.37 24.12 64.37 24.26 64.37 24.4 64.37 24.55 64.37 24.65 68.9 24.79 65.03 24.94 66.43 25.08 67.02 25.22 63.93 25.36 65.42 25.5 67.38 25.65 67.88 25.79 65.48 25.93 65.97 26.07 63.7 26.22 64.36 26.36 66.39 26.5 62.16 26.64 62.22 26.78 65.53 26.93 65.05 27.07 65.44 27.21 65.64 27.35 62.49 27.49 65.76 27.64 64.72 27.78 65.02 27.92 62.99 28.06 65.19 28.2 67.61 28.35 62.64 28.49 64.5 28.63 61.08 28.77 60.01 28.91 59.07 29.06 63.15 29.2 59.68 29.34 57.2 29.48 64.26 29.62 65.94 29.77 63.3 29.91 60.08 30.05 62.93 30.19 59.51 30.34 67.62 30.48 61.98 30.62 65.75 30.76 62.22 30.9 66.42 31.05 69.37 31.13 64.52 31.28 65.07 31.42 60.42 31.56 58.69 31.7 63.19 31.84 60.28 31.99 62.6 32.13 65.67 32.27 62.56 32.41 65.46 32.56 64.88 32.7 64.29 32.84 65.1 32.98 61.73 33.12 63.82 33.27 59.22 33.41 61.45 33.55 60.97 33.69 62.39 33.83 63.76 33.98 62.67 34.12 62.1 34.26 67.51 34.4 62.2 34.54 61.1 34.69 68.01 34.83 65.4 34.97 66.66 35.11 72.07 35.25 68.37 35.4 73.25 35.54 62.91 35.68 64.89 35.82 66.17 35.96 68.08 36.11 64.78 36.25 65.89 36.39 67.11 36.53 66.76 36.68 63.53 36.82 69.22 36.96 69.29 37.1 66.08 37.24 67.29 37.39 67.75 37.53 67.07 37.62 68.69 37.76 65.9 37.9 66.57 38.04 64.05 38.18 67.11 38.33 65.2 38.47 65.74 38.61 67.57 38.75 66.66 38.9 70.21 39.04 66.93 39.18 63.83 39.32 62.4 39.46 62.81 39.61 65.26 39.75 64.39 39.89 62.88 40.03 62.57 40.17 64.82 40.32 63.1 40.46 62.91 40.6 65.31 40.74 60.65 40.88 58.37 41.03 60.07 41.17 59.07 41.31 64.63 41.45 64.55 41.59 62.15 41.74 63.07 41.88 62.56 42.02 66.79 42.16 66.68 42.3 67.85 42.45 67.46 42.59 65.43 42.73 65.06 42.87 70.02 43.02 66.45 43.16 64.71 43.3 62.33 43.44 62.05 43.58 61.51 43.73 64.25 43.87 60.13 44.01 62.62 44.1 63.57 44.24 63.97 44.38 62.24 44.52 62.42 44.67 65.19 44.81 66.52 44.95 66.04 45.09 63.94 45.24 65.43 45.38 61.58 45.52 68.25 45.66 69.16 45.8 68.07 45.95 67.83 46.09 63.54 46.23 63.3 46.37 63.76 46.51 65 46.66 63.41 46.8 63.43 46.94 60.11 47.08 63.17 47.22 63.64 47.37 62.54 47.51 63.93 47.65 61.74 47.79 64.54 47.93 61.86 48.08 65.93 48.22 70.8 48.36 71.82 48.5 67.97 48.64 68.32 48.79 65.63 48.93 64.16 49.07 66.06 49.21 63.92 49.36 62.93 49.5 65.14 49.64 67.71 49.78 62.9 49.92 62.44 50.07 62.71 50.21 69.75 50.35 63.7 50.49 64.25 50.6 63.2 50.74 62.9 50.88 62.43 51.02 66.82 51.17 61.4 51.31 66.37 51.45 63.89 51.59 66.33 51.73 66.87 51.88 66.75 52.02 65.04 52.16 65.28 52.3 63.06 52.45 67.75 52.59 68.03 52.73 66.38 52.87 67.98 53.01 66.38 53.16 68.37 53.3 65.84 53.44 68.6 53.58 67.84 53.72 66.41 53.87 64.56 54.01 67.23 54.15 66.69 54.29 63.87 54.43 64.5 54.58 64.01 54.72 61.69 54.86 58.65 55 62.95 55.14 59.65 55.29 62.14 55.43 62.21 55.57 65.83 55.71 59.82 55.86 59.72 56 59.53 56.14 64.45 56.28 65.62 56.42 59.94 56.57 62.84 56.71 65.88 56.85 65.31 56.99 67.83 57.08 63.61 57.22 64.46 57.36 62.04 57.51 64.48 57.65 67.3 57.79 64.4 57.93 62.54 58.07 59.86 58.22 63.03 58.36 59.53 58.5 61.61 58.64 59.66 58.79 60.3 58.93 63.35 59.07 61.39 59.21 63.48 59.35 61.52 59.5 62.34 59.64 67.44 59.78 62.66 59.92 65.73 60.06 62.42 60.21 64.01 60.35 68.13 60.49 63.67 60.63 62.91 60.77 62.51 60.92 60.27 61.06 60.66 61.2 63.44 61.34 58.95 61.48 59.7 61.63 63.27 61.77 64.68 61.91 63.49 62.05 64.39 62.2 63.01 62.34 65.87 62.48 65.17 62.62 64.06 62.76 61.24 62.91 62.75 63.05 64.64 63.19 65.22 63.33 68.74 63.47 63.11 63.56 64.84 63.7 63.5 63.85 67.44 63.99 70.37 64.13 66.24 64.27 65.34 64.41 64.37 64.56 61.98 64.7 62.82 64.84 63.93 64.98 65.21 65.13 65.23 65.27 70.43 65.41 66.78 65.55 64.28 65.69 66.7 65.84 63.89 65.98 64.24 66.12 62.46 66.26 63.68 66.4 65.29 66.55 62.79 66.69 62.74 66.83 62.96 66.97 66.19 67.11 70.15 67.26 67.11 67.4 69.63 67.54 67.81 67.68 69.19 67.82 63.48 67.97 65.82 68.11 67.38 68.25 64.69 68.39 60.64 68.54 62.27 68.68 67.33 68.82 64.61 68.96 66.93 69.1 65.93 69.25 65.03 69.39 70.35 69.53 65.4 69.67 63.31 69.81 67.7 69.96 65.26 70.04 62.64 70.19 64.31 70.33 66.7 70.47 60.08 70.61 65.24 70.75 67.07 70.9 64.74 71.04 68.25 71.18 67.88 71.32 67.19 71.47 59.92 71.61 60.92 71.75 63.18 71.89 65.45 72.03 62.87 72.18 64.18 72.32 66.4 72.46 69.4 72.6 63.04 72.74 66.5 72.89 61.03 73.03 60.57 73.17 63.64 73.31 67.5 73.45 63.98 73.6 57.63 73.74 55.53 73.88 60.38 74.02 56.56 74.16 62.45 74.31 66.24 74.45 65.11 74.59 63.01 74.73 60.28 74.88 61.1 75.02 59.57 75.16 61.73 75.3 62.55 75.44 63.45 75.59 67.83 75.73 59.22 75.87 66.06 76.01 68.7 76.15 63.34 76.3 64.06 76.44 59.76 76.54 60.5 76.69 65.29 76.83 65.06 76.97 62.84 77.11 60.46 77.25 57.38 77.4 60.38 77.54 58.73 77.68 59.84 77.82 58.85 77.97 63.95 78.11 65.24 78.25 63.11 78.39 62 78.53 63.41 78.68 65.74 78.82 64.66 78.96 60.8 79.1 61.95 79.24 67.99 79.39 68.3 79.53 68.03 79.67 66.82 79.81 69.13 79.95 64.72 80.1 65.33 80.24 69.87 80.38 67.12 80.52 68.6 80.66 63.72 80.81 65.13 80.95 66.46 81.09 65.16 81.23 71.21 81.37 70.1 81.52 66.23 81.66 68.97 81.8 68.78 81.94 63.88 82.09 62.06 82.23 63.09 82.37 67.16 82.51 67.02 82.65 65.6 82.8 66.12 82.94 66.41 83.03 63.26 83.17 63.28 83.31 64.39 83.45 66.94 83.59 63.67 83.74 65.74 83.88 66.04 84.02 63.51 84.16 63.16 84.31 64.25 84.45 64.22 84.59 65.76 84.73 61.67 84.87 63.88 85.02 68.89 85.16 64.8 85.3 66.15 85.44 66.58 85.58 64.2 85.73 64.27 85.87 63.32 86.01 66.77 86.15 63.29 86.29 65.34 86.44 67.62 86.58 64.58 86.72 67.63 86.86 64.27 87 64.86 87.15 60.99 87.29 64.59 87.43 62.86 87.57 65.65 87.71 63.86 87.86 62.22 88 63.21 88.14 64.7 88.28 62.06 88.43 63.48 88.57 63.94 88.71 67.45 88.85 61.7 88.99 59.06 89.14 56.86 89.28 53.81 89.42 58.05" id="img-ca624312-39"/>
      </g>
      <g stroke-width="0.3" fill="#000000" fill-opacity="0.000" class="geometry color_BHR_VIS" stroke-dasharray="none" stroke="#BEA9FF" id="img-ca624312-40">
        <path fill="none" d="M18.15,59.44 L 18.29 62.94 18.44 62.39 18.58 62.46 18.72 63.12 18.86 63.99 19 66.35 19.15 64.01 19.29 63.16 19.43 62.67 19.57 62.4 19.72 62.29 19.86 62.55 20 63.15 20.14 63.79 20.28 64.13 20.43 64.09 20.57 63.8 20.71 63.98 20.85 63.75 20.99 63.44 21.14 62.97 21.28 63.19 21.42 63.44 21.56 63.3 21.7 63.33 21.85 63.33 21.99 63.21 22.13 62.98 22.27 62.62 22.41 62.27 22.56 62.27 22.7 62.82 22.84 63.84 22.98 64.59 23.13 64.54 23.27 64.24 23.41 63.7 23.55 63.72 23.69 64.08 23.84 64.32 23.98 64.64 24.12 64.73 24.26 65.38 24.4 65.81 24.55 20.64 24.65 61.63 24.79 68.27 24.94 68.65 25.08 68.75 25.22 68.29 25.36 68.08 25.5 68.41 25.65 68.58 25.79 68.35 25.93 68.1 26.07 68.17 26.22 68.18 26.36 67.89 26.5 67.57 26.64 67.09 26.78 66.74 26.93 66.53 27.07 66.57 27.21 66.36 27.35 66.41 27.49 66.42 27.64 66.16 27.78 65.88 27.92 65.84 28.06 65.86 28.2 65.96 28.35 66.17 28.49 66.22 28.63 66.17 28.77 66.11 28.91 65.89 29.06 65.7 29.2 65.55 29.34 65.33 29.48 65.74 29.62 66.02 29.77 66.11 29.91 65.58 30.05 65.43 30.19 65.22 30.34 65.32 30.48 65.45 30.62 64.63 30.76 63.1 30.9 61.7 31.05 68.35 31.13 65.68 31.28 66.8 31.42 67 31.56 67.38 31.7 67.24 31.84 67.11 31.99 67.15 32.13 66.6 32.27 66.54 32.41 66.3 32.56 65.58 32.7 64.99 32.84 64.42 32.98 64.75 33.12 65.06 33.27 64.98 33.41 65.05 33.55 65.03 33.69 64.13 33.83 63.61 33.98 62.82 34.12 62.55 34.26 62.63 34.4 62.7 34.54 62.6 34.69 62.35 34.83 62.53 34.97 62.71 35.11 62.87 35.25 63.38 35.4 64.06 35.54 64.32 35.68 64.82 35.82 64.76 35.96 64.89 36.11 64.72 36.25 64.42 36.39 63.99 36.53 63.81 36.68 63.65 36.82 63.04 36.96 62.71 37.1 61.71 37.24 60.03 37.39 57.8 37.53 59.45 37.62 57.95 37.76 54.34 37.9 60.62 38.04 62.69 38.18 63.73 38.33 64.63 38.47 65.44 38.61 65.52 38.75 64.83 38.9 64.85 39.04 64.96 39.18 65.08 39.32 64.57 39.46 64.22 39.61 63.88 39.75 64.18 39.89 64.29 40.03 64.06 40.17 63.66 40.32 63.35 40.46 63.25 40.6 63.43 40.74 63.43 40.88 63.42 41.03 63.5 41.17 63.38 41.31 63.14 41.45 62.98 41.59 62.9 41.74 62.92 41.88 63 42.02 63.24 42.16 63.81 42.3 65.07 42.45 65.83 42.59 65.9 42.73 65.73 42.87 65.39 43.02 65.71 43.16 65.95 43.3 65.73 43.44 65.91 43.58 65.59 43.73 66.25 43.87 67.7 44.01 72.84 44.1 66.96 44.24 66.69 44.38 66.44 44.52 66.12 44.67 65.83 44.81 65.79 44.95 65.67 45.09 65.35 45.24 64.82 45.38 64.38 45.52 64.36 45.66 64.36 45.8 64.73 45.95 64.9 46.09 64.8 46.23 64.86 46.37 65.12 46.51 65.3 46.66 65.69 46.8 65.72 46.94 65.68 47.08 65.54 47.22 65.05 47.37 64.44 47.51 64.11 47.65 64.26 47.79 64.47 47.93 64.69 48.08 64.71 48.22 64.95 48.36 64.57 48.5 64.27 48.64 63.42 48.79 62.65 48.93 62.55 49.07 62.33 49.21 62.55 49.36 62.86 49.5 63.3 49.64 63.61 49.78 63.22 49.92 62.07 50.07 62.36 50.21 63.26 50.35 64.14 50.49 69.11 50.6 66.54 50.74 64.78 50.88 63.96 51.02 62.75 51.17 60.96 51.31 59.2 51.45 55.02 51.59 56.05 51.73 58.48 51.88 60.06 52.02 60.83 52.16 62.04 52.3 62.81 52.45 62.76 52.59 62.59 52.73 62.99 52.87 63.72 53.01 63.71 53.16 63.71 53.3 63.58 53.44 63.05 53.58 62.73 53.72 62.84 53.87 62.6 54.01 62.34 54.15 62.07 54.29 62.09 54.43 62.36 54.58 62.5 54.72 62.16 54.86 61.72 55 61.65 55.14 61.27 55.29 60.74 55.43 61.11 55.57 61.82 55.71 62.45 55.86 62.73 56 62.32 56.14 61.81 56.28 62.71 56.42 63.65 56.57 64.21 56.71 64.55 56.85 64.84 56.99 68.79 57.08 65.08 57.22 63.19 57.36 62.01 57.51 61.15 57.65 61.65 57.79 59.72 57.93 56.04 58.07 56.62 58.22 59.96 58.36 62.21 58.5 63.73 58.64 64.37 58.79 64.44 58.93 64.06 59.07 63.28 59.21 62.3 59.35 62 59.5 62.06 59.64 62.52 59.78 62.36 59.92 62.5 60.06 62.78 60.21 63 60.35 63.35 60.49 64.06 60.63 64.35 60.77 64.36 60.92 64.38 61.06 64.39 61.2 64.21 61.34 63.93 61.48 63.79 61.63 63.66 61.77 63.71 61.91 63.84 62.05 63.55 62.2 63.61 62.34 65.43 62.48 65.37 62.62 65.59 62.76 66.37 62.91 67.1 63.05 67.55 63.19 67.87 63.33 68.19 63.47 72.29 63.56 67.68 63.7 66.92 63.85 64.31 63.99 64.86 64.13 66.73 64.27 68.1 64.41 69.03 64.56 68.79 64.7 67.35 64.84 65.9 64.98 65.05 65.13 64.59 65.27 64.66 65.41 64.97 65.55 65.34 65.69 65.55 65.84 65.09 65.98 65.06 66.12 64.9 66.26 65.39 66.4 66.12 66.55 66.5 66.69 66.12 66.83 65.9 66.97 65.76 67.11 65.5 67.26 65.32 67.4 65.21 67.54 65.02 67.68 64.92 67.82 64.69 67.97 64.55 68.11 65.02 68.25 65.2 68.39 65.61 68.54 65.16 68.68 64.58 68.82 63.97 68.96 63.61 69.1 63.38 69.25 63.45 69.39 63.9 69.53 64.01 69.67 64.28 69.81 64.7 69.96 69.37 70.04 65.88 70.19 65.65 70.33 65.22 70.47 64.76 70.61 64.49 70.75 64.67 70.9 65.2 71.04 65.02 71.18 63.87 71.32 63.55 71.47 63.46 71.61 63.51 71.75 63.64 71.89 63.78 72.03 63.94 72.18 63.93 72.32 64.22 72.46 64.72 72.6 65.33 72.74 65.57 72.89 65.84 73.03 66.34 73.17 66.1 73.31 65.7 73.45 65.39 73.6 65.29 73.74 64.94 73.88 64.63 74.02 64.43 74.16 64.15 74.31 64.14 74.45 63.83 74.59 63.54 74.73 63.13 74.88 63.37 75.02 63.48 75.16 63.8 75.3 63.41 75.44 63.44 75.59 63.83 75.73 63.58 75.87 63.19 76.01 62.58 76.15 62.71 76.3 63.95 76.44 68.4 76.54 66.16 76.69 64.5 76.83 63.5 76.97 62.42 77.11 62.23 77.25 62.87 77.4 64.12 77.54 64.67 77.68 64.32 77.82 63.82 77.97 63.34 78.11 62.93 78.25 62.98 78.39 63.37 78.53 63.49 78.68 63.24 78.82 62.99 78.96 62.69 79.1 62.96 79.24 63.45 79.39 63.91 79.53 63.55 79.67 63.58 79.81 63.86 79.95 63.8 80.1 63.55 80.24 63.29 80.38 63.34 80.52 63.78 80.66 64.2 80.81 65.09 80.95 65.86 81.09 65.84 81.23 65.69 81.37 65.82 81.52 65.63 81.66 65.44 81.8 65.21 81.94 65.28 82.09 65.47 82.23 65.77 82.37 65.9 82.51 66.14 82.65 66.17 82.8 65.71 82.94 69.19 83.03 65.1 83.17 63.99 83.31 63.98 83.45 64.75 83.59 63.82 83.74 63.94 83.88 65.65 84.02 66.89 84.16 66.4 84.31 66.25 84.45 66.22 84.59 65.75 84.73 65.4 84.87 64.56 85.02 64.83 85.16 65.19 85.3 65 85.44 65.09 85.58 64.85 85.73 64.91 85.87 65.08 86.01 65.54 86.15 66.28 86.29 66.84 86.44 67.37 86.58 68.05 86.72 68.46 86.86 68.35 87 68.34 87.15 68.47 87.29 68.73 87.43 68.61 87.57 68.36 87.71 67.97 87.86 64.76 88 64.95 88.14 65.14 88.28 65.82 88.43 66.1 88.57 65.5 88.71 64.58 88.85 63.57 88.99 64.58 89.14 64.5 89.28 63.56 89.42 69.65" id="img-ca624312-41"/>
      </g>
      <g stroke-width="0.3" fill="#000000" fill-opacity="0.000" class="geometry color_SoilMoisture" stroke-dasharray="none" stroke="#00B78D" id="img-ca624312-42">
        <path fill="none" d="M18.15,65.78 L 18.29 60.27 18.44 64.37 18.58 60.66 18.72 62.16 18.86 64.37 19 64.37 19.15 61.75 19.29 61.91 19.43 64.37 19.57 64.37 19.72 64.37 19.86 64.37 20 58.82 20.14 67.46 20.28 75.62 20.43 61.35 20.57 64.37 20.71 64.37 20.85 64.37 20.99 64.37 21.14 62.59 21.28 65.23 21.42 65.27 21.56 64.37 21.7 56.89 21.85 64.37 21.99 64.37 22.13 64.37 22.27 64.37 22.41 64.34 22.56 64.29 22.7 60.56 22.84 64.37 22.98 53.86 23.13 64.37 23.27 55.61 23.41 64.37 23.55 48.95 23.69 49.17 23.84 60.89 23.98 58.43 24.12 64.37 24.26 64.37 24.4 59.85 24.55 64.37 24.65 64.37 24.79 59.8 24.94 64.37 25.08 64.37 25.22 64.37 25.36 58.98 25.5 64.37 25.65 64.37 25.79 64.37 25.93 64.37 26.07 64.37 26.22 64.37 26.36 64.37 26.5 64.37 26.64 64.37 26.78 64.37 26.93 64.37 27.07 64.37 27.21 64.37 27.35 58.92 27.49 64.37 27.64 64.37 27.78 64.37 27.92 54.94 28.06 69.02 28.2 70.26 28.35 66.79 28.49 70.13 28.63 62.54 28.77 62.13 28.91 59.36 29.06 65.46 29.2 56.16 29.34 64.37 29.48 56.44 29.62 64.37 29.77 64.37 29.91 64.37 30.05 62.46 30.19 64.37 30.34 62.26 30.48 64.37 30.62 64.37 30.76 64.37 30.9 64.37 31.05 64.37 31.13 64.37 31.28 69.65 31.42 70.1 31.56 64.37 31.7 58.82 31.84 60.22 31.99 64.37 32.13 64.37 32.27 64.37 32.41 64.37 32.56 61.16 32.7 74.02 32.84 68.53 32.98 64.37 33.12 63.4 33.27 69.45 33.41 64.37 33.55 64.37 33.69 66.53 33.83 68.04 33.98 67.51 34.12 64.52 34.26 65.7 34.4 66.66 34.54 65.01 34.69 65.32 34.83 61.08 34.97 63.65 35.11 65.77 35.25 65.56 35.4 64.94 35.54 63.21 35.68 65.56 35.82 61.75 35.96 65.65 36.11 63.77 36.25 64.08 36.39 65.74 36.53 66.65 36.68 66.79 36.82 61.94 36.96 64.62 37.1 66.35 37.24 63.54 37.39 63.64 37.53 66.33 37.62 64.64 37.76 67.91 37.9 64.98 38.04 65.12 38.18 65.5 38.33 67.44 38.47 65.67 38.61 66.47 38.75 67.73 38.9 65.82 39.04 65.02 39.18 62.11 39.32 65.22 39.46 65.64 39.61 63.38 39.75 62.3 39.89 65.09 40.03 66.1 40.17 67.68 40.32 65.51 40.46 66.82 40.6 67.53 40.74 65.2 40.88 65.93 41.03 64.74 41.17 65.42 41.31 65.72 41.45 65.36 41.59 66.05 41.74 65.51 41.88 64.09 42.02 65.52 42.16 67.75 42.3 65.72 42.45 64.96 42.59 64.36 42.73 63.35 42.87 62.18 43.02 69.63 43.16 64.24 43.3 63.54 43.44 63.58 43.58 65.22 43.73 65.19 43.87 66.92 44.01 67.55 44.1 63.65 44.24 60.86 44.38 64.27 44.52 62.87 44.67 64.35 44.81 65.56 44.95 64.6 45.09 64.44 45.24 62.47 45.38 61.4 45.52 63.99 45.66 58.92 45.8 64.47 45.95 65.65 46.09 63.44 46.23 58.54 46.37 63.55 46.51 63.89 46.66 58.14 46.8 61.77 46.94 62.72 47.08 62.88 47.22 63.46 47.37 65.39 47.51 63.1 47.65 63.91 47.79 64.26 47.93 62.68 48.08 62.7 48.22 63.01 48.36 64.92 48.5 63.81 48.64 66.45 48.79 65.01 48.93 69.58 49.07 64.98 49.21 65.23 49.36 62.31 49.5 63.86 49.64 63.61 49.78 66.3 49.92 62.98 50.07 63.67 50.21 62.38 50.35 64.5 50.49 64.25 50.6 65.19 50.74 65.03 50.88 66.17 51.02 67.86 51.17 67.36 51.31 66.43 51.45 68.26 51.59 70.35 51.73 69.04 51.88 65.6 52.02 65.1 52.16 61.23 52.3 64.37 52.45 68.18 52.59 67.2 52.73 66.9 52.87 66.4 53.01 66.17 53.16 66.69 53.3 65.68 53.44 67.32 53.58 66.68 53.72 65.56 53.87 65.85 54.01 63.81 54.15 64.94 54.29 63.84 54.43 62.75 54.58 64.91 54.72 65.27 54.86 65.4 55 63.26 55.14 66.58 55.29 65.16 55.43 70.17 55.57 64.21 55.71 63.91 55.86 61.94 56 63.89 56.14 63.69 56.28 64.49 56.42 63.56 56.57 63.42 56.71 63.83 56.85 66.17 56.99 61.75 57.08 64.27 57.22 65.59 57.36 64.01 57.51 66.76 57.65 67.12 57.79 66.2 57.93 64.57 58.07 64.76 58.22 64.25 58.36 63.64 58.5 61.67 58.64 62.88 58.79 63.16 58.93 65.18 59.07 63.76 59.21 61.57 59.35 65.48 59.5 66.51 59.64 67.35 59.78 67.85 59.92 66.09 60.06 65.89 60.21 65.59 60.35 66.37 60.49 64.27 60.63 65.22 60.77 65.86 60.92 64.75 61.06 64.42 61.2 64.9 61.34 66.4 61.48 64.13 61.63 66.61 61.77 63 61.91 67.72 62.05 68.7 62.2 65.89 62.34 64.82 62.48 65.11 62.62 65.77 62.76 65.15 62.91 63.82 63.05 63.18 63.19 63.06 63.33 65.26 63.47 61.58 63.56 64.75 63.7 63.03 63.85 60.87 63.99 64.52 64.13 64.21 64.27 60.62 64.41 61.99 64.56 61.8 64.7 59.62 64.84 64.02 64.98 64.38 65.13 63.17 65.27 61.33 65.41 64.44 65.55 60.21 65.69 58.67 65.84 64.58 65.98 60.66 66.12 60.55 66.26 63.35 66.4 62.15 66.55 59.48 66.69 62.42 66.83 62.93 66.97 62.11 67.11 64.15 67.26 63.87 67.4 62.19 67.54 64.17 67.68 63.23 67.82 64.55 67.97 64.3 68.11 64.27 68.25 63.75 68.39 59.61 68.54 63.59 68.68 67.31 68.82 67.2 68.96 70.66 69.1 70.78 69.25 66.56 69.39 65.58 69.53 65.8 69.67 68.6 69.81 66.32 69.96 66.69 70.04 63.94 70.19 63.73 70.33 64.01 70.47 65.8 70.61 66.26 70.75 65.13 70.9 61.99 71.04 64.17 71.18 65.77 71.32 65.61 71.47 67.11 71.61 66.1 71.75 61.08 71.89 65.76 72.03 65.02 72.18 62.27 72.32 62.84 72.46 61.2 72.6 59.56 72.74 61.38 72.89 62.18 73.03 61.71 73.17 61.86 73.31 65.24 73.45 63.6 73.6 64.57 73.74 64.66 73.88 63.94 74.02 64.96 74.16 65.65 74.31 65.75 74.45 64.47 74.59 67.41 74.73 63.12 74.88 67.47 75.02 64.95 75.16 63.53 75.3 62.02 75.44 64.53 75.59 65.89 75.73 67.01 75.87 68.44 76.01 64.32 76.15 64.91 76.3 67.03 76.44 67.87 76.54 65.03 76.69 68.3 76.83 64.14 76.97 63.28 77.11 63.77 77.25 69.43 77.4 67.44 77.54 65.77 77.68 65.47 77.82 65.98 77.97 68.7 78.11 68.4 78.25 68.6 78.39 65.04 78.53 67.77 78.68 65.13 78.82 68.34 78.96 68.22 79.1 68.13 79.24 67.36 79.39 66.78 79.53 67.95 79.67 66.52 79.81 66.74 79.95 64.94 80.1 65.26 80.24 65.69 80.38 65.24 80.52 64.55 80.66 65.21 80.81 64.96 80.95 64.27 81.09 64.59 81.23 66.46 81.37 67.86 81.52 65.06 81.66 67.17 81.8 66.1 81.94 68.53 82.09 69.11 82.23 67.05 82.37 66.42 82.51 65.18 82.65 64.32 82.8 64.28 82.94 61.73 83.03 62.09 83.17 63.92 83.31 60.79 83.45 62.49 83.59 64.18 83.74 63.7 83.88 60.46 84.02 59.83 84.16 63.09 84.31 62.9 84.45 62.22 84.59 62.52 84.73 62.59 84.87 60.64 85.02 62.08 85.16 63.26 85.3 61.71 85.44 62.21 85.58 64.71 85.73 63.85 85.87 57.77 86.01 64.49 86.15 62.19 86.29 62.78 86.44 63.12 86.58 62.15 86.72 61.96 86.86 63.03 87 63.64 87.15 63.25 87.29 63.38 87.43 65.36 87.57 62.15 87.71 65.37 87.86 64.76 88 59.73 88.14 67.65 88.28 67.04 88.43 63.82 88.57 64.66 88.71 62.9 88.85 66.3 88.99 62.2 89.14 63.54 89.28 59.77 89.42 61.59" id="img-ca624312-43"/>
      </g>
      <g stroke-width="0.3" fill="#000000" fill-opacity="0.000" class="geometry color_BurntArea" stroke-dasharray="none" stroke="#FF6DAE" id="img-ca624312-44">
        <path fill="none" d="M18.15,64.37 L 18.29 64.37 18.44 64.37 18.58 64.37 18.72 64.37 18.86 64.37 19 64.37 19.15 64.37 19.29 64.37 19.43 64.37 19.57 64.37 19.72 64.37 19.86 64.37 20 64.37 20.14 64.37 20.28 64.37 20.43 64.37 20.57 64.37 20.71 64.37 20.85 64.37 20.99 64.37 21.14 64.37 21.28 64.72 21.42 65.42 21.56 65.42 21.7 65.42 21.85 64.48 21.99 64.37 22.13 64.37 22.27 64.37 22.41 64.37 22.56 64.37 22.7 64.37 22.84 64.37 22.98 64.49 23.13 64.64 23.27 64.64 23.41 64.64 23.55 64.37 23.69 64.37 23.84 64.37 23.98 64.37 24.12 64.37 24.26 64.37 24.4 64.37 24.55 64.37 24.65 64.37 24.79 64.37 24.94 64.37 25.08 64.37 25.22 64.37 25.36 64.37 25.5 64.37 25.65 64.37 25.79 64.37 25.93 64.37 26.07 64.37 26.22 64.37 26.36 64.37 26.5 64.37 26.64 64.37 26.78 64.37 26.93 64.37 27.07 64.37 27.21 64.37 27.35 64.37 27.49 64.37 27.64 64.37 27.78 65.06 27.92 68.12 28.06 68.12 28.2 68.12 28.35 65.32 28.49 64.37 28.63 64.37 28.77 64.37 28.91 64.37 29.06 64.37 29.2 64.37 29.34 64.37 29.48 64.49 29.62 64.64 29.77 64.64 29.91 64.64 30.05 64.37 30.19 64.37 30.34 64.37 30.48 64.37 30.62 64.37 30.76 64.37 30.9 64.37 31.05 64.37 31.13 64.37 31.28 64.37 31.42 64.37 31.56 64.37 31.7 64.37 31.84 64.37 31.99 64.37 32.13 64.37 32.27 64.37 32.41 64.37 32.56 64.37 32.7 64.37 32.84 64.37 32.98 64.37 33.12 64.37 33.27 64.37 33.41 64.37 33.55 64.37 33.69 64.37 33.83 64.37 33.98 64.37 34.12 64.37 34.26 65.06 34.4 68.12 34.54 68.12 34.69 68.12 34.83 65.32 34.97 64.37 35.11 64.37 35.25 64.37 35.4 64.37 35.54 64.37 35.68 64.37 35.82 64.37 35.96 64.49 36.11 64.64 36.25 64.64 36.39 64.64 36.53 64.37 36.68 64.37 36.82 64.37 36.96 64.37 37.1 64.37 37.24 64.37 37.39 64.37 37.53 64.37 37.62 64.37 37.76 64.37 37.9 64.37 38.04 64.37 38.18 64.37 38.33 64.37 38.47 64.37 38.61 64.37 38.75 64.37 38.9 64.37 39.04 64.37 39.18 64.37 39.32 64.37 39.46 64.37 39.61 64.37 39.75 64.37 39.89 64.37 40.03 64.37 40.17 64.37 40.32 64.37 40.46 64.37 40.6 64.37 40.74 65.06 40.88 68.12 41.03 68.12 41.17 68.12 41.31 65.32 41.45 64.37 41.59 64.37 41.74 64.37 41.88 64.37 42.02 64.37 42.16 64.37 42.3 64.37 42.45 64.49 42.59 64.64 42.73 64.64 42.87 64.64 43.02 64.37 43.16 64.37 43.3 64.37 43.44 64.37 43.58 64.37 43.73 64.37 43.87 64.37 44.01 64.37 44.1 64.37 44.24 64.37 44.38 64.37 44.52 64.37 44.67 64.37 44.81 64.37 44.95 64.37 45.09 64.37 45.24 64.37 45.38 64.37 45.52 64.37 45.66 64.37 45.8 64.37 45.95 64.37 46.09 64.37 46.23 64.37 46.37 64.37 46.51 64.37 46.66 64.37 46.8 64.37 46.94 64.37 47.08 64.37 47.22 65.06 47.37 68.12 47.51 68.12 47.65 68.12 47.79 65.32 47.93 64.37 48.08 64.37 48.22 64.37 48.36 64.37 48.5 64.37 48.64 64.37 48.79 64.37 48.93 64.49 49.07 64.64 49.21 64.64 49.36 64.64 49.5 64.37 49.64 64.37 49.78 64.37 49.92 64.37 50.07 64.37 50.21 64.37 50.35 64.37 50.49 64.37 50.6 64.37 50.74 64.37 50.88 64.37 51.02 64.37 51.17 64.37 51.31 64.37 51.45 64.37 51.59 64.37 51.73 64.37 51.88 64.37 52.02 64.37 52.16 64.37 52.3 64.37 52.45 64.37 52.59 64.37 52.73 64.37 52.87 64.37 53.01 64.37 53.16 64.37 53.3 64.37 53.44 64.37 53.58 64.37 53.72 65.06 53.87 68.12 54.01 68.12 54.15 68.12 54.29 65.32 54.43 64.37 54.58 64.37 54.72 64.37 54.86 64.37 55 64.37 55.14 64.37 55.29 64.37 55.43 63.19 55.57 61.68 55.71 61.68 55.86 61.68 56 64.37 56.14 64.37 56.28 64.37 56.42 64.37 56.57 64.37 56.71 64.37 56.85 64.37 56.99 64.37 57.08 64.37 57.22 64.37 57.36 64.37 57.51 64.37 57.65 64.37 57.79 64.37 57.93 64.37 58.07 64.37 58.22 64.37 58.36 64.37 58.5 64.37 58.64 64.37 58.79 64.37 58.93 64.37 59.07 64.37 59.21 64.37 59.35 64.37 59.5 64.37 59.64 64.37 59.78 64.37 59.92 64.37 60.06 64.37 60.21 65.06 60.35 68.12 60.49 68.12 60.63 68.12 60.77 65.32 60.92 64.37 61.06 64.37 61.2 64.37 61.34 64.37 61.48 64.37 61.63 64.37 61.77 64.37 61.91 64.49 62.05 64.64 62.2 64.64 62.34 64.64 62.48 64.37 62.62 64.37 62.76 64.37 62.91 64.37 63.05 64.37 63.19 64.37 63.33 64.37 63.47 64.37 63.56 64.37 63.7 64.37 63.85 64.37 63.99 64.37 64.13 64.37 64.27 64.37 64.41 64.37 64.56 64.37 64.7 64.37 64.84 64.37 64.98 64.37 65.13 64.37 65.27 64.37 65.41 64.37 65.55 64.37 65.69 64.37 65.84 64.37 65.98 64.37 66.12 64.37 66.26 64.37 66.4 64.37 66.55 64.37 66.69 65.06 66.83 68.12 66.97 68.12 67.11 68.12 67.26 65.32 67.4 64.37 67.54 64.37 67.68 64.37 67.82 64.37 67.97 64.37 68.11 64.37 68.25 64.37 68.39 64.49 68.54 64.64 68.68 64.64 68.82 64.64 68.96 64.37 69.1 64.37 69.25 64.37 69.39 64.37 69.53 64.37 69.67 64.37 69.81 64.37 69.96 64.37 70.04 64.37 70.19 64.37 70.33 64.37 70.47 64.37 70.61 64.37 70.75 64.37 70.9 64.37 71.04 64.37 71.18 64.37 71.32 64.37 71.47 64.37 71.61 64.37 71.75 64.37 71.89 64.37 72.03 64.37 72.18 64.37 72.32 64.37 72.46 64.37 72.6 64.37 72.74 64.37 72.89 64.37 73.03 64.37 73.17 65.06 73.31 68.12 73.45 68.12 73.6 68.12 73.74 65.32 73.88 64.37 74.02 64.37 74.16 64.37 74.31 64.37 74.45 64.37 74.59 64.37 74.73 64.37 74.88 64.49 75.02 64.64 75.16 64.64 75.3 64.64 75.44 64.37 75.59 64.37 75.73 64.37 75.87 64.37 76.01 64.37 76.15 64.37 76.3 64.37 76.44 64.37 76.54 64.37 76.69 64.37 76.83 64.37 76.97 64.37 77.11 64.37 77.25 64.37 77.4 64.37 77.54 64.37 77.68 64.37 77.82 64.37 77.97 64.37 78.11 64.37 78.25 64.37 78.39 64.37 78.53 64.37 78.68 64.37 78.82 64.37 78.96 64.37 79.1 64.37 79.24 64.37 79.39 64.37 79.53 64.37 79.67 57.84 79.81 29.61 79.95 29.61 80.1 29.61 80.24 55.7 80.38 64.37 80.52 64.37 80.66 64.37 80.81 64.37 80.95 64.37 81.09 64.37 81.23 64.37 81.37 64.49 81.52 64.64 81.66 64.64 81.8 64.64 81.94 64.37 82.09 64.37 82.23 64.37 82.37 64.37 82.51 64.37 82.65 64.37 82.8 64.37 82.94 64.37 83.03 64.37 83.17 64.37 83.31 64.37 83.45 64.37 83.59 64.37 83.74 64.37 83.88 64.37 84.02 64.37 84.16 64.37 84.31 64.37 84.45 64.37 84.59 64.37 84.73 64.37 84.87 64.37 85.02 64.37 85.16 64.37 85.3 64.37 85.44 64.37 85.58 64.37 85.73 64.37 85.87 64.37 86.01 64.37 86.15 65.06 86.29 68.12 86.44 68.12 86.58 68.12 86.72 65.32 86.86 64.37 87 64.37 87.15 64.37 87.29 64.37 87.43 64.37 87.57 64.37 87.71 64.37 87.86 64.49 88 64.64 88.14 64.64 88.28 64.64 88.43 64.37 88.57 64.37 88.71 64.37 88.85 64.37 88.99 64.37 89.14 64.37 89.28 64.37 89.42 64.37" id="img-ca624312-45"/>
      </g>
      <g stroke-width="0.3" fill="#000000" fill-opacity="0.000" class="geometry color_DHR_VIS" stroke-dasharray="none" stroke="#D4CA3A" id="img-ca624312-46">
        <path fill="none" d="M18.15,59.47 L 18.29 62.91 18.44 62.32 18.58 62.51 18.72 63.2 18.86 64.03 19 66.26 19.15 63.85 19.29 63.03 19.43 62.62 19.57 62.32 19.72 62.2 19.86 62.54 20 63.21 20.14 63.87 20.28 64.26 20.43 64.39 20.57 64.32 20.71 64.5 20.85 64.58 20.99 64.33 21.14 64 21.28 63.9 21.42 63.93 21.56 63.84 21.7 63.78 21.85 63.7 21.99 63.35 22.13 62.98 22.27 62.59 22.41 62.2 22.56 62.07 22.7 62.62 22.84 63.62 22.98 64.42 23.13 64.44 23.27 64.18 23.41 63.67 23.55 63.75 23.69 64.19 23.84 64.52 23.98 64.94 24.12 65.1 24.26 65.91 24.4 66.36 24.55 20.17 24.65 61.91 24.79 68.78 24.94 69.12 25.08 69.09 25.22 68.42 25.36 68.08 25.5 68.3 25.65 68.28 25.79 67.91 25.93 67.61 26.07 67.66 26.22 67.58 26.36 67.27 26.5 66.97 26.64 66.48 26.78 66.14 26.93 66.02 27.07 66.09 27.21 66.1 27.35 66.25 27.49 66.4 27.64 66.16 27.78 65.66 27.92 65.46 28.06 65.38 28.2 65.29 28.35 65.44 28.49 65.53 28.63 65.53 28.77 65.49 28.91 65.34 29.06 65.34 29.2 65.3 29.34 65.11 29.48 65.52 29.62 65.78 29.77 65.92 29.91 65.51 30.05 65.47 30.19 65.29 30.34 65.41 30.48 65.54 30.62 64.56 30.76 62.72 30.9 60.98 31.05 68.08 31.13 65.56 31.28 66.99 31.42 67.34 31.56 67.65 31.7 67.41 31.84 67.14 31.99 67.05 32.13 66.39 32.27 66.34 32.41 66.09 32.56 65.41 32.7 64.76 32.84 64.31 32.98 64.45 33.12 64.42 33.27 64.15 33.41 63.95 33.55 63.9 33.69 63.35 33.83 63.18 33.98 62.87 34.12 62.74 34.26 62.82 34.4 62.93 34.54 62.83 34.69 62.77 34.83 62.84 34.97 62.92 35.11 62.92 35.25 63.23 35.4 63.8 35.54 64.19 35.68 64.8 35.82 64.81 35.96 64.95 36.11 64.76 36.25 64.43 36.39 64.01 36.53 63.78 36.68 63.58 36.82 62.91 36.96 62.5 37.1 61.38 37.24 59.04 37.39 56.11 37.53 57.42 37.62 56.47 37.76 52.92 37.9 60.11 38.04 62.47 38.18 63.7 38.33 64.65 38.47 65.39 38.61 65.36 38.75 64.66 38.9 64.71 39.04 64.93 39.18 65.11 39.32 64.76 39.46 64.6 39.61 64.56 39.75 64.68 39.89 64.62 40.03 64.3 40.17 63.94 40.32 63.67 40.46 63.55 40.6 63.67 40.74 63.75 40.88 63.79 41.03 63.77 41.17 63.55 41.31 63.28 41.45 63.17 41.59 63.16 41.74 63.19 41.88 63.26 42.02 63.39 42.16 63.89 42.3 65.11 42.45 65.86 42.59 65.87 42.73 65.7 42.87 65.37 43.02 65.71 43.16 66 43.3 65.98 43.44 66.06 43.58 65.55 43.73 66.34 43.87 68.07 44.01 73.34 44.1 67.17 44.24 66.91 44.38 66.64 44.52 66.23 44.67 65.93 44.81 65.85 44.95 65.64 45.09 65.18 45.24 64.64 45.38 64.27 45.52 64.26 45.66 64.34 45.8 64.58 45.95 64.66 46.09 64.52 46.23 64.43 46.37 64.57 46.51 64.55 46.66 64.73 46.8 64.76 46.94 64.97 47.08 64.93 47.22 64.73 47.37 64.38 47.51 64.07 47.65 64.14 47.79 64.44 47.93 64.85 48.08 64.84 48.22 64.97 48.36 64.61 48.5 64.25 48.64 63.53 48.79 62.81 48.93 62.64 49.07 62.42 49.21 62.66 49.36 62.9 49.5 63.32 49.64 63.58 49.78 63.19 49.92 62.2 50.07 62.45 50.21 63.5 50.35 64.46 50.49 69.4 50.6 66.75 50.74 64.99 50.88 64.22 51.02 62.89 51.17 60.93 51.31 59.17 51.45 55.24 51.59 56.45 51.73 58.93 51.88 60.47 52.02 61.29 52.16 62.51 52.3 63.11 52.45 63.08 52.59 62.86 52.73 63.06 52.87 63.5 53.01 63.67 53.16 63.69 53.3 63.52 53.44 63.15 53.58 63.03 53.72 62.95 53.87 62.73 54.01 62.57 54.15 62.38 54.29 62.37 54.43 62.55 54.58 62.71 54.72 62.5 54.86 62.16 55 61.91 55.14 61.49 55.29 60.95 55.43 61.18 55.57 61.77 55.71 62.41 55.86 62.71 56 62.39 56.14 62.03 56.28 62.9 56.42 63.79 56.57 64.26 56.71 64.66 56.85 65.1 56.99 69.08 57.08 65.13 57.22 63.11 57.36 61.65 57.51 60.75 57.65 61.41 57.79 59.61 57.93 56.43 58.07 57.78 58.22 61.15 58.36 63.08 58.5 64.21 58.64 64.59 58.79 64.69 58.93 64.56 59.07 64.35 59.21 64.07 59.35 63.74 59.5 63.73 59.64 63.61 59.78 63.17 59.92 63.02 60.06 63.21 60.21 63.22 60.35 63.44 60.49 64.14 60.63 64.44 60.77 64.55 60.92 64.6 61.06 64.66 61.2 64.5 61.34 64.26 61.48 64.13 61.63 63.94 61.77 63.83 61.91 63.9 62.05 63.68 62.2 63.71 62.34 65.45 62.48 65.36 62.62 65.56 62.76 66.38 62.91 67.14 63.05 67.65 63.19 68.03 63.33 68.47 63.47 72.58 63.56 67.79 63.7 66.57 63.85 63.43 63.99 64.44 64.13 66.62 64.27 68.08 64.41 68.92 64.56 68.49 64.7 66.96 64.84 65.52 64.98 64.71 65.13 64.36 65.27 64.48 65.41 64.69 65.55 64.98 65.69 65.17 65.84 64.82 65.98 64.84 66.12 64.77 66.26 65.06 66.4 65.56 66.55 66.03 66.69 66.05 66.83 65.9 66.97 65.71 67.11 65.54 67.26 65.36 67.4 65.33 67.54 65.27 67.68 65.22 67.82 65.08 67.97 64.84 68.11 65.11 68.25 65.23 68.39 65.63 68.54 65.26 68.68 64.69 68.82 64.03 68.96 63.55 69.1 63.2 69.25 63.21 69.39 63.73 69.53 63.91 69.67 64.3 69.81 64.84 69.96 69.68 70.04 66.06 70.19 65.86 70.33 65.42 70.47 64.92 70.61 64.59 70.75 64.71 70.9 65.19 71.04 64.94 71.18 63.88 71.32 63.62 71.47 63.56 71.61 63.64 71.75 63.74 71.89 63.94 72.03 64 72.18 64 72.32 64.4 72.46 64.95 72.6 65.49 72.74 65.73 72.89 65.84 73.03 66.02 73.17 65.82 73.31 65.57 73.45 65.38 73.6 65.24 73.74 65.02 73.88 64.75 74.02 64.58 74.16 64.38 74.31 64.26 74.45 64.08 74.59 63.77 74.73 63.36 74.88 63.5 75.02 63.54 75.16 63.82 75.3 63.45 75.44 63.44 75.59 63.77 75.73 63.49 75.87 63.17 76.01 62.66 76.15 62.81 76.3 64.15 76.44 68.7 76.54 66.39 76.69 64.73 76.83 63.68 76.97 62.36 77.11 62.1 77.25 62.84 77.4 64.14 77.54 64.63 77.68 64.3 77.82 63.87 77.97 63.47 78.11 63.13 78.25 63.21 78.39 63.42 78.53 63.39 78.68 63.11 78.82 62.73 78.96 62.59 79.1 62.98 79.24 63.31 79.39 63.43 79.53 63.05 79.67 63.46 79.81 63.8 79.95 63.78 80.1 63.57 80.24 63.2 80.38 63.14 80.52 63.5 80.66 63.92 80.81 64.81 80.95 65.62 81.09 65.67 81.23 65.53 81.37 65.73 81.52 65.6 81.66 65.4 81.8 65.18 81.94 65.29 82.09 65.53 82.23 65.85 82.37 66.02 82.51 66.29 82.65 66.37 82.8 65.96 82.94 69.62 83.03 65.38 83.17 64.33 83.31 64.17 83.45 64.79 83.59 63.79 83.74 63.93 83.88 65.54 84.02 66.72 84.16 66.29 84.31 66.22 84.45 66.28 84.59 65.87 84.73 65.4 84.87 64.51 85.02 64.66 85.16 65.01 85.3 65.37 85.44 65.16 85.58 64.93 85.73 64.87 85.87 64.98 86.01 65.26 86.15 65.73 86.29 66.17 86.44 66.62 86.58 67.39 86.72 67.89 86.86 67.91 87 67.94 87.15 68.1 87.29 68.31 87.43 68.27 87.57 67.98 87.71 67.73 87.86 64.76 88 64.95 88.14 65.17 88.28 65.81 88.43 66.03 88.57 65.36 88.71 64.25 88.85 63 88.99 64.29 89.14 64.42 89.28 63.59 89.42 70.01" id="img-ca624312-47"/>
      </g>
      <g stroke-width="0.3" fill="#000000" fill-opacity="0.000" class="geometry color_Emission" stroke-dasharray="none" stroke="#00BFFF" id="img-ca624312-48">
        <path fill="none" d="M18.15,64.37 L 18.29 64.37 18.44 64.37 18.58 64.37 18.72 64.37 18.86 64.37 19 64.37 19.15 64.37 19.29 64.37 19.43 64.37 19.57 64.37 19.72 64.37 19.86 64.37 20 64.37 20.14 64.37 20.28 64.37 20.43 64.37 20.57 64.37 20.71 64.37 20.85 64.37 20.99 64.37 21.14 64.37 21.28 64.37 21.42 64.37 21.56 64.37 21.7 64.37 21.85 64.37 21.99 64.37 22.13 64.37 22.27 64.37 22.41 64.37 22.56 64.37 22.7 64.37 22.84 64.37 22.98 64.37 23.13 64.37 23.27 64.37 23.41 64.37 23.55 64.37 23.69 64.37 23.84 64.37 23.98 64.37 24.12 64.37 24.26 64.37 24.4 64.37 24.55 64.37 24.65 64.37 24.79 64.37 24.94 64.37 25.08 64.37 25.22 64.37 25.36 64.37 25.5 64.37 25.65 64.37 25.79 64.37 25.93 64.37 26.07 64.37 26.22 64.37 26.36 64.37 26.5 64.37 26.64 64.37 26.78 64.37 26.93 64.37 27.07 64.37 27.21 64.37 27.35 64.37 27.49 64.37 27.64 64.37 27.78 65.03 27.92 67.86 28.06 67.86 28.2 67.86 28.35 65.25 28.49 64.37 28.63 64.37 28.77 64.37 28.91 64.37 29.06 64.37 29.2 64.37 29.34 64.37 29.48 64.8 29.62 65.49 29.77 65.49 29.91 65.49 30.05 65.16 30.19 65.1 30.34 65.1 30.48 64.65 30.62 64.37 30.76 64.37 30.9 64.37 31.05 64.37 31.13 64.37 31.28 64.37 31.42 64.37 31.56 64.37 31.7 64.37 31.84 64.37 31.99 64.37 32.13 64.37 32.27 64.37 32.41 64.37 32.56 64.37 32.7 64.37 32.84 64.37 32.98 64.37 33.12 64.37 33.27 64.37 33.41 64.37 33.55 64.37 33.69 64.37 33.83 64.37 33.98 64.37 34.12 64.37 34.26 65.03 34.4 67.86 34.54 67.86 34.69 67.86 34.83 65.25 34.97 64.37 35.11 64.37 35.25 64.37 35.4 64.37 35.54 64.37 35.68 64.37 35.82 64.37 35.96 64.8 36.11 65.49 36.25 65.49 36.39 65.49 36.53 65.16 36.68 65.1 36.82 65.1 36.96 64.65 37.1 64.37 37.24 64.37 37.39 64.37 37.53 64.37 37.62 64.37 37.76 64.37 37.9 64.37 38.04 64.37 38.18 64.37 38.33 64.37 38.47 64.37 38.61 64.37 38.75 64.37 38.9 64.37 39.04 64.37 39.18 64.37 39.32 64.37 39.46 64.37 39.61 64.37 39.75 64.37 39.89 64.37 40.03 64.37 40.17 64.37 40.32 64.37 40.46 64.37 40.6 64.37 40.74 65.03 40.88 67.86 41.03 67.86 41.17 67.86 41.31 65.25 41.45 64.37 41.59 64.37 41.74 64.37 41.88 64.37 42.02 64.37 42.16 64.37 42.3 64.37 42.45 64.8 42.59 65.49 42.73 65.49 42.87 65.49 43.02 65.16 43.16 65.1 43.3 65.1 43.44 64.65 43.58 64.37 43.73 64.37 43.87 64.37 44.01 64.37 44.1 64.37 44.24 64.37 44.38 64.37 44.52 64.37 44.67 64.37 44.81 64.37 44.95 64.37 45.09 64.37 45.24 64.37 45.38 64.37 45.52 64.37 45.66 64.37 45.8 64.37 45.95 64.37 46.09 64.37 46.23 64.37 46.37 64.37 46.51 64.37 46.66 64.37 46.8 64.37 46.94 64.37 47.08 64.37 47.22 65.03 47.37 67.86 47.51 67.86 47.65 67.86 47.79 65.25 47.93 64.37 48.08 64.37 48.22 64.37 48.36 64.37 48.5 64.37 48.64 64.37 48.79 64.37 48.93 61.39 49.07 56.38 49.21 56.38 49.36 56.38 49.5 64.59 49.64 65.1 49.78 65.1 49.92 64.65 50.07 64.37 50.21 64.37 50.35 64.37 50.49 64.37 50.6 64.37 50.74 64.37 50.88 64.37 51.02 64.37 51.17 64.37 51.31 64.37 51.45 64.37 51.59 64.37 51.73 64.37 51.88 64.37 52.02 64.37 52.16 64.37 52.3 64.37 52.45 64.37 52.59 64.37 52.73 64.37 52.87 64.37 53.01 64.37 53.16 64.37 53.3 64.37 53.44 64.37 53.58 64.37 53.72 65.03 53.87 67.86 54.01 67.86 54.15 67.86 54.29 65.25 54.43 64.37 54.58 64.37 54.72 64.37 54.86 64.37 55 64.37 55.14 64.37 55.29 64.37 55.43 63.9 55.57 63.43 55.71 63.43 55.86 63.43 56 65.16 56.14 65.1 56.28 65.1 56.42 64.65 56.57 64.37 56.71 64.37 56.85 64.37 56.99 64.37 57.08 64.37 57.22 64.37 57.36 64.37 57.51 64.37 57.65 64.37 57.79 64.37 57.93 64.37 58.07 64.37 58.22 64.37 58.36 64.37 58.5 64.37 58.64 64.37 58.79 64.37 58.93 64.37 59.07 64.37 59.21 64.37 59.35 64.37 59.5 64.37 59.64 64.37 59.78 64.37 59.92 64.37 60.06 64.37 60.21 65.03 60.35 67.86 60.49 67.86 60.63 67.86 60.77 65.25 60.92 64.37 61.06 64.37 61.2 64.37 61.34 64.37 61.48 64.37 61.63 64.37 61.77 64.37 61.91 64.8 62.05 65.49 62.2 65.49 62.34 65.49 62.48 65.16 62.62 65.1 62.76 65.1 62.91 64.65 63.05 64.37 63.19 64.37 63.33 64.37 63.47 64.37 63.56 64.37 63.7 64.37 63.85 64.37 63.99 64.37 64.13 64.37 64.27 64.37 64.41 64.37 64.56 64.37 64.7 64.37 64.84 64.37 64.98 64.37 65.13 64.37 65.27 64.37 65.41 64.37 65.55 64.37 65.69 64.37 65.84 64.37 65.98 64.37 66.12 64.37 66.26 64.37 66.4 64.37 66.55 64.37 66.69 65.03 66.83 67.86 66.97 67.86 67.11 67.86 67.26 65.25 67.4 64.37 67.54 64.37 67.68 64.37 67.82 64.37 67.97 64.37 68.11 64.37 68.25 64.37 68.39 64.8 68.54 65.49 68.68 65.49 68.82 65.49 68.96 65.16 69.1 65.1 69.25 65.1 69.39 64.65 69.53 64.37 69.67 64.37 69.81 64.37 69.96 64.37 70.04 64.37 70.19 64.37 70.33 64.37 70.47 64.37 70.61 64.37 70.75 64.37 70.9 64.37 71.04 64.37 71.18 64.37 71.32 64.37 71.47 64.37 71.61 64.37 71.75 64.37 71.89 64.37 72.03 64.37 72.18 64.37 72.32 64.37 72.46 64.37 72.6 64.37 72.74 64.37 72.89 64.37 73.03 64.37 73.17 65.03 73.31 67.86 73.45 67.86 73.6 67.86 73.74 65.25 73.88 64.37 74.02 64.37 74.16 64.37 74.31 64.37 74.45 64.37 74.59 64.37 74.73 64.37 74.88 64.8 75.02 65.49 75.16 65.49 75.3 65.49 75.44 65.16 75.59 65.1 75.73 65.1 75.87 64.65 76.01 64.37 76.15 64.37 76.3 64.37 76.44 64.37 76.54 64.37 76.69 64.37 76.83 64.37 76.97 64.37 77.11 64.37 77.25 64.37 77.4 64.37 77.54 64.37 77.68 64.37 77.82 64.37 77.97 64.37 78.11 64.37 78.25 64.37 78.39 64.37 78.53 64.37 78.68 64.37 78.82 64.37 78.96 64.37 79.1 64.37 79.24 64.37 79.39 64.37 79.53 64.37 79.67 58.48 79.81 32.94 79.95 32.94 80.1 32.94 80.24 56.51 80.38 64.37 80.52 64.37 80.66 64.37 80.81 64.37 80.95 64.37 81.09 64.37 81.23 64.37 81.37 64.8 81.52 65.49 81.66 65.49 81.8 65.49 81.94 57.84 82.09 57.78 82.23 57.78 82.37 61.9 82.51 64.37 82.65 64.37 82.8 64.37 82.94 64.37 83.03 64.37 83.17 64.37 83.31 64.37 83.45 64.37 83.59 64.37 83.74 64.37 83.88 64.37 84.02 64.37 84.16 64.37 84.31 64.37 84.45 64.37 84.59 64.37 84.73 64.37 84.87 64.37 85.02 64.37 85.16 64.37 85.3 64.37 85.44 64.37 85.58 64.37 85.73 64.37 85.87 64.37 86.01 64.37 86.15 65.03 86.29 67.86 86.44 67.86 86.58 67.86 86.72 65.25 86.86 64.37 87 64.37 87.15 64.37 87.29 64.37 87.43 64.37 87.57 64.37 87.71 64.37 87.86 64.8 88 65.49 88.14 65.49 88.28 65.49 88.43 65.16 88.57 65.1 88.71 65.1 88.85 64.65 88.99 64.37 89.14 64.37 89.28 64.37 89.42 64.37" id="img-ca624312-49"/>
      </g>
    </g>
  </g>
</g>
  <g class="guide ylabels" font-size="2.82" font-family="'PT Sans Caption','Helvetica Neue','Helvetica',sans-serif" fill="#6C606B" id="img-ca624312-50">
    <text x="15.15" y="78.71" text-anchor="end" dy="0.35em" id="img-ca624312-51">-5</text>
    <text x="15.15" y="64.37" text-anchor="end" dy="0.35em" id="img-ca624312-52">0</text>
    <text x="15.15" y="50.03" text-anchor="end" dy="0.35em" id="img-ca624312-53">5</text>
    <text x="15.15" y="35.69" text-anchor="end" dy="0.35em" id="img-ca624312-54">10</text>
    <text x="15.15" y="21.34" text-anchor="end" dy="0.35em" id="img-ca624312-55">15</text>
    <text x="15.15" y="7" text-anchor="end" dy="0.35em" id="img-ca624312-56">20</text>
  </g>
  <g font-size="3.88" font-family="'PT Sans','Helvetica Neue','Helvetica',sans-serif" fill="#564A55" stroke="#000000" stroke-opacity="0.000" id="img-ca624312-57">
    <text x="8.81" y="42.86" text-anchor="end" dy="0.35em" id="img-ca624312-58">y</text>
  </g>
</g>
<defs>
  <clipPath id="img-ca624312-21">
  <path d="M16.15,5 L 117.45 5 117.45 80.72 16.15 80.72" />
</clipPath>
</defs>
</svg>
